<ttFont>
<head>
    <!-- Most of this table will be recalculated by the compiler -->
    <tableVersion value="1.0"/>
    <fontRevision value="2.202"/>
    <checkSumAdjustment value="0xa4966d3c"/>
    <magicNumber value="0x5f0f3cf5"/>
    <flags value="00000000 00000001"/>
    <unitsPerEm value="1000"/>
    <created value="Thu Mar 17 16:28:06 2016"/>
    <modified value="Thu Mar 17 16:31:57 2016"/>
    <xMin value="-133"/>
    <yMin value="-254"/>
    <xMax value="1017"/>
    <yMax value="1023"/>
    <macStyle value="00000000 00000010"/>
    <lowestRecPPEM value="5"/>
    <fontDirectionHint value="2"/>
    <indexToLocFormat value="0"/>
    <glyphDataFormat value="0"/>
  </head>
    <TTGlyph name=".notdef" xMin="0" yMin="-200" xMax="500" yMax="800">
      <contour>
        <pt x="0" y="-200" on="1"/>
        <pt x="0" y="800" on="1"/>
        <pt x="500" y="800" on="1"/>
        <pt x="500" y="-200" on="1"/>
      </contour>
      <contour>
        <pt x="71" y="750" on="1"/>
        <pt x="250" y="360" on="1"/>
        <pt x="429" y="750" on="1"/>
      </contour>
      <contour>
        <pt x="450" y="676" on="1"/>
        <pt x="278" y="300" on="1"/>
        <pt x="450" y="-76" on="1"/>
      </contour>
      <contour>
        <pt x="50" y="-76" on="1"/>
        <pt x="222" y="300" on="1"/>
        <pt x="50" y="676" on="1"/>
      </contour>
      <contour>
        <pt x="250" y="240" on="1"/>
        <pt x="71" y="-150" on="1"/>
        <pt x="429" y="-150" on="1"/>
      </contour>
    </TTGlyph>
    <TTGlyph name="A" xMin="-33" yMin="-9" xMax="577" yMax="692">
      <contour>
        <pt x="377" y="-9" on="1"/>
        <pt x="366" y="116" on="1"/>
        <pt x="204" y="116" on="1"/>
        <pt x="160" y="0" on="1"/>
        <pt x="-33" y="0" on="1"/>
        <pt x="265" y="692" on="1"/>
        <pt x="487" y="692" on="1"/>
        <pt x="577" y="23" on="1"/>
      </contour>
      <contour>
        <pt x="338" y="483" on="1"/>
        <pt x="258" y="268" on="1"/>
        <pt x="357" y="268" on="1"/>
      </contour>
    </TTGlyph>
    <TTGlyph name="A.flat" xMin="-33" yMin="0" xMax="581" yMax="692">
      <contour>
        <pt x="338" y="483" on="1"/>
        <pt x="258" y="268" on="1"/>
        <pt x="357" y="268" on="1"/>
      </contour>
      <contour>
        <pt x="376" y="0" on="1"/>
        <pt x="366" y="116" on="1"/>
        <pt x="204" y="116" on="1"/>
        <pt x="160" y="0" on="1"/>
        <pt x="-33" y="0" on="1"/>
        <pt x="265" y="692" on="1"/>
        <pt x="487" y="692" on="1"/>
        <pt x="581" y="0" on="1"/>
      </contour>
    </TTGlyph>
    <TTGlyph name="AE" xMin="-43" yMin="0" xMax="845" yMax="690">
      <contour>
        <pt x="381" y="268" on="1"/>
        <pt x="425" y="562" on="1"/>
        <pt x="280" y="268" on="1"/>
      </contour>
      <contour>
        <pt x="341" y="0" on="1"/>
        <pt x="358" y="116" on="1"/>
        <pt x="208" y="116" on="1"/>
        <pt x="147" y="0" on="1"/>
        <pt x="-43" y="0" on="1"/>
        <pt x="320" y="690" on="1"/>
        <pt x="845" y="690" on="1"/>
        <pt x="822" y="531" on="1"/>
        <pt x="617" y="531" on="1"/>
        <pt x="617" y="531" on="0"/>
        <pt x="612" y="501" on="0"/>
        <pt x="607" y="465" on="0"/>
        <pt x="603" y="435" on="0"/>
        <pt x="603" y="435" on="1"/>
        <pt x="748" y="435" on="1"/>
        <pt x="748" y="274" on="1"/>
        <pt x="578" y="274" on="1"/>
        <pt x="561" y="159" on="1"/>
        <pt x="774" y="159" on="1"/>
        <pt x="750" y="0" on="1"/>
      </contour>
    </TTGlyph>
    <TTGlyph name="AE.flat" xMin="-43" yMin="0" xMax="845" yMax="690">
      <contour>
        <pt x="381" y="268" on="1"/>
        <pt x="425" y="562" on="1"/>
        <pt x="280" y="268" on="1"/>
      </contour>
      <contour>
        <pt x="341" y="0" on="1"/>
        <pt x="358" y="116" on="1"/>
        <pt x="208" y="116" on="1"/>
        <pt x="147" y="0" on="1"/>
        <pt x="-43" y="0" on="1"/>
        <pt x="320" y="690" on="1"/>
        <pt x="845" y="690" on="1"/>
        <pt x="822" y="531" on="1"/>
        <pt x="617" y="531" on="1"/>
        <pt x="617" y="531" on="0"/>
        <pt x="612" y="501" on="0"/>
        <pt x="607" y="465" on="0"/>
        <pt x="603" y="435" on="0"/>
        <pt x="603" y="435" on="1"/>
        <pt x="759" y="435" on="1"/>
        <pt x="735" y="274" on="1"/>
        <pt x="578" y="274" on="1"/>
        <pt x="561" y="159" on="1"/>
        <pt x="774" y="159" on="1"/>
        <pt x="750" y="0" on="1"/>
      </contour>
    </TTGlyph>
    <TTGlyph name="AEacute" xMin="-43" yMin="0" xMax="845" yMax="882">
      <component glyphName="AE" x="0" y="0" flags="0x204"/>
      <component glyphName="acute" x="350" y="190" flags="0x4"/>
    </TTGlyph>
    <TTGlyph name="AEacute.flat" xMin="-43" yMin="0" xMax="845" yMax="882">
      <component glyphName="AE.flat" x="0" y="0" flags="0x204"/>
      <component glyphName="acute" x="350" y="190" flags="0x4"/>
    </TTGlyph>
    <TTGlyph name="Aacute" xMin="-33" yMin="-9" xMax="584" yMax="890">
      <component glyphName="A" x="0" y="0" flags="0x204"/>
      <component glyphName="acute" x="199" y="198" flags="0x4"/>
    </TTGlyph>
    <TTGlyph name="Aacute.flat" xMin="-33" yMin="0" xMax="584" yMax="890">
      <component glyphName="A.flat" x="0" y="0" flags="0x204"/>
      <component glyphName="acute" x="199" y="198" flags="0x4"/>
    </TTGlyph>
    <TTGlyph name="Abreve" xMin="-33" yMin="-9" xMax="577" yMax="894">
      <component glyphName="A" x="0" y="0" flags="0x204"/>
      <component glyphName="breve" x="149" y="198" flags="0x4"/>
    </TTGlyph>
    <TTGlyph name="Abreve.flat" xMin="-33" yMin="0" xMax="581" yMax="894">
      <component glyphName="A.flat" x="0" y="0" flags="0x204"/>
      <component glyphName="breve" x="149" y="198" flags="0x4"/>
    </TTGlyph>
    <TTGlyph name="Acircumflex" xMin="-33" yMin="-9" xMax="577" yMax="889">
      <component glyphName="A" x="0" y="0" flags="0x204"/>
      <component glyphName="circumflex" x="143" y="198" flags="0x4"/>
    </TTGlyph>
    <TTGlyph name="Acircumflex.flat" xMin="-33" yMin="0" xMax="581" yMax="889">
      <component glyphName="A.flat" x="0" y="0" flags="0x204"/>
      <component glyphName="circumflex" x="143" y="198" flags="0x4"/>
    </TTGlyph>
    <TTGlyph name="Adieresis" xMin="-33" yMin="-9" xMax="577" yMax="881">
      <component glyphName="A" x="0" y="0" flags="0x204"/>
      <component glyphName="dieresis" x="145" y="198" flags="0x4"/>
    </TTGlyph>
    <TTGlyph name="Adieresis.flat" xMin="-33" yMin="0" xMax="581" yMax="881">
      <component glyphName="A.flat" x="0" y="0" flags="0x204"/>
      <component glyphName="dieresis" x="145" y="198" flags="0x4"/>
    </TTGlyph>
    <TTGlyph name="Agrave" xMin="-33" yMin="-9" xMax="577" yMax="890">
      <component glyphName="A" x="0" y="0" flags="0x204"/>
      <component glyphName="grave" x="81" y="198" flags="0x4"/>
    </TTGlyph>
    <TTGlyph name="Agrave.flat" xMin="-33" yMin="0" xMax="581" yMax="890">
      <component glyphName="A.flat" x="0" y="0" flags="0x204"/>
      <component glyphName="grave" x="81" y="198" flags="0x4"/>
    </TTGlyph>
    <TTGlyph name="Amacron" xMin="-33" yMin="-9" xMax="577" yMax="861">
      <component glyphName="A" x="0" y="0" flags="0x204"/>
      <component glyphName="macron" x="145" y="198" flags="0x4"/>
    </TTGlyph>
    <TTGlyph name="Amacron.flat" xMin="-33" yMin="0" xMax="581" yMax="861">
      <component glyphName="A.flat" x="0" y="0" flags="0x204"/>
      <component glyphName="macron" x="145" y="198" flags="0x4"/>
    </TTGlyph>
    <TTGlyph name="Aogonek" xMin="-33" yMin="-206" xMax="577" yMax="692">
      <component glyphName="A" x="0" y="0" flags="0x204"/>
      <component glyphName="ogonek" x="234" y="0" flags="0x4"/>
    </TTGlyph>
    <TTGlyph name="Aogonek.flat" xMin="-33" yMin="-206" xMax="581" yMax="692">
      <component glyphName="A.flat" x="0" y="0" flags="0x204"/>
      <component glyphName="ogonek" x="225" y="0" flags="0x4"/>
    </TTGlyph>
    <TTGlyph name="Aring" xMin="-33" yMin="-9" xMax="577" yMax="857">
      <contour>
        <pt x="377" y="-9" on="1"/>
        <pt x="366" y="116" on="1"/>
        <pt x="204" y="116" on="1"/>
        <pt x="160" y="0" on="1"/>
        <pt x="-33" y="0" on="1"/>
        <pt x="256" y="674" on="1"/>
        <pt x="246" y="687" on="0"/>
        <pt x="234" y="722" on="0"/>
        <pt x="234" y="742" on="1"/>
        <pt x="234" y="793" on="0"/>
        <pt x="310" y="857" on="0"/>
        <pt x="378" y="857" on="1"/>
        <pt x="446" y="857" on="0"/>
        <pt x="522" y="793" on="0"/>
        <pt x="522" y="742" on="1"/>
        <pt x="522" y="718" on="0"/>
        <pt x="506" y="678" on="0"/>
        <pt x="490" y="663" on="1"/>
        <pt x="577" y="23" on="1"/>
      </contour>
      <contour>
        <pt x="378" y="689" on="1"/>
        <pt x="402" y="689" on="0"/>
        <pt x="425" y="718" on="0"/>
        <pt x="425" y="742" on="1"/>
        <pt x="425" y="766" on="0"/>
        <pt x="402" y="795" on="0"/>
        <pt x="378" y="795" on="1"/>
        <pt x="355" y="795" on="0"/>
        <pt x="331" y="766" on="0"/>
        <pt x="331" y="742" on="1"/>
        <pt x="331" y="718" on="0"/>
        <pt x="355" y="689" on="0"/>
      </contour>
      <contour>
        <pt x="338" y="483" on="1"/>
        <pt x="258" y="268" on="1"/>
        <pt x="357" y="268" on="1"/>
      </contour>
    </TTGlyph>
    <TTGlyph name="Aring.flat" xMin="-33" yMin="0" xMax="581" yMax="857">
      <contour>
        <pt x="378" y="689" on="1"/>
        <pt x="402" y="689" on="0"/>
        <pt x="425" y="718" on="0"/>
        <pt x="425" y="742" on="1"/>
        <pt x="425" y="766" on="0"/>
        <pt x="402" y="795" on="0"/>
        <pt x="378" y="795" on="1"/>
        <pt x="355" y="795" on="0"/>
        <pt x="331" y="766" on="0"/>
        <pt x="331" y="742" on="1"/>
        <pt x="331" y="718" on="0"/>
        <pt x="355" y="689" on="0"/>
      </contour>
      <contour>
        <pt x="338" y="483" on="1"/>
        <pt x="258" y="268" on="1"/>
        <pt x="357" y="268" on="1"/>
      </contour>
      <contour>
        <pt x="376" y="0" on="1"/>
        <pt x="366" y="116" on="1"/>
        <pt x="204" y="116" on="1"/>
        <pt x="160" y="0" on="1"/>
        <pt x="-33" y="0" on="1"/>
        <pt x="256" y="674" on="1"/>
        <pt x="246" y="687" on="0"/>
        <pt x="234" y="722" on="0"/>
        <pt x="234" y="742" on="1"/>
        <pt x="234" y="793" on="0"/>
        <pt x="310" y="857" on="0"/>
        <pt x="378" y="857" on="1"/>
        <pt x="446" y="857" on="0"/>
        <pt x="522" y="793" on="0"/>
        <pt x="522" y="742" on="1"/>
        <pt x="522" y="718" on="0"/>
        <pt x="506" y="678" on="0"/>
        <pt x="491" y="663" on="1"/>
        <pt x="581" y="0" on="1"/>
      </contour>
    </TTGlyph>
    <TTGlyph name="Aringacute" xMin="-33" yMin="-9" xMax="600" yMax="1023">
      <component glyphName="acute" x="215" y="331" flags="0x4"/>
      <component glyphName="Aring" x="0" y="0" flags="0x204"/>
    </TTGlyph>
    <TTGlyph name="Aringacute.flat" xMin="-33" yMin="0" xMax="610" yMax="1023">
      <component glyphName="acute" x="225" y="331" flags="0x4"/>
      <component glyphName="Aring.flat" x="0" y="0" flags="0x4"/>
    </TTGlyph>
    <TTGlyph name="Atilde" xMin="-33" yMin="-9" xMax="577" yMax="905">
      <component glyphName="A" x="0" y="0" flags="0x204"/>
      <component glyphName="tilde" x="147" y="198" flags="0x4"/>
    </TTGlyph>
    <TTGlyph name="Atilde.flat" xMin="-33" yMin="0" xMax="581" yMax="905">
      <component glyphName="A.flat" x="0" y="0" flags="0x204"/>
      <component glyphName="tilde" x="147" y="198" flags="0x4"/>
    </TTGlyph>
    <TTGlyph name="B" xMin="7" yMin="0" xMax="559" yMax="690">
      <contour>
        <pt x="559" y="527" on="1"/>
        <pt x="559" y="461" on="0"/>
        <pt x="484" y="383" on="0"/>
        <pt x="439" y="364" on="1"/>
        <pt x="479" y="344" on="0"/>
        <pt x="533" y="269" on="0"/>
        <pt x="533" y="216" on="1"/>
        <pt x="533" y="115" on="0"/>
        <pt x="384" y="0" on="0"/>
        <pt x="254" y="0" on="1"/>
        <pt x="7" y="0" on="1"/>
        <pt x="110" y="690" on="1"/>
        <pt x="326" y="690" on="1"/>
        <pt x="442" y="690" on="0"/>
        <pt x="559" y="600" on="0"/>
      </contour>
      <contour>
        <pt x="370" y="497" on="1"/>
        <pt x="370" y="528" on="0"/>
        <pt x="332" y="557" on="0"/>
        <pt x="301" y="557" on="1"/>
        <pt x="280" y="557" on="1"/>
        <pt x="260" y="415" on="1"/>
        <pt x="288" y="415" on="1"/>
        <pt x="323" y="415" on="0"/>
        <pt x="370" y="460" on="0"/>
      </contour>
      <contour>
        <pt x="340" y="220" on="1"/>
        <pt x="340" y="258" on="0"/>
        <pt x="297" y="291" on="0"/>
        <pt x="260" y="291" on="1"/>
        <pt x="241" y="291" on="1"/>
        <pt x="241" y="291" on="0"/>
        <pt x="233" y="241" on="0"/>
        <pt x="224" y="183" on="0"/>
        <pt x="217" y="133" on="0"/>
        <pt x="217" y="133" on="1"/>
        <pt x="247" y="133" on="1"/>
        <pt x="286" y="133" on="0"/>
        <pt x="340" y="180" on="0"/>
      </contour>
    </TTGlyph>
    <TTGlyph name="C" xMin="32" yMin="-11" xMax="547" yMax="701">
      <contour>
        <pt x="547" y="659" on="1"/>
        <pt x="501" y="492" on="1"/>
        <pt x="475" y="510" on="0"/>
        <pt x="422" y="530" on="0"/>
        <pt x="394" y="530" on="1"/>
        <pt x="357" y="530" on="0"/>
        <pt x="299" y="492" on="0"/>
        <pt x="258" y="427" on="0"/>
        <pt x="236" y="341" on="0"/>
        <pt x="236" y="294" on="1"/>
        <pt x="236" y="227" on="0"/>
        <pt x="291" y="158" on="0"/>
        <pt x="342" y="158" on="1"/>
        <pt x="370" y="158" on="0"/>
        <pt x="428" y="176" on="0"/>
        <pt x="460" y="192" on="1"/>
        <pt x="461" y="24" on="1"/>
        <pt x="428" y="8" on="0"/>
        <pt x="345" y="-11" on="0"/>
        <pt x="298" y="-11" on="1"/>
        <pt x="176" y="-11" on="0"/>
        <pt x="32" y="137" on="0"/>
        <pt x="32" y="276" on="1"/>
        <pt x="32" y="367" on="0"/>
        <pt x="82" y="523" on="0"/>
        <pt x="172" y="637" on="0"/>
        <pt x="300" y="701" on="0"/>
        <pt x="377" y="701" on="1"/>
        <pt x="426" y="701" on="0"/>
        <pt x="510" y="678" on="0"/>
      </contour>
    </TTGlyph>
    <TTGlyph name="Cacute" xMin="32" yMin="-11" xMax="591" yMax="890">
      <component glyphName="C" x="0" y="0" flags="0x204"/>
      <component glyphName="acute" x="206" y="198" flags="0x4"/>
    </TTGlyph>
    <TTGlyph name="Ccaron" xMin="32" yMin="-11" xMax="576" yMax="889">
      <component glyphName="C" x="0" y="0" flags="0x204"/>
      <component glyphName="caron" x="153" y="198" flags="0x4"/>
    </TTGlyph>
    <TTGlyph name="Ccedilla" xMin="32" yMin="-183" xMax="547" yMax="701">
      <component glyphName="C" x="0" y="0" flags="0x204"/>
      <component glyphName="cedilla" x="76" y="-8" flags="0x4"/>
    </TTGlyph>
    <TTGlyph name="Cdotaccent" xMin="32" yMin="-11" xMax="547" yMax="881">
      <component glyphName="C" x="0" y="0" flags="0x204"/>
      <component glyphName="dotaccent" x="154" y="198" flags="0x4"/>
    </TTGlyph>
    <TTGlyph name="D" xMin="7" yMin="0" xMax="607" yMax="690">
      <contour>
        <pt x="607" y="408" on="1"/>
        <pt x="607" y="316" on="0"/>
        <pt x="554" y="160" on="0"/>
        <pt x="498" y="105" on="1"/>
        <pt x="446" y="53" on="0"/>
        <pt x="295" y="0" on="0"/>
        <pt x="191" y="0" on="1"/>
        <pt x="7" y="0" on="1"/>
        <pt x="110" y="690" on="1"/>
        <pt x="291" y="690" on="1"/>
        <pt x="443" y="690" on="0"/>
        <pt x="607" y="549" on="0"/>
      </contour>
      <contour>
        <pt x="405" y="410" on="1"/>
        <pt x="405" y="482" on="0"/>
        <pt x="348" y="540" on="0"/>
        <pt x="296" y="540" on="1"/>
        <pt x="286" y="540" on="1"/>
        <pt x="228" y="152" on="1"/>
        <pt x="234" y="152" on="1"/>
        <pt x="267" y="152" on="0"/>
        <pt x="321" y="177" on="0"/>
        <pt x="339" y="195" on="1"/>
        <pt x="356" y="212" on="0"/>
        <pt x="381" y="263" on="0"/>
        <pt x="397" y="321" on="0"/>
        <pt x="405" y="383" on="0"/>
      </contour>
    </TTGlyph>
    <TTGlyph name="Dcaron" xMin="7" yMin="0" xMax="607" yMax="881">
      <component glyphName="D" x="0" y="0" flags="0x204"/>
      <component glyphName="caron" x="116" y="190" flags="0x4"/>
    </TTGlyph>
    <TTGlyph name="Dcroat" xMin="26" yMin="0" xMax="637" yMax="690">
      <component glyphName="Eth" x="0" y="0" flags="0x204"/>
    </TTGlyph>
    <TTGlyph name="Dcroat.flat" xMin="10" yMin="0" xMax="637" yMax="690">
      <component glyphName="Eth.flat" x="0" y="0" flags="0x204"/>
    </TTGlyph>
    <TTGlyph name="E" xMin="7" yMin="0" xMax="518" yMax="690">
      <contour>
        <pt x="518" y="690" on="1"/>
        <pt x="495" y="531" on="1"/>
        <pt x="282" y="531" on="1"/>
        <pt x="268" y="435" on="1"/>
        <pt x="421" y="435" on="1"/>
        <pt x="421" y="274" on="1"/>
        <pt x="243" y="274" on="1"/>
        <pt x="226" y="159" on="1"/>
        <pt x="447" y="159" on="1"/>
        <pt x="423" y="0" on="1"/>
        <pt x="7" y="0" on="1"/>
        <pt x="110" y="690" on="1"/>
      </contour>
    </TTGlyph>
    <TTGlyph name="E.flat" xMin="7" yMin="0" xMax="518" yMax="690">
      <contour>
        <pt x="518" y="690" on="1"/>
        <pt x="495" y="531" on="1"/>
        <pt x="282" y="531" on="1"/>
        <pt x="268" y="435" on="1"/>
        <pt x="433" y="435" on="1"/>
        <pt x="409" y="274" on="1"/>
        <pt x="243" y="274" on="1"/>
        <pt x="226" y="159" on="1"/>
        <pt x="447" y="159" on="1"/>
        <pt x="423" y="0" on="1"/>
        <pt x="7" y="0" on="1"/>
        <pt x="110" y="690" on="1"/>
      </contour>
    </TTGlyph>
    <TTGlyph name="Eacute" xMin="7" yMin="0" xMax="524" yMax="882">
      <component glyphName="E" x="0" y="0" flags="0x204"/>
      <component glyphName="acute" x="139" y="190" flags="0x4"/>
    </TTGlyph>
    <TTGlyph name="Eacute.flat" xMin="7" yMin="0" xMax="524" yMax="882">
      <component glyphName="E.flat" x="0" y="0" flags="0x204"/>
      <component glyphName="acute" x="139" y="190" flags="0x4"/>
    </TTGlyph>
    <TTGlyph name="Ebreve" xMin="7" yMin="0" xMax="518" yMax="886">
      <component glyphName="E" x="0" y="0" flags="0x204"/>
      <component glyphName="breve" x="89" y="190" flags="0x4"/>
    </TTGlyph>
    <TTGlyph name="Ebreve.flat" xMin="7" yMin="0" xMax="518" yMax="886">
      <component glyphName="E.flat" x="0" y="0" flags="0x204"/>
      <component glyphName="breve" x="89" y="190" flags="0x4"/>
    </TTGlyph>
    <TTGlyph name="Ecaron" xMin="7" yMin="0" xMax="518" yMax="881">
      <component glyphName="E" x="0" y="0" flags="0x204"/>
      <component glyphName="caron" x="86" y="190" flags="0x4"/>
    </TTGlyph>
    <TTGlyph name="Ecaron.flat" xMin="7" yMin="0" xMax="518" yMax="881">
      <component glyphName="E.flat" x="0" y="0" flags="0x204"/>
      <component glyphName="caron" x="86" y="190" flags="0x4"/>
    </TTGlyph>
    <TTGlyph name="Ecircumflex" xMin="7" yMin="0" xMax="518" yMax="881">
      <component glyphName="E" x="0" y="0" flags="0x204"/>
      <component glyphName="circumflex" x="83" y="190" flags="0x4"/>
    </TTGlyph>
    <TTGlyph name="Ecircumflex.flat" xMin="7" yMin="0" xMax="518" yMax="881">
      <component glyphName="E.flat" x="0" y="0" flags="0x204"/>
      <component glyphName="circumflex" x="83" y="190" flags="0x4"/>
    </TTGlyph>
    <TTGlyph name="Edieresis" xMin="7" yMin="0" xMax="518" yMax="873">
      <component glyphName="E" x="0" y="0" flags="0x204"/>
      <component glyphName="dieresis" x="85" y="190" flags="0x4"/>
    </TTGlyph>
    <TTGlyph name="Edieresis.flat" xMin="7" yMin="0" xMax="518" yMax="873">
      <component glyphName="E.flat" x="0" y="0" flags="0x204"/>
      <component glyphName="dieresis" x="85" y="190" flags="0x4"/>
    </TTGlyph>
    <TTGlyph name="Edotaccent" xMin="7" yMin="0" xMax="518" yMax="873">
      <component glyphName="E" x="0" y="0" flags="0x204"/>
      <component glyphName="dotaccent" x="86" y="190" flags="0x4"/>
    </TTGlyph>
    <TTGlyph name="Edotaccent.flat" xMin="7" yMin="0" xMax="518" yMax="873">
      <component glyphName="E.flat" x="0" y="0" flags="0x204"/>
      <component glyphName="dotaccent" x="86" y="190" flags="0x4"/>
    </TTGlyph>
    <TTGlyph name="Egrave" xMin="7" yMin="0" xMax="518" yMax="882">
      <component glyphName="E" x="0" y="0" flags="0x204"/>
      <component glyphName="grave" x="21" y="190" flags="0x4"/>
    </TTGlyph>
    <TTGlyph name="Egrave.flat" xMin="7" yMin="0" xMax="518" yMax="882">
      <component glyphName="E.flat" x="0" y="0" flags="0x204"/>
      <component glyphName="grave" x="21" y="190" flags="0x4"/>
    </TTGlyph>
    <TTGlyph name="Emacron" xMin="7" yMin="0" xMax="518" yMax="853">
      <component glyphName="E" x="0" y="0" flags="0x204"/>
      <component glyphName="macron" x="85" y="190" flags="0x4"/>
    </TTGlyph>
    <TTGlyph name="Emacron.flat" xMin="7" yMin="0" xMax="518" yMax="853">
      <component glyphName="E.flat" x="0" y="0" flags="0x204"/>
      <component glyphName="macron" x="85" y="190" flags="0x4"/>
    </TTGlyph>
    <TTGlyph name="Eogonek" xMin="7" yMin="-206" xMax="518" yMax="690">
      <component glyphName="ogonek" x="126" y="0" flags="0x4"/>
      <component glyphName="E" x="0" y="0" flags="0x204"/>
    </TTGlyph>
    <TTGlyph name="Eogonek.flat" xMin="7" yMin="-206" xMax="518" yMax="690">
      <component glyphName="ogonek" x="126" y="0" flags="0x4"/>
      <component glyphName="E.flat" x="0" y="0" flags="0x204"/>
    </TTGlyph>
    <TTGlyph name="Eth" xMin="26" yMin="0" xMax="637" yMax="690">
      <contour>
        <pt x="256" y="152" on="1"/>
        <pt x="263" y="152" on="1"/>
        <pt x="297" y="152" on="0"/>
        <pt x="350" y="177" on="0"/>
        <pt x="368" y="195" on="1"/>
        <pt x="385" y="212" on="0"/>
        <pt x="410" y="263" on="0"/>
        <pt x="427" y="321" on="0"/>
        <pt x="435" y="383" on="0"/>
        <pt x="435" y="410" on="1"/>
        <pt x="435" y="482" on="0"/>
        <pt x="377" y="540" on="0"/>
        <pt x="325" y="540" on="1"/>
        <pt x="315" y="540" on="1"/>
        <pt x="298" y="430" on="1"/>
        <pt x="365" y="430" on="1"/>
        <pt x="341" y="271" on="1"/>
        <pt x="274" y="271" on="1"/>
      </contour>
      <contour>
        <pt x="220" y="0" on="1"/>
        <pt x="36" y="0" on="1"/>
        <pt x="76" y="267" on="1"/>
        <pt x="26" y="267" on="1"/>
        <pt x="26" y="434" on="1"/>
        <pt x="101" y="434" on="1"/>
        <pt x="139" y="690" on="1"/>
        <pt x="321" y="690" on="1"/>
        <pt x="473" y="690" on="0"/>
        <pt x="637" y="549" on="0"/>
        <pt x="637" y="408" on="1"/>
        <pt x="637" y="316" on="0"/>
        <pt x="583" y="160" on="0"/>
        <pt x="528" y="105" on="1"/>
        <pt x="476" y="53" on="0"/>
        <pt x="324" y="0" on="0"/>
      </contour>
    </TTGlyph>
    <TTGlyph name="Eth.flat" xMin="10" yMin="0" xMax="637" yMax="690">
      <contour>
        <pt x="256" y="152" on="1"/>
        <pt x="263" y="152" on="1"/>
        <pt x="297" y="152" on="0"/>
        <pt x="350" y="177" on="0"/>
        <pt x="368" y="195" on="1"/>
        <pt x="385" y="212" on="0"/>
        <pt x="410" y="263" on="0"/>
        <pt x="427" y="321" on="0"/>
        <pt x="435" y="383" on="0"/>
        <pt x="435" y="410" on="1"/>
        <pt x="435" y="482" on="0"/>
        <pt x="377" y="540" on="0"/>
        <pt x="325" y="540" on="1"/>
        <pt x="315" y="540" on="1"/>
        <pt x="298" y="430" on="1"/>
        <pt x="365" y="430" on="1"/>
        <pt x="341" y="271" on="1"/>
        <pt x="274" y="271" on="1"/>
      </contour>
      <contour>
        <pt x="220" y="0" on="1"/>
        <pt x="36" y="0" on="1"/>
        <pt x="76" y="267" on="1"/>
        <pt x="10" y="267" on="1"/>
        <pt x="36" y="434" on="1"/>
        <pt x="101" y="434" on="1"/>
        <pt x="139" y="690" on="1"/>
        <pt x="321" y="690" on="1"/>
        <pt x="473" y="690" on="0"/>
        <pt x="637" y="549" on="0"/>
        <pt x="637" y="408" on="1"/>
        <pt x="637" y="316" on="0"/>
        <pt x="583" y="160" on="0"/>
        <pt x="528" y="105" on="1"/>
        <pt x="476" y="53" on="0"/>
        <pt x="324" y="0" on="0"/>
      </contour>
    </TTGlyph>
    <TTGlyph name="Euro" xMin="17" yMin="-12" xMax="601" yMax="696">
      <contour>
        <pt x="515" y="20" on="1"/>
        <pt x="487" y="7" on="0"/>
        <pt x="409" y="-12" on="0"/>
        <pt x="366" y="-12" on="1"/>
        <pt x="238" y="-12" on="0"/>
        <pt x="104" y="116" on="0"/>
        <pt x="93" y="233" on="1"/>
        <pt x="17" y="233" on="1"/>
        <pt x="17" y="312" on="1"/>
        <pt x="90" y="312" on="1"/>
        <pt x="91" y="330" on="0"/>
        <pt x="95" y="365" on="0"/>
        <pt x="97" y="381" on="1"/>
        <pt x="32" y="381" on="1"/>
        <pt x="44" y="461" on="1"/>
        <pt x="117" y="461" on="1"/>
        <pt x="134" y="512" on="0"/>
        <pt x="191" y="598" on="0"/>
        <pt x="268" y="661" on="0"/>
        <pt x="367" y="696" on="0"/>
        <pt x="427" y="696" on="1"/>
        <pt x="482" y="696" on="0"/>
        <pt x="566" y="672" on="0"/>
        <pt x="601" y="651" on="1"/>
        <pt x="554" y="503" on="1"/>
        <pt x="522" y="522" on="0"/>
        <pt x="466" y="544" on="0"/>
        <pt x="435" y="544" on="1"/>
        <pt x="391" y="544" on="0"/>
        <pt x="327" y="501" on="0"/>
        <pt x="308" y="461" on="1"/>
        <pt x="481" y="461" on="1"/>
        <pt x="481" y="381" on="1"/>
        <pt x="284" y="381" on="1"/>
        <pt x="281" y="365" on="0"/>
        <pt x="278" y="331" on="0"/>
        <pt x="277" y="312" on="1"/>
        <pt x="465" y="312" on="1"/>
        <pt x="453" y="233" on="1"/>
        <pt x="282" y="233" on="1"/>
        <pt x="291" y="187" on="0"/>
        <pt x="346" y="139" on="0"/>
        <pt x="398" y="139" on="1"/>
        <pt x="429" y="139" on="0"/>
        <pt x="487" y="156" on="0"/>
        <pt x="515" y="167" on="1"/>
      </contour>
    </TTGlyph>
    <TTGlyph name="Euro.flat" xMin="11" yMin="-12" xMax="601" yMax="696">
      <contour>
        <pt x="515" y="20" on="1"/>
        <pt x="487" y="7" on="0"/>
        <pt x="409" y="-12" on="0"/>
        <pt x="366" y="-12" on="1"/>
        <pt x="238" y="-12" on="0"/>
        <pt x="104" y="116" on="0"/>
        <pt x="93" y="233" on="1"/>
        <pt x="11" y="233" on="1"/>
        <pt x="23" y="312" on="1"/>
        <pt x="90" y="312" on="1"/>
        <pt x="91" y="330" on="0"/>
        <pt x="95" y="365" on="0"/>
        <pt x="97" y="381" on="1"/>
        <pt x="32" y="381" on="1"/>
        <pt x="44" y="461" on="1"/>
        <pt x="117" y="461" on="1"/>
        <pt x="134" y="512" on="0"/>
        <pt x="191" y="598" on="0"/>
        <pt x="268" y="661" on="0"/>
        <pt x="367" y="696" on="0"/>
        <pt x="427" y="696" on="1"/>
        <pt x="482" y="696" on="0"/>
        <pt x="566" y="672" on="0"/>
        <pt x="601" y="651" on="1"/>
        <pt x="554" y="503" on="1"/>
        <pt x="522" y="522" on="0"/>
        <pt x="466" y="544" on="0"/>
        <pt x="435" y="544" on="1"/>
        <pt x="391" y="544" on="0"/>
        <pt x="327" y="501" on="0"/>
        <pt x="308" y="461" on="1"/>
        <pt x="486" y="461" on="1"/>
        <pt x="475" y="381" on="1"/>
        <pt x="284" y="381" on="1"/>
        <pt x="281" y="365" on="0"/>
        <pt x="278" y="331" on="0"/>
        <pt x="277" y="312" on="1"/>
        <pt x="465" y="312" on="1"/>
        <pt x="453" y="233" on="1"/>
        <pt x="282" y="233" on="1"/>
        <pt x="291" y="187" on="0"/>
        <pt x="346" y="139" on="0"/>
        <pt x="398" y="139" on="1"/>
        <pt x="429" y="139" on="0"/>
        <pt x="487" y="156" on="0"/>
        <pt x="515" y="167" on="1"/>
      </contour>
    </TTGlyph>
    <TTGlyph name="Euro.tab" xMin="23" yMin="-9" xMax="526" yMax="696">
      <contour>
        <pt x="441" y="22" on="1"/>
        <pt x="415" y="9" on="0"/>
        <pt x="347" y="-9" on="0"/>
        <pt x="310" y="-9" on="1"/>
        <pt x="206" y="-9" on="0"/>
        <pt x="85" y="107" on="0"/>
        <pt x="80" y="234" on="1"/>
        <pt x="23" y="234" on="1"/>
        <pt x="23" y="314" on="1"/>
        <pt x="82" y="314" on="1"/>
        <pt x="83" y="331" on="0"/>
        <pt x="88" y="365" on="0"/>
        <pt x="90" y="381" on="1"/>
        <pt x="40" y="381" on="1"/>
        <pt x="53" y="460" on="1"/>
        <pt x="109" y="460" on="1"/>
        <pt x="125" y="511" on="0"/>
        <pt x="175" y="598" on="0"/>
        <pt x="241" y="661" on="0"/>
        <pt x="325" y="696" on="0"/>
        <pt x="374" y="696" on="1"/>
        <pt x="420" y="696" on="0"/>
        <pt x="494" y="674" on="0"/>
        <pt x="526" y="656" on="1"/>
        <pt x="478" y="520" on="1"/>
        <pt x="453" y="537" on="0"/>
        <pt x="405" y="556" on="0"/>
        <pt x="381" y="556" on="1"/>
        <pt x="344" y="556" on="0"/>
        <pt x="290" y="504" on="0"/>
        <pt x="272" y="460" on="1"/>
        <pt x="424" y="460" on="1"/>
        <pt x="424" y="381" on="1"/>
        <pt x="251" y="381" on="1"/>
        <pt x="248" y="365" on="0"/>
        <pt x="244" y="332" on="0"/>
        <pt x="243" y="314" on="1"/>
        <pt x="406" y="314" on="1"/>
        <pt x="393" y="234" on="1"/>
        <pt x="242" y="234" on="1"/>
        <pt x="246" y="172" on="0"/>
        <pt x="301" y="130" on="0"/>
        <pt x="341" y="130" on="1"/>
        <pt x="367" y="130" on="0"/>
        <pt x="417" y="146" on="0"/>
        <pt x="441" y="157" on="1"/>
      </contour>
    </TTGlyph>
    <TTGlyph name="Euro.tab_flat" xMin="17" yMin="-9" xMax="526" yMax="696">
      <contour>
        <pt x="441" y="22" on="1"/>
        <pt x="415" y="9" on="0"/>
        <pt x="347" y="-9" on="0"/>
        <pt x="310" y="-9" on="1"/>
        <pt x="206" y="-9" on="0"/>
        <pt x="85" y="107" on="0"/>
        <pt x="80" y="234" on="1"/>
        <pt x="17" y="234" on="1"/>
        <pt x="28" y="314" on="1"/>
        <pt x="82" y="314" on="1"/>
        <pt x="83" y="331" on="0"/>
        <pt x="88" y="365" on="0"/>
        <pt x="90" y="381" on="1"/>
        <pt x="40" y="381" on="1"/>
        <pt x="53" y="460" on="1"/>
        <pt x="109" y="460" on="1"/>
        <pt x="125" y="511" on="0"/>
        <pt x="175" y="598" on="0"/>
        <pt x="241" y="661" on="0"/>
        <pt x="325" y="696" on="0"/>
        <pt x="374" y="696" on="1"/>
        <pt x="420" y="696" on="0"/>
        <pt x="494" y="674" on="0"/>
        <pt x="526" y="656" on="1"/>
        <pt x="478" y="520" on="1"/>
        <pt x="453" y="537" on="0"/>
        <pt x="405" y="556" on="0"/>
        <pt x="381" y="556" on="1"/>
        <pt x="344" y="556" on="0"/>
        <pt x="290" y="504" on="0"/>
        <pt x="272" y="460" on="1"/>
        <pt x="429" y="460" on="1"/>
        <pt x="418" y="381" on="1"/>
        <pt x="251" y="381" on="1"/>
        <pt x="248" y="365" on="0"/>
        <pt x="244" y="332" on="0"/>
        <pt x="243" y="314" on="1"/>
        <pt x="406" y="314" on="1"/>
        <pt x="393" y="234" on="1"/>
        <pt x="242" y="234" on="1"/>
        <pt x="246" y="172" on="0"/>
        <pt x="301" y="130" on="0"/>
        <pt x="341" y="130" on="1"/>
        <pt x="367" y="130" on="0"/>
        <pt x="417" y="146" on="0"/>
        <pt x="441" y="157" on="1"/>
      </contour>
    </TTGlyph>
    <TTGlyph name="F" xMin="7" yMin="0" xMax="507" yMax="690">
      <contour>
        <pt x="507" y="690" on="1"/>
        <pt x="483" y="523" on="1"/>
        <pt x="283" y="523" on="1"/>
        <pt x="266" y="412" on="1"/>
        <pt x="406" y="412" on="1"/>
        <pt x="406" y="244" on="1"/>
        <pt x="241" y="244" on="1"/>
        <pt x="205" y="0" on="1"/>
        <pt x="7" y="0" on="1"/>
        <pt x="110" y="690" on="1"/>
      </contour>
    </TTGlyph>
    <TTGlyph name="F.flat" xMin="7" yMin="0" xMax="507" yMax="690">
      <contour>
        <pt x="507" y="690" on="1"/>
        <pt x="483" y="523" on="1"/>
        <pt x="283" y="523" on="1"/>
        <pt x="266" y="412" on="1"/>
        <pt x="419" y="412" on="1"/>
        <pt x="394" y="244" on="1"/>
        <pt x="241" y="244" on="1"/>
        <pt x="205" y="0" on="1"/>
        <pt x="7" y="0" on="1"/>
        <pt x="110" y="690" on="1"/>
      </contour>
    </TTGlyph>
    <TTGlyph name="G" xMin="33" yMin="-13" xMax="593" yMax="702">
      <contour>
        <pt x="579" y="404" on="1"/>
        <pt x="525" y="46" on="1"/>
        <pt x="486" y="23" on="0"/>
        <pt x="369" y="-13" on="0"/>
        <pt x="304" y="-13" on="1"/>
        <pt x="174" y="-13" on="0"/>
        <pt x="33" y="140" on="0"/>
        <pt x="33" y="274" on="1"/>
        <pt x="33" y="362" on="0"/>
        <pt x="83" y="519" on="0"/>
        <pt x="175" y="635" on="0"/>
        <pt x="309" y="702" on="0"/>
        <pt x="391" y="702" on="1"/>
        <pt x="450" y="702" on="0"/>
        <pt x="549" y="676" on="0"/>
        <pt x="593" y="654" on="1"/>
        <pt x="540" y="489" on="1"/>
        <pt x="504" y="514" on="0"/>
        <pt x="432" y="535" on="0"/>
        <pt x="399" y="535" on="1"/>
        <pt x="359" y="535" on="0"/>
        <pt x="297" y="494" on="0"/>
        <pt x="256" y="424" on="0"/>
        <pt x="235" y="329" on="0"/>
        <pt x="235" y="275" on="1"/>
        <pt x="235" y="204" on="0"/>
        <pt x="285" y="144" on="0"/>
        <pt x="325" y="144" on="1"/>
        <pt x="339" y="144" on="0"/>
        <pt x="359" y="150" on="0"/>
        <pt x="369" y="154" on="1"/>
        <pt x="383" y="262" on="1"/>
        <pt x="316" y="262" on="1"/>
        <pt x="316" y="404" on="1"/>
      </contour>
    </TTGlyph>
    <TTGlyph name="G.flat" xMin="33" yMin="-13" xMax="593" yMax="702">
      <contour>
        <pt x="579" y="404" on="1"/>
        <pt x="525" y="46" on="1"/>
        <pt x="486" y="23" on="0"/>
        <pt x="369" y="-13" on="0"/>
        <pt x="304" y="-13" on="1"/>
        <pt x="174" y="-13" on="0"/>
        <pt x="33" y="140" on="0"/>
        <pt x="33" y="274" on="1"/>
        <pt x="33" y="362" on="0"/>
        <pt x="83" y="519" on="0"/>
        <pt x="175" y="635" on="0"/>
        <pt x="309" y="702" on="0"/>
        <pt x="391" y="702" on="1"/>
        <pt x="450" y="702" on="0"/>
        <pt x="549" y="676" on="0"/>
        <pt x="593" y="654" on="1"/>
        <pt x="540" y="489" on="1"/>
        <pt x="504" y="514" on="0"/>
        <pt x="432" y="535" on="0"/>
        <pt x="399" y="535" on="1"/>
        <pt x="359" y="535" on="0"/>
        <pt x="297" y="494" on="0"/>
        <pt x="256" y="424" on="0"/>
        <pt x="235" y="329" on="0"/>
        <pt x="235" y="275" on="1"/>
        <pt x="235" y="204" on="0"/>
        <pt x="285" y="144" on="0"/>
        <pt x="325" y="144" on="1"/>
        <pt x="339" y="144" on="0"/>
        <pt x="359" y="150" on="0"/>
        <pt x="369" y="154" on="1"/>
        <pt x="383" y="262" on="1"/>
        <pt x="305" y="262" on="1"/>
        <pt x="326" y="404" on="1"/>
      </contour>
    </TTGlyph>
    <TTGlyph name="Gbreve" xMin="33" yMin="-13" xMax="593" yMax="894">
      <component glyphName="G" x="0" y="0" flags="0x204"/>
      <component glyphName="breve" x="167" y="198" flags="0x4"/>
    </TTGlyph>
    <TTGlyph name="Gbreve.flat" xMin="33" yMin="-13" xMax="593" yMax="894">
      <component glyphName="G.flat" x="0" y="0" flags="0x204"/>
      <component glyphName="breve" x="167" y="198" flags="0x4"/>
    </TTGlyph>
    <TTGlyph name="Gcommaaccent" xMin="33" yMin="-254" xMax="593" yMax="702">
      <component glyphName="G" x="0" y="0" flags="0x204"/>
      <component glyphName="commaaccent" x="99" y="-8" flags="0x4"/>
    </TTGlyph>
    <TTGlyph name="Gcommaaccent.flat" xMin="33" yMin="-254" xMax="593" yMax="702">
      <component glyphName="G.flat" x="0" y="0" flags="0x204"/>
      <component glyphName="commaaccent" x="99" y="-8" flags="0x4"/>
    </TTGlyph>
    <TTGlyph name="Gdotaccent" xMin="33" yMin="-13" xMax="593" yMax="881">
      <component glyphName="G" x="0" y="0" flags="0x204"/>
      <component glyphName="dotaccent" x="165" y="198" flags="0x4"/>
    </TTGlyph>
    <TTGlyph name="Gdotaccent.flat" xMin="33" yMin="-13" xMax="593" yMax="881">
      <component glyphName="G.flat" x="0" y="0" flags="0x204"/>
      <component glyphName="dotaccent" x="165" y="198" flags="0x4"/>
    </TTGlyph>
    <TTGlyph name="H" xMin="6" yMin="0" xMax="645" yMax="690">
      <contour>
        <pt x="645" y="690" on="1"/>
        <pt x="542" y="0" on="1"/>
        <pt x="343" y="0" on="1"/>
        <pt x="383" y="263" on="1"/>
        <pt x="245" y="263" on="1"/>
        <pt x="206" y="0" on="1"/>
        <pt x="6" y="0" on="1"/>
        <pt x="109" y="690" on="1"/>
        <pt x="309" y="690" on="1"/>
        <pt x="271" y="441" on="1"/>
        <pt x="409" y="441" on="1"/>
        <pt x="446" y="690" on="1"/>
      </contour>
    </TTGlyph>
    <TTGlyph name="Hbar" xMin="36" yMin="0" xMax="727" yMax="690">
      <contour>
        <pt x="298" y="428" on="1"/>
        <pt x="434" y="428" on="1"/>
        <pt x="447" y="514" on="1"/>
        <pt x="311" y="514" on="1"/>
      </contour>
      <contour>
        <pt x="275" y="262" on="1"/>
        <pt x="236" y="0" on="1"/>
        <pt x="36" y="0" on="1"/>
        <pt x="111" y="502" on="1"/>
        <pt x="51" y="502" on="1"/>
        <pt x="53" y="627" on="1"/>
        <pt x="130" y="627" on="1"/>
        <pt x="139" y="690" on="1"/>
        <pt x="337" y="690" on="1"/>
        <pt x="328" y="627" on="1"/>
        <pt x="464" y="627" on="1"/>
        <pt x="473" y="690" on="1"/>
        <pt x="671" y="690" on="1"/>
        <pt x="662" y="627" on="1"/>
        <pt x="727" y="627" on="1"/>
        <pt x="709" y="502" on="1"/>
        <pt x="643" y="502" on="1"/>
        <pt x="568" y="0" on="1"/>
        <pt x="368" y="0" on="1"/>
        <pt x="408" y="262" on="1"/>
      </contour>
    </TTGlyph>
    <TTGlyph name="Hbar.flat" xMin="36" yMin="0" xMax="727" yMax="690">
      <contour>
        <pt x="298" y="428" on="1"/>
        <pt x="434" y="428" on="1"/>
        <pt x="447" y="514" on="1"/>
        <pt x="311" y="514" on="1"/>
      </contour>
      <contour>
        <pt x="275" y="262" on="1"/>
        <pt x="236" y="0" on="1"/>
        <pt x="36" y="0" on="1"/>
        <pt x="111" y="502" on="1"/>
        <pt x="44" y="502" on="1"/>
        <pt x="64" y="627" on="1"/>
        <pt x="130" y="627" on="1"/>
        <pt x="139" y="690" on="1"/>
        <pt x="337" y="690" on="1"/>
        <pt x="328" y="627" on="1"/>
        <pt x="464" y="627" on="1"/>
        <pt x="473" y="690" on="1"/>
        <pt x="671" y="690" on="1"/>
        <pt x="662" y="627" on="1"/>
        <pt x="727" y="627" on="1"/>
        <pt x="709" y="502" on="1"/>
        <pt x="643" y="502" on="1"/>
        <pt x="568" y="0" on="1"/>
        <pt x="368" y="0" on="1"/>
        <pt x="408" y="262" on="1"/>
      </contour>
    </TTGlyph>
    <TTGlyph name="I" xMin="8" yMin="0" xMax="311" yMax="690">
      <contour>
        <pt x="311" y="690" on="1"/>
        <pt x="208" y="0" on="1"/>
        <pt x="8" y="0" on="1"/>
        <pt x="111" y="690" on="1"/>
      </contour>
    </TTGlyph>
    <TTGlyph name="Iacute" xMin="8" yMin="0" xMax="422" yMax="882">
      <component glyphName="I" x="0" y="0" flags="0x204"/>
      <component glyphName="acute" x="37" y="190" flags="0x4"/>
    </TTGlyph>
    <TTGlyph name="Ibreve" xMin="8" yMin="0" xMax="392" yMax="886">
      <component glyphName="I" x="0" y="0" flags="0x204"/>
      <component glyphName="breve" x="-14" y="190" flags="0x4"/>
    </TTGlyph>
    <TTGlyph name="Icircumflex" xMin="8" yMin="0" xMax="384" yMax="881">
      <component glyphName="I" x="0" y="0" flags="0x204"/>
      <component glyphName="circumflex" x="-20" y="190" flags="0x4"/>
    </TTGlyph>
    <TTGlyph name="Idieresis" xMin="8" yMin="0" xMax="396" yMax="873">
      <component glyphName="I" x="0" y="0" flags="0x204"/>
      <component glyphName="dieresis" x="-18" y="190" flags="0x4"/>
    </TTGlyph>
    <TTGlyph name="Idotaccent" xMin="8" yMin="0" xMax="311" yMax="873">
      <component glyphName="I" x="0" y="0" flags="0x204"/>
      <component glyphName="dotaccent" x="-17" y="190" flags="0x4"/>
    </TTGlyph>
    <TTGlyph name="Igrave" xMin="8" yMin="0" xMax="311" yMax="882">
      <component glyphName="I" x="0" y="0" flags="0x204"/>
      <component glyphName="grave" x="-82" y="190" flags="0x4"/>
    </TTGlyph>
    <TTGlyph name="Imacron" xMin="8" yMin="0" xMax="386" yMax="853">
      <component glyphName="I" x="0" y="0" flags="0x204"/>
      <component glyphName="macron" x="-18" y="190" flags="0x4"/>
    </TTGlyph>
    <TTGlyph name="Iogonek" xMin="-11" yMin="-206" xMax="312" yMax="690">
      <component glyphName="ogonek" x="-89" y="0" flags="0x4"/>
      <component glyphName="I" x="1" y="0" flags="0x4"/>
    </TTGlyph>
    <TTGlyph name="J" xMin="-1" yMin="-6" xMax="426" yMax="690">
      <contour>
        <pt x="426" y="690" on="1"/>
        <pt x="357" y="226" on="1"/>
        <pt x="338" y="99" on="0"/>
        <pt x="214" y="-6" on="0"/>
        <pt x="98" y="-6" on="1"/>
        <pt x="70" y="-6" on="0"/>
        <pt x="20" y="-1" on="0"/>
        <pt x="-1" y="3" on="1"/>
        <pt x="-1" y="173" on="1"/>
        <pt x="15" y="169" on="0"/>
        <pt x="49" y="163" on="0"/>
        <pt x="71" y="163" on="1"/>
        <pt x="106" y="163" on="0"/>
        <pt x="155" y="204" on="0"/>
        <pt x="163" y="259" on="1"/>
        <pt x="227" y="690" on="1"/>
      </contour>
    </TTGlyph>
    <TTGlyph name="K" xMin="7" yMin="-9" xMax="649" yMax="690">
      <contour>
        <pt x="649" y="690" on="1"/>
        <pt x="442" y="353" on="1"/>
        <pt x="556" y="24" on="1"/>
        <pt x="349" y="-9" on="1"/>
        <pt x="252" y="309" on="1"/>
        <pt x="206" y="0" on="1"/>
        <pt x="7" y="0" on="1"/>
        <pt x="110" y="690" on="1"/>
        <pt x="310" y="690" on="1"/>
        <pt x="265" y="400" on="1"/>
        <pt x="432" y="690" on="1"/>
      </contour>
    </TTGlyph>
    <TTGlyph name="K.flat" xMin="7" yMin="0" xMax="649" yMax="690">
      <contour>
        <pt x="649" y="690" on="1"/>
        <pt x="442" y="353" on="1"/>
        <pt x="565" y="0" on="1"/>
        <pt x="347" y="0" on="1"/>
        <pt x="252" y="309" on="1"/>
        <pt x="206" y="0" on="1"/>
        <pt x="7" y="0" on="1"/>
        <pt x="110" y="690" on="1"/>
        <pt x="310" y="690" on="1"/>
        <pt x="265" y="400" on="1"/>
        <pt x="432" y="690" on="1"/>
      </contour>
    </TTGlyph>
    <TTGlyph name="Kcommaaccent" xMin="7" yMin="-241" xMax="649" yMax="690">
      <component glyphName="K" x="0" y="0" flags="0x204"/>
      <component glyphName="commaaccent" x="83" y="5" flags="0x4"/>
    </TTGlyph>
    <TTGlyph name="Kcommaaccent.flat" xMin="7" yMin="-241" xMax="649" yMax="690">
      <component glyphName="K.flat" x="0" y="0" flags="0x204"/>
      <component glyphName="commaaccent" x="83" y="5" flags="0x4"/>
    </TTGlyph>
    <TTGlyph name="L" xMin="7" yMin="0" xMax="408" yMax="690">
      <contour>
        <pt x="408" y="0" on="1"/>
        <pt x="7" y="0" on="1"/>
        <pt x="110" y="690" on="1"/>
        <pt x="309" y="690" on="1"/>
        <pt x="232" y="174" on="1"/>
        <pt x="408" y="174" on="1"/>
      </contour>
    </TTGlyph>
    <TTGlyph name="L.flat" xMin="7" yMin="0" xMax="420" yMax="690">
      <contour>
        <pt x="395" y="0" on="1"/>
        <pt x="7" y="0" on="1"/>
        <pt x="110" y="690" on="1"/>
        <pt x="309" y="690" on="1"/>
        <pt x="232" y="174" on="1"/>
        <pt x="420" y="174" on="1"/>
      </contour>
    </TTGlyph>
    <TTGlyph name="Lacute" xMin="7" yMin="0" xMax="428" yMax="882">
      <component glyphName="L" x="0" y="0" flags="0x204"/>
      <component glyphName="acute" x="43" y="190" flags="0x4"/>
    </TTGlyph>
    <TTGlyph name="Lacute.flat" xMin="7" yMin="0" xMax="428" yMax="882">
      <component glyphName="L.flat" x="0" y="0" flags="0x204"/>
      <component glyphName="acute" x="43" y="190" flags="0x4"/>
    </TTGlyph>
    <TTGlyph name="Lcaron" xMin="7" yMin="0" xMax="476" yMax="696">
      <component glyphName="L" x="0" y="0" flags="0x204"/>
      <component glyphName="caron.alt" x="148" y="-6" flags="0x4"/>
    </TTGlyph>
    <TTGlyph name="Lcaron.flat" xMin="7" yMin="0" xMax="474" yMax="696">
      <component glyphName="L.flat" x="0" y="0" flags="0x204"/>
      <component glyphName="caron.alt" x="146" y="-6" flags="0x4"/>
    </TTGlyph>
    <TTGlyph name="Lcommaaccent" xMin="7" yMin="-246" xMax="408" yMax="690">
      <component glyphName="L" x="0" y="0" flags="0x204"/>
      <component glyphName="commaaccent" x="2" y="0" flags="0x4"/>
    </TTGlyph>
    <TTGlyph name="Lcommaaccent.flat" xMin="7" yMin="-246" xMax="420" yMax="690">
      <component glyphName="L.flat" x="0" y="0" flags="0x204"/>
      <component glyphName="commaaccent" x="-9" y="0" flags="0x4"/>
    </TTGlyph>
    <TTGlyph name="Ldot" xMin="9" yMin="0" xMax="469" yMax="690">
      <contour>
        <pt x="410" y="0" on="1"/>
        <pt x="9" y="0" on="1"/>
        <pt x="112" y="690" on="1"/>
        <pt x="311" y="690" on="1"/>
        <pt x="234" y="174" on="1"/>
        <pt x="410" y="174" on="1"/>
      </contour>
      <contour>
        <pt x="448" y="304" on="1"/>
        <pt x="315" y="304" on="1"/>
        <pt x="337" y="449" on="1"/>
        <pt x="469" y="449" on="1"/>
      </contour>
    </TTGlyph>
    <TTGlyph name="Ldot.flat" xMin="9" yMin="0" xMax="471" yMax="690">
      <contour>
        <pt x="397" y="0" on="1"/>
        <pt x="9" y="0" on="1"/>
        <pt x="112" y="690" on="1"/>
        <pt x="311" y="690" on="1"/>
        <pt x="234" y="174" on="1"/>
        <pt x="422" y="174" on="1"/>
      </contour>
      <contour>
        <pt x="449" y="304" on="1"/>
        <pt x="317" y="304" on="1"/>
        <pt x="338" y="449" on="1"/>
        <pt x="471" y="449" on="1"/>
      </contour>
    </TTGlyph>
    <TTGlyph name="Lslash" xMin="21" yMin="0" xMax="437" yMax="690">
      <contour>
        <pt x="437" y="0" on="1"/>
        <pt x="36" y="0" on="1"/>
        <pt x="70" y="229" on="1"/>
        <pt x="21" y="208" on="1"/>
        <pt x="21" y="366" on="1"/>
        <pt x="95" y="396" on="1"/>
        <pt x="139" y="690" on="1"/>
        <pt x="338" y="690" on="1"/>
        <pt x="307" y="481" on="1"/>
        <pt x="413" y="526" on="1"/>
        <pt x="386" y="357" on="1"/>
        <pt x="282" y="315" on="1"/>
        <pt x="261" y="174" on="1"/>
        <pt x="437" y="174" on="1"/>
      </contour>
    </TTGlyph>
    <TTGlyph name="Lslash.flat" xMin="1" yMin="0" xMax="444" yMax="690">
      <contour>
        <pt x="430" y="0" on="1"/>
        <pt x="36" y="0" on="1"/>
        <pt x="70" y="229" on="1"/>
        <pt x="1" y="200" on="1"/>
        <pt x="28" y="370" on="1"/>
        <pt x="95" y="396" on="1"/>
        <pt x="139" y="690" on="1"/>
        <pt x="338" y="690" on="1"/>
        <pt x="307" y="481" on="1"/>
        <pt x="413" y="526" on="1"/>
        <pt x="386" y="357" on="1"/>
        <pt x="282" y="315" on="1"/>
        <pt x="261" y="174" on="1"/>
        <pt x="444" y="174" on="1"/>
      </contour>
    </TTGlyph>
    <TTGlyph name="M" xMin="-6" yMin="-2" xMax="806" yMax="690">
      <contour>
        <pt x="806" y="690" on="1"/>
        <pt x="744" y="0" on="1"/>
        <pt x="547" y="0" on="1"/>
        <pt x="592" y="441" on="1"/>
        <pt x="453" y="-2" on="1"/>
        <pt x="260" y="-2" on="1"/>
        <pt x="253" y="441" on="1"/>
        <pt x="166" y="0" on="1"/>
        <pt x="-6" y="0" on="1"/>
        <pt x="135" y="690" on="1"/>
        <pt x="398" y="690" on="1"/>
        <pt x="411" y="266" on="1"/>
        <pt x="547" y="690" on="1"/>
      </contour>
    </TTGlyph>
    <TTGlyph name="M.alt" xMin="6" yMin="-4" xMax="833" yMax="690">
      <contour>
        <pt x="730" y="0" on="1"/>
        <pt x="540" y="0" on="1"/>
        <pt x="604" y="434" on="1"/>
        <pt x="450" y="-4" on="1"/>
        <pt x="268" y="-4" on="1"/>
        <pt x="241" y="434" on="1"/>
        <pt x="177" y="0" on="1"/>
        <pt x="6" y="0" on="1"/>
        <pt x="109" y="690" on="1"/>
        <pt x="378" y="690" on="1"/>
        <pt x="407" y="264" on="1"/>
        <pt x="563" y="690" on="1"/>
        <pt x="833" y="690" on="1"/>
      </contour>
    </TTGlyph>
    <TTGlyph name="N" xMin="7" yMin="0" xMax="638" yMax="690">
      <contour>
        <pt x="638" y="690" on="1"/>
        <pt x="536" y="0" on="1"/>
        <pt x="368" y="0" on="1"/>
        <pt x="241" y="346" on="1"/>
        <pt x="189" y="0" on="1"/>
        <pt x="7" y="0" on="1"/>
        <pt x="109" y="690" on="1"/>
        <pt x="294" y="690" on="1"/>
        <pt x="408" y="371" on="1"/>
        <pt x="456" y="690" on="1"/>
      </contour>
    </TTGlyph>
    <TTGlyph name="Nacute" xMin="7" yMin="0" xMax="638" yMax="882">
      <component glyphName="N" x="0" y="0" flags="0x204"/>
      <component glyphName="acute" x="197" y="190" flags="0x4"/>
    </TTGlyph>
    <TTGlyph name="Ncaron" xMin="7" yMin="0" xMax="638" yMax="881">
      <component glyphName="N" x="0" y="0" flags="0x204"/>
      <component glyphName="caron" x="143" y="190" flags="0x4"/>
    </TTGlyph>
    <TTGlyph name="Ncommaaccent" xMin="7" yMin="-241" xMax="638" yMax="690">
      <component glyphName="N" x="0" y="0" flags="0x204"/>
      <component glyphName="commaaccent" x="82" y="5" flags="0x4"/>
    </TTGlyph>
    <TTGlyph name="Ntilde" xMin="7" yMin="0" xMax="638" yMax="897">
      <component glyphName="N" x="0" y="0" flags="0x204"/>
      <component glyphName="tilde" x="144" y="190" flags="0x4"/>
    </TTGlyph>
    <TTGlyph name="O" xMin="35" yMin="-13" xMax="623" yMax="703">
      <contour>
        <pt x="297" y="-13" on="1"/>
        <pt x="169" y="-13" on="0"/>
        <pt x="35" y="142" on="0"/>
        <pt x="35" y="275" on="1"/>
        <pt x="35" y="381" on="0"/>
        <pt x="99" y="565" on="0"/>
        <pt x="154" y="621" on="1"/>
        <pt x="197" y="663" on="0"/>
        <pt x="301" y="703" on="0"/>
        <pt x="361" y="703" on="1"/>
        <pt x="489" y="703" on="0"/>
        <pt x="623" y="548" on="0"/>
        <pt x="623" y="416" on="1"/>
        <pt x="623" y="310" on="0"/>
        <pt x="560" y="125" on="0"/>
        <pt x="504" y="70" on="1"/>
        <pt x="462" y="27" on="0"/>
        <pt x="357" y="-13" on="0"/>
      </contour>
      <contour>
        <pt x="301" y="140" on="1"/>
        <pt x="315" y="140" on="0"/>
        <pt x="337" y="151" on="0"/>
        <pt x="347" y="161" on="1"/>
        <pt x="362" y="176" on="0"/>
        <pt x="389" y="238" on="0"/>
        <pt x="409" y="315" on="0"/>
        <pt x="420" y="401" on="0"/>
        <pt x="420" y="440" on="1"/>
        <pt x="420" y="503" on="0"/>
        <pt x="385" y="551" on="0"/>
        <pt x="358" y="551" on="1"/>
        <pt x="343" y="551" on="0"/>
        <pt x="321" y="539" on="0"/>
        <pt x="311" y="529" on="1"/>
        <pt x="296" y="514" on="0"/>
        <pt x="270" y="453" on="0"/>
        <pt x="250" y="376" on="0"/>
        <pt x="239" y="290" on="0"/>
        <pt x="239" y="251" on="1"/>
        <pt x="239" y="188" on="0"/>
        <pt x="273" y="140" on="0"/>
      </contour>
    </TTGlyph>
    <TTGlyph name="OE" xMin="32" yMin="0" xMax="834" yMax="690">
      <contour>
        <pt x="348" y="0" on="1"/>
        <pt x="196" y="0" on="0"/>
        <pt x="32" y="142" on="0"/>
        <pt x="32" y="283" on="1"/>
        <pt x="32" y="374" on="0"/>
        <pt x="86" y="530" on="0"/>
        <pt x="141" y="586" on="1"/>
        <pt x="193" y="638" on="0"/>
        <pt x="345" y="690" on="0"/>
        <pt x="449" y="690" on="1"/>
        <pt x="834" y="690" on="1"/>
        <pt x="811" y="531" on="1"/>
        <pt x="606" y="531" on="1"/>
        <pt x="592" y="434" on="1"/>
        <pt x="737" y="434" on="1"/>
        <pt x="737" y="273" on="1"/>
        <pt x="567" y="273" on="1"/>
        <pt x="550" y="159" on="1"/>
        <pt x="763" y="159" on="1"/>
        <pt x="739" y="0" on="1"/>
      </contour>
      <contour>
        <pt x="344" y="151" on="1"/>
        <pt x="353" y="151" on="1"/>
        <pt x="412" y="539" on="1"/>
        <pt x="406" y="539" on="1"/>
        <pt x="372" y="539" on="0"/>
        <pt x="319" y="513" on="0"/>
        <pt x="301" y="495" on="1"/>
        <pt x="284" y="478" on="0"/>
        <pt x="259" y="427" on="0"/>
        <pt x="242" y="369" on="0"/>
        <pt x="234" y="307" on="0"/>
        <pt x="234" y="280" on="1"/>
        <pt x="234" y="209" on="0"/>
        <pt x="292" y="151" on="0"/>
      </contour>
    </TTGlyph>
    <TTGlyph name="OE.flat" xMin="32" yMin="0" xMax="834" yMax="690">
      <contour>
        <pt x="348" y="0" on="1"/>
        <pt x="196" y="0" on="0"/>
        <pt x="32" y="142" on="0"/>
        <pt x="32" y="283" on="1"/>
        <pt x="32" y="374" on="0"/>
        <pt x="86" y="530" on="0"/>
        <pt x="141" y="586" on="1"/>
        <pt x="193" y="638" on="0"/>
        <pt x="345" y="690" on="0"/>
        <pt x="449" y="690" on="1"/>
        <pt x="834" y="690" on="1"/>
        <pt x="811" y="531" on="1"/>
        <pt x="606" y="531" on="1"/>
        <pt x="592" y="434" on="1"/>
        <pt x="749" y="434" on="1"/>
        <pt x="725" y="273" on="1"/>
        <pt x="567" y="273" on="1"/>
        <pt x="550" y="159" on="1"/>
        <pt x="763" y="159" on="1"/>
        <pt x="739" y="0" on="1"/>
      </contour>
      <contour>
        <pt x="344" y="151" on="1"/>
        <pt x="353" y="151" on="1"/>
        <pt x="412" y="539" on="1"/>
        <pt x="406" y="539" on="1"/>
        <pt x="372" y="539" on="0"/>
        <pt x="319" y="513" on="0"/>
        <pt x="301" y="495" on="1"/>
        <pt x="284" y="478" on="0"/>
        <pt x="259" y="427" on="0"/>
        <pt x="242" y="369" on="0"/>
        <pt x="234" y="307" on="0"/>
        <pt x="234" y="280" on="1"/>
        <pt x="234" y="209" on="0"/>
        <pt x="292" y="151" on="0"/>
      </contour>
    </TTGlyph>
    <TTGlyph name="Oacute" xMin="35" yMin="-13" xMax="623" yMax="890">
      <component glyphName="O" x="0" y="0" flags="0x4"/>
      <component glyphName="acute" x="206" y="198" flags="0x4"/>
    </TTGlyph>
    <TTGlyph name="Obreve" xMin="35" yMin="-13" xMax="623" yMax="894">
      <component glyphName="O" x="0" y="0" flags="0x4"/>
      <component glyphName="breve" x="155" y="198" flags="0x4"/>
    </TTGlyph>
    <TTGlyph name="Ocircumflex" xMin="35" yMin="-13" xMax="623" yMax="889">
      <component glyphName="O" x="0" y="0" flags="0x4"/>
      <component glyphName="circumflex" x="149" y="198" flags="0x4"/>
    </TTGlyph>
    <TTGlyph name="Odieresis" xMin="35" yMin="-13" xMax="623" yMax="881">
      <component glyphName="O" x="0" y="0" flags="0x4"/>
      <component glyphName="dieresis" x="151" y="198" flags="0x4"/>
    </TTGlyph>
    <TTGlyph name="Ograve" xMin="35" yMin="-13" xMax="623" yMax="890">
      <component glyphName="O" x="0" y="0" flags="0x4"/>
      <component glyphName="grave" x="88" y="198" flags="0x4"/>
    </TTGlyph>
    <TTGlyph name="Ohungarumlaut" xMin="35" yMin="-13" xMax="647" yMax="890">
      <component glyphName="O" x="0" y="0" flags="0x4"/>
      <component glyphName="hungarumlaut" x="193" y="198" flags="0x4"/>
    </TTGlyph>
    <TTGlyph name="Omacron" xMin="35" yMin="-13" xMax="623" yMax="861">
      <component glyphName="O" x="0" y="0" flags="0x4"/>
      <component glyphName="macron" x="151" y="198" flags="0x4"/>
    </TTGlyph>
    <TTGlyph name="Oslash" xMin="-36" yMin="-13" xMax="695" yMax="703">
      <contour>
        <pt x="298" y="-13" on="1"/>
        <pt x="246" y="-13" on="0"/>
        <pt x="160" y="16" on="0"/>
        <pt x="129" y="42" on="1"/>
        <pt x="82" y="-9" on="1"/>
        <pt x="-36" y="18" on="1"/>
        <pt x="64" y="129" on="1"/>
        <pt x="50" y="160" on="0"/>
        <pt x="36" y="235" on="0"/>
        <pt x="36" y="275" on="1"/>
        <pt x="36" y="381" on="0"/>
        <pt x="99" y="565" on="0"/>
        <pt x="155" y="621" on="1"/>
        <pt x="197" y="663" on="0"/>
        <pt x="302" y="703" on="0"/>
        <pt x="362" y="703" on="1"/>
        <pt x="414" y="703" on="0"/>
        <pt x="499" y="674" on="0"/>
        <pt x="531" y="648" on="1"/>
        <pt x="577" y="699" on="1"/>
        <pt x="695" y="673" on="1"/>
        <pt x="596" y="562" on="1"/>
        <pt x="609" y="531" on="0"/>
        <pt x="624" y="456" on="0"/>
        <pt x="624" y="416" on="1"/>
        <pt x="624" y="310" on="0"/>
        <pt x="560" y="125" on="0"/>
        <pt x="505" y="70" on="1"/>
        <pt x="462" y="27" on="0"/>
        <pt x="358" y="-13" on="0"/>
      </contour>
      <contour>
        <pt x="310" y="531" on="1"/>
        <pt x="295" y="516" on="0"/>
        <pt x="270" y="462" on="0"/>
        <pt x="251" y="395" on="0"/>
        <pt x="238" y="320" on="0"/>
        <pt x="236" y="283" on="1"/>
        <pt x="417" y="506" on="1"/>
        <pt x="409" y="532" on="0"/>
        <pt x="378" y="553" on="0"/>
        <pt x="358" y="553" on="1"/>
        <pt x="343" y="553" on="0"/>
        <pt x="320" y="541" on="0"/>
      </contour>
      <contour>
        <pt x="301" y="138" on="1"/>
        <pt x="316" y="138" on="0"/>
        <pt x="339" y="150" on="0"/>
        <pt x="349" y="160" on="1"/>
        <pt x="364" y="175" on="0"/>
        <pt x="389" y="228" on="0"/>
        <pt x="409" y="294" on="0"/>
        <pt x="422" y="370" on="0"/>
        <pt x="424" y="407" on="1"/>
        <pt x="243" y="183" on="1"/>
        <pt x="251" y="158" on="0"/>
        <pt x="281" y="138" on="0"/>
      </contour>
    </TTGlyph>
    <TTGlyph name="Oslashacute" xMin="-36" yMin="-13" xMax="695" yMax="890">
      <component glyphName="Oslash" x="0" y="0" flags="0x204"/>
      <component glyphName="acute" x="199" y="198" flags="0x4"/>
    </TTGlyph>
    <TTGlyph name="Otilde" xMin="35" yMin="-13" xMax="623" yMax="905">
      <component glyphName="O" x="0" y="0" flags="0x4"/>
      <component glyphName="tilde" x="152" y="198" flags="0x4"/>
    </TTGlyph>
    <TTGlyph name="P" xMin="6" yMin="0" xMax="566" yMax="690">
      <contour>
        <pt x="566" y="480" on="1"/>
        <pt x="566" y="360" on="0"/>
        <pt x="404" y="213" on="0"/>
        <pt x="254" y="212" on="1"/>
        <pt x="236" y="212" on="1"/>
        <pt x="204" y="0" on="1"/>
        <pt x="6" y="0" on="1"/>
        <pt x="109" y="690" on="1"/>
        <pt x="312" y="690" on="1"/>
        <pt x="439" y="690" on="0"/>
        <pt x="566" y="583" on="0"/>
      </contour>
      <contour>
        <pt x="373" y="471" on="1"/>
        <pt x="374" y="512" on="0"/>
        <pt x="333" y="547" on="0"/>
        <pt x="299" y="547" on="1"/>
        <pt x="284" y="547" on="1"/>
        <pt x="256" y="357" on="1"/>
        <pt x="271" y="357" on="1"/>
        <pt x="315" y="357" on="0"/>
        <pt x="372" y="418" on="0"/>
      </contour>
    </TTGlyph>
    <TTGlyph name="Q" xMin="36" yMin="-126" xMax="624" yMax="703">
      <contour>
        <pt x="549" y="-126" on="1"/>
        <pt x="257" y="-19" on="1"/>
        <pt x="202" y="2" on="0"/>
        <pt x="119" y="51" on="0"/>
        <pt x="64" y="119" on="0"/>
        <pt x="36" y="211" on="0"/>
        <pt x="36" y="274" on="1"/>
        <pt x="36" y="387" on="0"/>
        <pt x="100" y="565" on="0"/>
        <pt x="155" y="620" on="1"/>
        <pt x="198" y="663" on="0"/>
        <pt x="303" y="703" on="0"/>
        <pt x="363" y="703" on="1"/>
        <pt x="491" y="703" on="0"/>
        <pt x="624" y="549" on="0"/>
        <pt x="624" y="421" on="1"/>
        <pt x="624" y="298" on="0"/>
        <pt x="552" y="143" on="0"/>
        <pt x="507" y="98" on="1"/>
        <pt x="500" y="91" on="0"/>
        <pt x="486" y="79" on="0"/>
        <pt x="479" y="74" on="1"/>
        <pt x="607" y="40" on="1"/>
      </contour>
      <contour>
        <pt x="302" y="140" on="1"/>
        <pt x="316" y="140" on="0"/>
        <pt x="338" y="151" on="0"/>
        <pt x="348" y="161" on="1"/>
        <pt x="363" y="176" on="0"/>
        <pt x="390" y="238" on="0"/>
        <pt x="410" y="315" on="0"/>
        <pt x="421" y="401" on="0"/>
        <pt x="421" y="440" on="1"/>
        <pt x="421" y="503" on="0"/>
        <pt x="386" y="551" on="0"/>
        <pt x="359" y="551" on="1"/>
        <pt x="344" y="551" on="0"/>
        <pt x="322" y="539" on="0"/>
        <pt x="312" y="529" on="1"/>
        <pt x="297" y="514" on="0"/>
        <pt x="271" y="453" on="0"/>
        <pt x="251" y="376" on="0"/>
        <pt x="240" y="290" on="0"/>
        <pt x="240" y="251" on="1"/>
        <pt x="240" y="188" on="0"/>
        <pt x="274" y="140" on="0"/>
      </contour>
    </TTGlyph>
    <TTGlyph name="Q.alt" xMin="36" yMin="-13" xMax="624" yMax="703">
      <contour>
        <pt x="571" y="-13" on="1"/>
        <pt x="490" y="63" on="1"/>
        <pt x="447" y="24" on="0"/>
        <pt x="353" y="-13" on="0"/>
        <pt x="298" y="-13" on="1"/>
        <pt x="170" y="-13" on="0"/>
        <pt x="36" y="142" on="0"/>
        <pt x="36" y="275" on="1"/>
        <pt x="36" y="381" on="0"/>
        <pt x="99" y="565" on="0"/>
        <pt x="155" y="621" on="1"/>
        <pt x="197" y="663" on="0"/>
        <pt x="302" y="703" on="0"/>
        <pt x="362" y="703" on="1"/>
        <pt x="490" y="703" on="0"/>
        <pt x="624" y="548" on="0"/>
        <pt x="624" y="416" on="1"/>
        <pt x="624" y="356" on="0"/>
        <pt x="601" y="242" on="0"/>
        <pt x="579" y="193" on="1"/>
        <pt x="618" y="161" on="1"/>
      </contour>
      <contour>
        <pt x="302" y="138" on="1"/>
        <pt x="317" y="138" on="0"/>
        <pt x="339" y="150" on="0"/>
        <pt x="349" y="160" on="1"/>
        <pt x="353" y="164" on="0"/>
        <pt x="361" y="174" on="0"/>
        <pt x="365" y="179" on="1"/>
        <pt x="275" y="260" on="1"/>
        <pt x="411" y="310" on="1"/>
        <pt x="416" y="340" on="0"/>
        <pt x="422" y="405" on="0"/>
        <pt x="422" y="439" on="1"/>
        <pt x="422" y="502" on="0"/>
        <pt x="387" y="551" on="0"/>
        <pt x="359" y="551" on="1"/>
        <pt x="345" y="551" on="0"/>
        <pt x="322" y="539" on="0"/>
        <pt x="312" y="529" on="1"/>
        <pt x="297" y="514" on="0"/>
        <pt x="270" y="452" on="0"/>
        <pt x="250" y="375" on="0"/>
        <pt x="239" y="289" on="0"/>
        <pt x="239" y="250" on="1"/>
        <pt x="239" y="186" on="0"/>
        <pt x="274" y="138" on="0"/>
      </contour>
    </TTGlyph>
    <TTGlyph name="Q.alt_flat" xMin="36" yMin="-13" xMax="624" yMax="703">
      <contour>
        <pt x="302" y="138" on="1"/>
        <pt x="317" y="138" on="0"/>
        <pt x="339" y="150" on="0"/>
        <pt x="349" y="160" on="1"/>
        <pt x="350" y="161" on="0"/>
        <pt x="354" y="165" on="0"/>
        <pt x="355" y="167" on="1"/>
        <pt x="310" y="201" on="1"/>
        <pt x="337" y="370" on="1"/>
        <pt x="412" y="316" on="1"/>
        <pt x="416" y="345" on="0"/>
        <pt x="422" y="408" on="0"/>
        <pt x="422" y="439" on="1"/>
        <pt x="422" y="502" on="0"/>
        <pt x="387" y="551" on="0"/>
        <pt x="359" y="551" on="1"/>
        <pt x="345" y="551" on="0"/>
        <pt x="322" y="539" on="0"/>
        <pt x="312" y="529" on="1"/>
        <pt x="297" y="514" on="0"/>
        <pt x="270" y="452" on="0"/>
        <pt x="250" y="375" on="0"/>
        <pt x="239" y="289" on="0"/>
        <pt x="239" y="250" on="1"/>
        <pt x="239" y="186" on="0"/>
        <pt x="274" y="138" on="0"/>
      </contour>
      <contour>
        <pt x="587" y="-12" on="1"/>
        <pt x="490" y="64" on="1"/>
        <pt x="447" y="24" on="0"/>
        <pt x="353" y="-13" on="0"/>
        <pt x="298" y="-13" on="1"/>
        <pt x="170" y="-13" on="0"/>
        <pt x="36" y="142" on="0"/>
        <pt x="36" y="275" on="1"/>
        <pt x="36" y="381" on="0"/>
        <pt x="99" y="565" on="0"/>
        <pt x="155" y="621" on="1"/>
        <pt x="197" y="663" on="0"/>
        <pt x="302" y="703" on="0"/>
        <pt x="362" y="703" on="1"/>
        <pt x="490" y="703" on="0"/>
        <pt x="624" y="548" on="0"/>
        <pt x="624" y="416" on="1"/>
        <pt x="624" y="357" on="0"/>
        <pt x="601" y="245" on="0"/>
        <pt x="581" y="196" on="1"/>
        <pt x="616" y="172" on="1"/>
      </contour>
    </TTGlyph>
    <TTGlyph name="R" xMin="7" yMin="-9" xMax="576" yMax="690">
      <contour>
        <pt x="576" y="491" on="1"/>
        <pt x="576" y="414" on="0"/>
        <pt x="501" y="308" on="0"/>
        <pt x="443" y="277" on="1"/>
        <pt x="540" y="22" on="1"/>
        <pt x="335" y="-9" on="1"/>
        <pt x="257" y="225" on="1"/>
        <pt x="237" y="225" on="1"/>
        <pt x="204" y="0" on="1"/>
        <pt x="7" y="0" on="1"/>
        <pt x="110" y="690" on="1"/>
        <pt x="320" y="690" on="1"/>
        <pt x="438" y="690" on="0"/>
        <pt x="576" y="592" on="0"/>
      </contour>
      <contour>
        <pt x="380" y="474" on="1"/>
        <pt x="380" y="513" on="0"/>
        <pt x="338" y="549" on="0"/>
        <pt x="303" y="549" on="1"/>
        <pt x="283" y="549" on="1"/>
        <pt x="256" y="362" on="1"/>
        <pt x="272" y="362" on="1"/>
        <pt x="321" y="362" on="0"/>
        <pt x="380" y="424" on="0"/>
      </contour>
    </TTGlyph>
    <TTGlyph name="R.flat" xMin="7" yMin="0" xMax="576" yMax="690">
      <contour>
        <pt x="380" y="474" on="1"/>
        <pt x="380" y="513" on="0"/>
        <pt x="338" y="549" on="0"/>
        <pt x="303" y="549" on="1"/>
        <pt x="283" y="549" on="1"/>
        <pt x="256" y="362" on="1"/>
        <pt x="272" y="362" on="1"/>
        <pt x="321" y="362" on="0"/>
        <pt x="380" y="424" on="0"/>
      </contour>
      <contour>
        <pt x="576" y="491" on="1"/>
        <pt x="576" y="414" on="0"/>
        <pt x="501" y="308" on="0"/>
        <pt x="443" y="277" on="1"/>
        <pt x="547" y="0" on="1"/>
        <pt x="332" y="0" on="1"/>
        <pt x="257" y="225" on="1"/>
        <pt x="237" y="225" on="1"/>
        <pt x="204" y="0" on="1"/>
        <pt x="7" y="0" on="1"/>
        <pt x="110" y="690" on="1"/>
        <pt x="320" y="690" on="1"/>
        <pt x="438" y="690" on="0"/>
        <pt x="576" y="592" on="0"/>
      </contour>
    </TTGlyph>
    <TTGlyph name="R_p" xMin="16" yMin="-178" xMax="1017" yMax="683">
      <contour>
        <pt x="334" y="-9" on="1"/>
        <pt x="255" y="224" on="1"/>
        <pt x="233" y="224" on="1"/>
        <pt x="199" y="0" on="1"/>
        <pt x="16" y="0" on="1"/>
        <pt x="118" y="683" on="1"/>
        <pt x="305" y="683" on="1"/>
        <pt x="424" y="683" on="0"/>
        <pt x="562" y="589" on="0"/>
        <pt x="562" y="488" on="1"/>
        <pt x="562" y="411" on="0"/>
        <pt x="488" y="306" on="0"/>
        <pt x="429" y="275" on="1"/>
        <pt x="526" y="22" on="1"/>
      </contour>
      <contour>
        <pt x="380" y="470" on="1"/>
        <pt x="380" y="510" on="0"/>
        <pt x="337" y="544" on="0"/>
        <pt x="302" y="544" on="1"/>
        <pt x="278" y="544" on="1"/>
        <pt x="250" y="359" on="1"/>
        <pt x="271" y="359" on="1"/>
        <pt x="320" y="359" on="0"/>
        <pt x="380" y="420" on="0"/>
      </contour>
      <contour>
        <pt x="730" y="132" on="1"/>
        <pt x="735" y="130" on="0"/>
        <pt x="748" y="128" on="0"/>
        <pt x="752" y="128" on="1"/>
        <pt x="790" y="128" on="0"/>
        <pt x="845" y="221" on="0"/>
        <pt x="845" y="292" on="1"/>
        <pt x="845" y="324" on="0"/>
        <pt x="827" y="353" on="0"/>
        <pt x="812" y="353" on="1"/>
        <pt x="800" y="353" on="0"/>
        <pt x="775" y="337" on="0"/>
        <pt x="758" y="318" on="1"/>
      </contour>
      <contour>
        <pt x="515" y="-178" on="1"/>
        <pt x="598" y="373" on="1"/>
        <pt x="598" y="495" on="1"/>
        <pt x="761" y="495" on="1"/>
        <pt x="766" y="419" on="1"/>
        <pt x="798" y="459" on="0"/>
        <pt x="859" y="505" on="0"/>
        <pt x="895" y="505" on="1"/>
        <pt x="952" y="505" on="0"/>
        <pt x="1017" y="411" on="0"/>
        <pt x="1017" y="330" on="1"/>
        <pt x="1017" y="249" on="0"/>
        <pt x="975" y="123" on="0"/>
        <pt x="903" y="39" on="0"/>
        <pt x="805" y="-5" on="0"/>
        <pt x="749" y="-5" on="1"/>
        <pt x="739" y="-5" on="0"/>
        <pt x="720" y="-3" on="0"/>
        <pt x="710" y="-2" on="1"/>
        <pt x="689" y="-151" on="1"/>
      </contour>
    </TTGlyph>
    <TTGlyph name="R_p.flat" xMin="16" yMin="-178" xMax="1017" yMax="683">
      <contour>
        <pt x="380" y="470" on="1"/>
        <pt x="380" y="510" on="0"/>
        <pt x="337" y="544" on="0"/>
        <pt x="302" y="544" on="1"/>
        <pt x="278" y="544" on="1"/>
        <pt x="250" y="359" on="1"/>
        <pt x="271" y="359" on="1"/>
        <pt x="320" y="359" on="0"/>
        <pt x="380" y="420" on="0"/>
      </contour>
      <contour>
        <pt x="730" y="132" on="1"/>
        <pt x="735" y="130" on="0"/>
        <pt x="748" y="128" on="0"/>
        <pt x="752" y="128" on="1"/>
        <pt x="790" y="128" on="0"/>
        <pt x="845" y="221" on="0"/>
        <pt x="845" y="292" on="1"/>
        <pt x="845" y="324" on="0"/>
        <pt x="827" y="353" on="0"/>
        <pt x="812" y="353" on="1"/>
        <pt x="800" y="353" on="0"/>
        <pt x="775" y="337" on="0"/>
        <pt x="758" y="318" on="1"/>
      </contour>
      <contour>
        <pt x="331" y="0" on="1"/>
        <pt x="255" y="224" on="1"/>
        <pt x="233" y="224" on="1"/>
        <pt x="199" y="0" on="1"/>
        <pt x="16" y="0" on="1"/>
        <pt x="118" y="683" on="1"/>
        <pt x="305" y="683" on="1"/>
        <pt x="424" y="683" on="0"/>
        <pt x="562" y="589" on="0"/>
        <pt x="562" y="488" on="1"/>
        <pt x="562" y="411" on="0"/>
        <pt x="488" y="306" on="0"/>
        <pt x="429" y="275" on="1"/>
        <pt x="535" y="0" on="1"/>
      </contour>
      <contour>
        <pt x="515" y="-178" on="1"/>
        <pt x="598" y="373" on="1"/>
        <pt x="598" y="495" on="1"/>
        <pt x="761" y="495" on="1"/>
        <pt x="766" y="419" on="1"/>
        <pt x="798" y="459" on="0"/>
        <pt x="859" y="505" on="0"/>
        <pt x="895" y="505" on="1"/>
        <pt x="952" y="505" on="0"/>
        <pt x="1017" y="411" on="0"/>
        <pt x="1017" y="330" on="1"/>
        <pt x="1017" y="249" on="0"/>
        <pt x="975" y="123" on="0"/>
        <pt x="903" y="39" on="0"/>
        <pt x="805" y="-5" on="0"/>
        <pt x="749" y="-5" on="1"/>
        <pt x="739" y="-5" on="0"/>
        <pt x="720" y="-3" on="0"/>
        <pt x="710" y="-2" on="1"/>
        <pt x="689" y="-151" on="1"/>
      </contour>
    </TTGlyph>
    <TTGlyph name="Racute" xMin="7" yMin="-9" xMax="576" yMax="882">
      <component glyphName="R" x="0" y="0" flags="0x204"/>
      <component glyphName="acute" x="167" y="190" flags="0x4"/>
    </TTGlyph>
    <TTGlyph name="Racute.flat" xMin="7" yMin="0" xMax="576" yMax="882">
      <component glyphName="R.flat" x="0" y="0" flags="0x204"/>
      <component glyphName="acute" x="167" y="190" flags="0x4"/>
    </TTGlyph>
    <TTGlyph name="Rcaron" xMin="7" yMin="-9" xMax="576" yMax="881">
      <component glyphName="R" x="0" y="0" flags="0x204"/>
      <component glyphName="caron" x="114" y="190" flags="0x4"/>
    </TTGlyph>
    <TTGlyph name="Rcaron.flat" xMin="7" yMin="0" xMax="576" yMax="881">
      <component glyphName="R.flat" x="0" y="0" flags="0x204"/>
      <component glyphName="caron" x="114" y="190" flags="0x4"/>
    </TTGlyph>
    <TTGlyph name="Rcommaaccent" xMin="7" yMin="-241" xMax="576" yMax="690">
      <component glyphName="R" x="0" y="0" flags="0x204"/>
      <component glyphName="commaaccent" x="61" y="5" flags="0x4"/>
    </TTGlyph>
    <TTGlyph name="Rcommaaccent.flat" xMin="7" yMin="-241" xMax="576" yMax="690">
      <component glyphName="R.flat" x="0" y="0" flags="0x204"/>
      <component glyphName="commaaccent" x="61" y="5" flags="0x4"/>
    </TTGlyph>
    <TTGlyph name="S" xMin="-11" yMin="-12" xMax="521" yMax="702">
      <contour>
        <pt x="521" y="649" on="1"/>
        <pt x="469" y="494" on="1"/>
        <pt x="429" y="519" on="0"/>
        <pt x="351" y="548" on="0"/>
        <pt x="320" y="548" on="1"/>
        <pt x="292" y="548" on="0"/>
        <pt x="262" y="522" on="0"/>
        <pt x="262" y="501" on="1"/>
        <pt x="262" y="480" on="0"/>
        <pt x="293" y="450" on="0"/>
        <pt x="329" y="425" on="1"/>
        <pt x="410" y="374" on="0"/>
        <pt x="478" y="283" on="0"/>
        <pt x="478" y="223" on="1"/>
        <pt x="478" y="114" on="0"/>
        <pt x="338" y="-12" on="0"/>
        <pt x="223" y="-12" on="1"/>
        <pt x="161" y="-12" on="0"/>
        <pt x="38" y="27" on="0"/>
        <pt x="-11" y="53" on="1"/>
        <pt x="42" y="207" on="1"/>
        <pt x="86" y="180" on="0"/>
        <pt x="178" y="143" on="0"/>
        <pt x="218" y="143" on="1"/>
        <pt x="248" y="143" on="0"/>
        <pt x="283" y="172" on="0"/>
        <pt x="283" y="194" on="1"/>
        <pt x="283" y="215" on="0"/>
        <pt x="251" y="249" on="0"/>
        <pt x="215" y="274" on="1"/>
        <pt x="134" y="323" on="0"/>
        <pt x="67" y="412" on="0"/>
        <pt x="67" y="481" on="1"/>
        <pt x="67" y="529" on="0"/>
        <pt x="102" y="610" on="0"/>
        <pt x="165" y="669" on="0"/>
        <pt x="255" y="702" on="0"/>
        <pt x="309" y="702" on="1"/>
        <pt x="377" y="702" on="0"/>
        <pt x="479" y="670" on="0"/>
      </contour>
    </TTGlyph>
    <TTGlyph name="Sacute" xMin="-11" yMin="-12" xMax="537" yMax="890">
      <component glyphName="S" x="0" y="0" flags="0x204"/>
      <component glyphName="acute" x="152" y="198" flags="0x4"/>
    </TTGlyph>
    <TTGlyph name="Scaron" xMin="-11" yMin="-12" xMax="521" yMax="889">
      <component glyphName="S" x="0" y="0" flags="0x204"/>
      <component glyphName="caron" x="98" y="198" flags="0x4"/>
    </TTGlyph>
    <TTGlyph name="Scedilla" xMin="-11" yMin="-183" xMax="521" yMax="702">
      <component glyphName="cedilla" x="28" y="-8" flags="0x4"/>
      <component glyphName="S" x="0" y="0" flags="0x204"/>
    </TTGlyph>
    <TTGlyph name="Scommaaccent" xMin="-11" yMin="-254" xMax="521" yMax="702">
      <component glyphName="S" x="0" y="0" flags="0x204"/>
      <component glyphName="commaaccent" x="18" y="-8" flags="0x4"/>
    </TTGlyph>
    <TTGlyph name="T" xMin="56" yMin="0" xMax="580" yMax="690">
      <contour>
        <pt x="580" y="522" on="1"/>
        <pt x="414" y="522" on="1"/>
        <pt x="337" y="0" on="1"/>
        <pt x="137" y="0" on="1"/>
        <pt x="215" y="522" on="1"/>
        <pt x="56" y="522" on="1"/>
        <pt x="82" y="690" on="1"/>
        <pt x="580" y="690" on="1"/>
      </contour>
    </TTGlyph>
    <TTGlyph name="T.flat" xMin="56" yMin="0" xMax="597" yMax="690">
      <contour>
        <pt x="571" y="522" on="1"/>
        <pt x="414" y="522" on="1"/>
        <pt x="337" y="0" on="1"/>
        <pt x="137" y="0" on="1"/>
        <pt x="215" y="522" on="1"/>
        <pt x="56" y="522" on="1"/>
        <pt x="82" y="690" on="1"/>
        <pt x="597" y="690" on="1"/>
      </contour>
    </TTGlyph>
    <TTGlyph name="Tcaron" xMin="56" yMin="0" xMax="580" yMax="881">
      <component glyphName="T" x="0" y="0" flags="0x204"/>
      <component glyphName="caron" x="113" y="190" flags="0x4"/>
    </TTGlyph>
    <TTGlyph name="Tcaron.flat" xMin="56" yMin="0" xMax="597" yMax="881">
      <component glyphName="T.flat" x="0" y="0" flags="0x204"/>
      <component glyphName="caron" x="113" y="190" flags="0x4"/>
    </TTGlyph>
    <TTGlyph name="Tcommaaccent" xMin="56" yMin="-246" xMax="580" yMax="690">
      <component glyphName="T" x="0" y="0" flags="0x204"/>
      <component glyphName="commaaccent" x="50" y="0" flags="0x4"/>
    </TTGlyph>
    <TTGlyph name="Tcommaaccent.flat" xMin="56" yMin="-246" xMax="597" yMax="690">
      <component glyphName="T.flat" x="0" y="0" flags="0x204"/>
      <component glyphName="commaaccent" x="50" y="0" flags="0x4"/>
    </TTGlyph>
    <TTGlyph name="Thorn" xMin="6" yMin="0" xMax="552" yMax="690">
      <contour>
        <pt x="552" y="383" on="1"/>
        <pt x="552" y="262" on="0"/>
        <pt x="389" y="115" on="0"/>
        <pt x="239" y="114" on="1"/>
        <pt x="221" y="114" on="1"/>
        <pt x="203" y="0" on="1"/>
        <pt x="6" y="0" on="1"/>
        <pt x="109" y="690" on="1"/>
        <pt x="306" y="690" on="1"/>
        <pt x="292" y="593" on="1"/>
        <pt x="300" y="593" on="1"/>
        <pt x="425" y="593" on="0"/>
        <pt x="552" y="486" on="0"/>
      </contour>
      <contour>
        <pt x="358" y="374" on="1"/>
        <pt x="359" y="414" on="0"/>
        <pt x="318" y="450" on="0"/>
        <pt x="284" y="450" on="1"/>
        <pt x="269" y="450" on="1"/>
        <pt x="241" y="260" on="1"/>
        <pt x="257" y="260" on="1"/>
        <pt x="300" y="260" on="0"/>
        <pt x="357" y="321" on="0"/>
      </contour>
    </TTGlyph>
    <TTGlyph name="U" xMin="38" yMin="-12" xMax="637" yMax="690">
      <contour>
        <pt x="637" y="690" on="1"/>
        <pt x="572" y="256" on="1"/>
        <pt x="551" y="118" on="0"/>
        <pt x="407" y="-12" on="0"/>
        <pt x="282" y="-12" on="1"/>
        <pt x="166" y="-12" on="0"/>
        <pt x="38" y="95" on="0"/>
        <pt x="38" y="201" on="1"/>
        <pt x="38" y="220" on="0"/>
        <pt x="41" y="256" on="0"/>
        <pt x="43" y="273" on="1"/>
        <pt x="105" y="690" on="1"/>
        <pt x="304" y="690" on="1"/>
        <pt x="241" y="259" on="1"/>
        <pt x="239" y="245" on="0"/>
        <pt x="236" y="221" on="0"/>
        <pt x="236" y="208" on="1"/>
        <pt x="236" y="181" on="0"/>
        <pt x="265" y="151" on="0"/>
        <pt x="293" y="151" on="1"/>
        <pt x="327" y="151" on="0"/>
        <pt x="364" y="198" on="0"/>
        <pt x="371" y="243" on="1"/>
        <pt x="437" y="690" on="1"/>
      </contour>
    </TTGlyph>
    <TTGlyph name="U.alt" xMin="32" yMin="-8" xMax="634" yMax="690">
      <contour>
        <pt x="634" y="690" on="1"/>
        <pt x="531" y="0" on="1"/>
        <pt x="360" y="0" on="1"/>
        <pt x="360" y="54" on="1"/>
        <pt x="317" y="25" on="0"/>
        <pt x="232" y="-8" on="0"/>
        <pt x="186" y="-8" on="1"/>
        <pt x="115" y="-8" on="0"/>
        <pt x="32" y="72" on="0"/>
        <pt x="33" y="148" on="1"/>
        <pt x="33" y="165" on="0"/>
        <pt x="37" y="209" on="0"/>
        <pt x="39" y="228" on="1"/>
        <pt x="108" y="690" on="1"/>
        <pt x="307" y="690" on="1"/>
        <pt x="240" y="243" on="1"/>
        <pt x="239" y="233" on="0"/>
        <pt x="237" y="215" on="0"/>
        <pt x="237" y="211" on="1"/>
        <pt x="236" y="192" on="0"/>
        <pt x="255" y="166" on="0"/>
        <pt x="279" y="166" on="1"/>
        <pt x="297" y="166" on="0"/>
        <pt x="338" y="182" on="0"/>
        <pt x="362" y="198" on="1"/>
        <pt x="435" y="690" on="1"/>
      </contour>
    </TTGlyph>
    <TTGlyph name="Uacute" xMin="38" yMin="-12" xMax="637" yMax="882">
      <component glyphName="U" x="0" y="0" flags="0x204"/>
      <component glyphName="acute" x="195" y="190" flags="0x4"/>
    </TTGlyph>
    <TTGlyph name="Uacute.alt" xMin="32" yMin="-8" xMax="634" yMax="882">
      <component glyphName="U.alt" x="0" y="0" flags="0x204"/>
      <component glyphName="acute" x="196" y="190" flags="0x4"/>
    </TTGlyph>
    <TTGlyph name="Ubreve" xMin="38" yMin="-12" xMax="637" yMax="884">
      <component glyphName="U" x="0" y="0" flags="0x204"/>
      <component glyphName="breve" x="145" y="188" flags="0x4"/>
    </TTGlyph>
    <TTGlyph name="Ubreve.alt" xMin="32" yMin="-8" xMax="634" yMax="884">
      <component glyphName="U.alt" x="0" y="0" flags="0x204"/>
      <component glyphName="breve" x="147" y="188" flags="0x4"/>
    </TTGlyph>
    <TTGlyph name="Ucircumflex" xMin="38" yMin="-12" xMax="637" yMax="881">
      <component glyphName="U" x="0" y="0" flags="0x204"/>
      <component glyphName="circumflex" x="138" y="190" flags="0x4"/>
    </TTGlyph>
    <TTGlyph name="Ucircumflex.alt" xMin="32" yMin="-8" xMax="634" yMax="881">
      <component glyphName="U.alt" x="0" y="0" flags="0x204"/>
      <component glyphName="circumflex" x="140" y="190" flags="0x4"/>
    </TTGlyph>
    <TTGlyph name="Udieresis" xMin="38" yMin="-12" xMax="637" yMax="873">
      <component glyphName="U" x="0" y="0" flags="0x204"/>
      <component glyphName="dieresis" x="140" y="190" flags="0x4"/>
    </TTGlyph>
    <TTGlyph name="Udieresis.alt" xMin="32" yMin="-8" xMax="634" yMax="873">
      <component glyphName="U.alt" x="0" y="0" flags="0x204"/>
      <component glyphName="dieresis" x="142" y="190" flags="0x4"/>
    </TTGlyph>
    <TTGlyph name="Ugrave" xMin="38" yMin="-12" xMax="637" yMax="882">
      <component glyphName="U" x="0" y="0" flags="0x204"/>
      <component glyphName="grave" x="77" y="190" flags="0x4"/>
    </TTGlyph>
    <TTGlyph name="Ugrave.alt" xMin="32" yMin="-8" xMax="634" yMax="882">
      <component glyphName="U.alt" x="0" y="0" flags="0x204"/>
      <component glyphName="grave" x="78" y="190" flags="0x4"/>
    </TTGlyph>
    <TTGlyph name="Uhungarumlaut" xMin="38" yMin="-12" xMax="637" yMax="882">
      <component glyphName="U" x="0" y="0" flags="0x204"/>
      <component glyphName="hungarumlaut" x="182" y="190" flags="0x4"/>
    </TTGlyph>
    <TTGlyph name="Uhungarumlaut.alt" xMin="32" yMin="-8" xMax="637" yMax="882">
      <component glyphName="U.alt" x="0" y="0" flags="0x204"/>
      <component glyphName="hungarumlaut" x="183" y="190" flags="0x4"/>
    </TTGlyph>
    <TTGlyph name="Umacron" xMin="38" yMin="-12" xMax="637" yMax="853">
      <component glyphName="U" x="0" y="0" flags="0x204"/>
      <component glyphName="macron" x="140" y="190" flags="0x4"/>
    </TTGlyph>
    <TTGlyph name="Umacron.alt" xMin="32" yMin="-8" xMax="634" yMax="853">
      <component glyphName="U.alt" x="0" y="0" flags="0x204"/>
      <component glyphName="macron" x="142" y="190" flags="0x4"/>
    </TTGlyph>
    <TTGlyph name="Uogonek" xMin="40" yMin="-206" xMax="639" yMax="690">
      <component glyphName="U" x="2" y="0" flags="0x4"/>
      <component glyphName="ogonek" x="68" y="0" flags="0x4"/>
    </TTGlyph>
    <TTGlyph name="Uogonek.alt" xMin="32" yMin="-206" xMax="634" yMax="690">
      <component glyphName="U.alt" x="0" y="0" flags="0x4"/>
      <component glyphName="ogonek" x="209" y="0" flags="0x4"/>
    </TTGlyph>
    <TTGlyph name="Uring" xMin="38" yMin="-12" xMax="637" yMax="953">
      <component glyphName="U" x="0" y="0" flags="0x204"/>
      <component glyphName="ring" x="128" y="185" flags="0x4"/>
    </TTGlyph>
    <TTGlyph name="Uring.alt" xMin="32" yMin="-8" xMax="634" yMax="953">
      <component glyphName="U.alt" x="0" y="0" flags="0x204"/>
      <component glyphName="ring" x="130" y="185" flags="0x4"/>
    </TTGlyph>
    <TTGlyph name="V" xMin="70" yMin="-2" xMax="670" yMax="697">
      <contour>
        <pt x="670" y="690" on="1"/>
        <pt x="373" y="-2" on="1"/>
        <pt x="161" y="-2" on="1"/>
        <pt x="70" y="664" on="1"/>
        <pt x="280" y="697" on="1"/>
        <pt x="311" y="247" on="1"/>
        <pt x="469" y="690" on="1"/>
      </contour>
    </TTGlyph>
    <TTGlyph name="V.flat" xMin="67" yMin="-2" xMax="671" yMax="690">
      <contour>
        <pt x="671" y="690" on="1"/>
        <pt x="374" y="-2" on="1"/>
        <pt x="162" y="-2" on="1"/>
        <pt x="67" y="690" on="1"/>
        <pt x="282" y="690" on="1"/>
        <pt x="312" y="247" on="1"/>
        <pt x="470" y="690" on="1"/>
      </contour>
    </TTGlyph>
    <TTGlyph name="W" xMin="68" yMin="0" xMax="949" yMax="699">
      <contour>
        <pt x="949" y="690" on="1"/>
        <pt x="688" y="0" on="1"/>
        <pt x="488" y="0" on="1"/>
        <pt x="463" y="406" on="1"/>
        <pt x="320" y="0" on="1"/>
        <pt x="123" y="0" on="1"/>
        <pt x="68" y="668" on="1"/>
        <pt x="283" y="699" on="1"/>
        <pt x="287" y="295" on="1"/>
        <pt x="420" y="690" on="1"/>
        <pt x="624" y="690" on="1"/>
        <pt x="640" y="295" on="1"/>
        <pt x="760" y="690" on="1"/>
      </contour>
    </TTGlyph>
    <TTGlyph name="W.alt" xMin="66" yMin="-1" xMax="950" yMax="699">
      <contour>
        <pt x="472" y="-1" on="1"/>
        <pt x="441" y="264" on="1"/>
        <pt x="337" y="-1" on="1"/>
        <pt x="145" y="-1" on="1"/>
        <pt x="66" y="668" on="1"/>
        <pt x="273" y="699" on="1"/>
        <pt x="304" y="264" on="1"/>
        <pt x="403" y="518" on="1"/>
        <pt x="386" y="671" on="1"/>
        <pt x="586" y="698" on="1"/>
        <pt x="607" y="270" on="1"/>
        <pt x="750" y="690" on="1"/>
        <pt x="950" y="690" on="1"/>
        <pt x="664" y="-1" on="1"/>
      </contour>
    </TTGlyph>
    <TTGlyph name="W.alt_flat" xMin="65" yMin="-1" xMax="952" yMax="690">
      <contour>
        <pt x="473" y="-1" on="1"/>
        <pt x="442" y="263" on="1"/>
        <pt x="338" y="-1" on="1"/>
        <pt x="146" y="-1" on="1"/>
        <pt x="65" y="690" on="1"/>
        <pt x="275" y="690" on="1"/>
        <pt x="306" y="264" on="1"/>
        <pt x="405" y="517" on="1"/>
        <pt x="385" y="690" on="1"/>
        <pt x="588" y="690" on="1"/>
        <pt x="608" y="270" on="1"/>
        <pt x="751" y="690" on="1"/>
        <pt x="952" y="690" on="1"/>
        <pt x="665" y="-1" on="1"/>
      </contour>
    </TTGlyph>
    <TTGlyph name="W.flat" xMin="68" yMin="0" xMax="950" yMax="690">
      <contour>
        <pt x="950" y="690" on="1"/>
        <pt x="689" y="0" on="1"/>
        <pt x="489" y="0" on="1"/>
        <pt x="465" y="406" on="1"/>
        <pt x="321" y="0" on="1"/>
        <pt x="124" y="0" on="1"/>
        <pt x="68" y="690" on="1"/>
        <pt x="284" y="690" on="1"/>
        <pt x="289" y="295" on="1"/>
        <pt x="421" y="690" on="1"/>
        <pt x="626" y="690" on="1"/>
        <pt x="641" y="295" on="1"/>
        <pt x="762" y="690" on="1"/>
      </contour>
    </TTGlyph>
    <TTGlyph name="Wacute" xMin="68" yMin="0" xMax="949" yMax="882">
      <component glyphName="W" x="0" y="0" flags="0x204"/>
      <component glyphName="acute" x="349" y="190" flags="0x4"/>
    </TTGlyph>
    <TTGlyph name="Wacute.alt" xMin="66" yMin="-1" xMax="950" yMax="882">
      <component glyphName="W.alt" x="0" y="0" flags="0x204"/>
      <component glyphName="acute" x="332" y="190" flags="0x4"/>
    </TTGlyph>
    <TTGlyph name="Wacute.alt_flat" xMin="65" yMin="-1" xMax="952" yMax="882">
      <component glyphName="W.alt_flat" x="0" y="0" flags="0x204"/>
      <component glyphName="acute" x="334" y="190" flags="0x4"/>
    </TTGlyph>
    <TTGlyph name="Wacute.flat" xMin="68" yMin="0" xMax="950" yMax="882">
      <component glyphName="W.flat" x="0" y="0" flags="0x204"/>
      <component glyphName="acute" x="350" y="190" flags="0x4"/>
    </TTGlyph>
    <TTGlyph name="Wcircumflex" xMin="68" yMin="0" xMax="949" yMax="881">
      <component glyphName="W" x="0" y="0" flags="0x204"/>
      <component glyphName="circumflex" x="293" y="190" flags="0x4"/>
    </TTGlyph>
    <TTGlyph name="Wcircumflex.alt" xMin="66" yMin="-1" xMax="950" yMax="881">
      <component glyphName="W.alt" x="0" y="0" flags="0x204"/>
      <component glyphName="circumflex" x="276" y="190" flags="0x4"/>
    </TTGlyph>
    <TTGlyph name="Wcircumflex.alt_flat" xMin="65" yMin="-1" xMax="952" yMax="881">
      <component glyphName="W.alt_flat" x="0" y="0" flags="0x204"/>
      <component glyphName="circumflex" x="277" y="190" flags="0x4"/>
    </TTGlyph>
    <TTGlyph name="Wcircumflex.flat" xMin="68" yMin="0" xMax="950" yMax="881">
      <component glyphName="W.flat" x="0" y="0" flags="0x204"/>
      <component glyphName="circumflex" x="294" y="190" flags="0x4"/>
    </TTGlyph>
    <TTGlyph name="Wdieresis" xMin="68" yMin="0" xMax="949" yMax="873">
      <component glyphName="W" x="0" y="0" flags="0x204"/>
      <component glyphName="dieresis" x="295" y="190" flags="0x4"/>
    </TTGlyph>
    <TTGlyph name="Wdieresis.alt" xMin="66" yMin="-1" xMax="950" yMax="873">
      <component glyphName="W.alt" x="0" y="0" flags="0x204"/>
      <component glyphName="dieresis" x="278" y="190" flags="0x4"/>
    </TTGlyph>
    <TTGlyph name="Wdieresis.alt_flat" xMin="65" yMin="-1" xMax="952" yMax="873">
      <component glyphName="W.alt_flat" x="0" y="0" flags="0x204"/>
      <component glyphName="dieresis" x="280" y="190" flags="0x4"/>
    </TTGlyph>
    <TTGlyph name="Wdieresis.flat" xMin="68" yMin="0" xMax="950" yMax="873">
      <component glyphName="W.flat" x="0" y="0" flags="0x204"/>
      <component glyphName="dieresis" x="297" y="190" flags="0x4"/>
    </TTGlyph>
    <TTGlyph name="Wgrave" xMin="68" yMin="0" xMax="949" yMax="882">
      <component glyphName="W" x="0" y="0" flags="0x204"/>
      <component glyphName="grave" x="231" y="190" flags="0x4"/>
    </TTGlyph>
    <TTGlyph name="Wgrave.alt" xMin="66" yMin="-1" xMax="950" yMax="882">
      <component glyphName="W.alt" x="0" y="0" flags="0x204"/>
      <component glyphName="grave" x="214" y="190" flags="0x4"/>
    </TTGlyph>
    <TTGlyph name="Wgrave.alt_flat" xMin="65" yMin="-1" xMax="952" yMax="882">
      <component glyphName="W.alt_flat" x="0" y="0" flags="0x204"/>
      <component glyphName="grave" x="216" y="190" flags="0x4"/>
    </TTGlyph>
    <TTGlyph name="Wgrave.flat" xMin="68" yMin="0" xMax="950" yMax="882">
      <component glyphName="W.flat" x="0" y="0" flags="0x204"/>
      <component glyphName="grave" x="232" y="190" flags="0x4"/>
    </TTGlyph>
    <TTGlyph name="X" xMin="-38" yMin="-9" xMax="632" yMax="699">
      <contour>
        <pt x="347" y="-9" on="1"/>
        <pt x="281" y="198" on="1"/>
        <pt x="175" y="-1" on="1"/>
        <pt x="-38" y="-1" on="1"/>
        <pt x="192" y="355" on="1"/>
        <pt x="69" y="669" on="1"/>
        <pt x="275" y="699" on="1"/>
        <pt x="330" y="521" on="1"/>
        <pt x="419" y="690" on="1"/>
        <pt x="632" y="690" on="1"/>
        <pt x="420" y="360" on="1"/>
        <pt x="553" y="21" on="1"/>
      </contour>
    </TTGlyph>
    <TTGlyph name="X.flat" xMin="-38" yMin="-1" xMax="634" yMax="690">
      <contour>
        <pt x="342" y="0" on="1"/>
        <pt x="281" y="196" on="1"/>
        <pt x="175" y="-1" on="1"/>
        <pt x="-38" y="-1" on="1"/>
        <pt x="192" y="354" on="1"/>
        <pt x="60" y="690" on="1"/>
        <pt x="278" y="690" on="1"/>
        <pt x="330" y="519" on="1"/>
        <pt x="421" y="690" on="1"/>
        <pt x="634" y="690" on="1"/>
        <pt x="419" y="358" on="1"/>
        <pt x="559" y="0" on="1"/>
      </contour>
    </TTGlyph>
    <TTGlyph name="Y" xMin="56" yMin="0" xMax="666" yMax="699">
      <contour>
        <pt x="666" y="690" on="1"/>
        <pt x="392" y="239" on="1"/>
        <pt x="356" y="0" on="1"/>
        <pt x="156" y="0" on="1"/>
        <pt x="191" y="234" on="1"/>
        <pt x="56" y="670" on="1"/>
        <pt x="263" y="699" on="1"/>
        <pt x="326" y="438" on="1"/>
        <pt x="451" y="690" on="1"/>
      </contour>
    </TTGlyph>
    <TTGlyph name="Y.flat" xMin="52" yMin="0" xMax="669" yMax="690">
      <contour>
        <pt x="669" y="690" on="1"/>
        <pt x="395" y="239" on="1"/>
        <pt x="359" y="0" on="1"/>
        <pt x="159" y="0" on="1"/>
        <pt x="194" y="234" on="1"/>
        <pt x="52" y="690" on="1"/>
        <pt x="267" y="690" on="1"/>
        <pt x="328" y="438" on="1"/>
        <pt x="453" y="690" on="1"/>
      </contour>
    </TTGlyph>
    <TTGlyph name="Yacute" xMin="56" yMin="0" xMax="666" yMax="882">
      <component glyphName="Y" x="0" y="0" flags="0x204"/>
      <component glyphName="acute" x="179" y="190" flags="0x4"/>
    </TTGlyph>
    <TTGlyph name="Yacute.flat" xMin="52" yMin="0" xMax="669" yMax="882">
      <component glyphName="Y.flat" x="0" y="0" flags="0x204"/>
      <component glyphName="acute" x="182" y="190" flags="0x4"/>
    </TTGlyph>
    <TTGlyph name="Ycircumflex" xMin="56" yMin="0" xMax="666" yMax="881">
      <component glyphName="Y" x="0" y="0" flags="0x204"/>
      <component glyphName="circumflex" x="123" y="190" flags="0x4"/>
    </TTGlyph>
    <TTGlyph name="Ycircumflex.flat" xMin="52" yMin="0" xMax="669" yMax="881">
      <component glyphName="Y.flat" x="0" y="0" flags="0x204"/>
      <component glyphName="circumflex" x="126" y="190" flags="0x4"/>
    </TTGlyph>
    <TTGlyph name="Ydieresis" xMin="56" yMin="0" xMax="666" yMax="873">
      <component glyphName="Y" x="0" y="0" flags="0x204"/>
      <component glyphName="dieresis" x="125" y="190" flags="0x4"/>
    </TTGlyph>
    <TTGlyph name="Ydieresis.flat" xMin="52" yMin="0" xMax="669" yMax="873">
      <component glyphName="Y.flat" x="0" y="0" flags="0x204"/>
      <component glyphName="dieresis" x="128" y="190" flags="0x4"/>
    </TTGlyph>
    <TTGlyph name="Ygrave" xMin="56" yMin="0" xMax="666" yMax="882">
      <component glyphName="Y" x="0" y="0" flags="0x204"/>
      <component glyphName="grave" x="61" y="190" flags="0x4"/>
    </TTGlyph>
    <TTGlyph name="Ygrave.flat" xMin="52" yMin="0" xMax="669" yMax="882">
      <component glyphName="Y.flat" x="0" y="0" flags="0x204"/>
      <component glyphName="grave" x="64" y="190" flags="0x4"/>
    </TTGlyph>
    <TTGlyph name="Z" xMin="-15" yMin="0" xMax="564" yMax="690">
      <contour>
        <pt x="564" y="690" on="1"/>
        <pt x="542" y="543" on="1"/>
        <pt x="247" y="158" on="1"/>
        <pt x="470" y="158" on="1"/>
        <pt x="470" y="0" on="1"/>
        <pt x="-15" y="0" on="1"/>
        <pt x="8" y="148" on="1"/>
        <pt x="303" y="533" on="1"/>
        <pt x="97" y="533" on="1"/>
        <pt x="97" y="690" on="1"/>
      </contour>
    </TTGlyph>
    <TTGlyph name="Z.flat" xMin="-15" yMin="0" xMax="564" yMax="690">
      <contour>
        <pt x="564" y="690" on="1"/>
        <pt x="542" y="543" on="1"/>
        <pt x="247" y="158" on="1"/>
        <pt x="482" y="158" on="1"/>
        <pt x="458" y="0" on="1"/>
        <pt x="-15" y="0" on="1"/>
        <pt x="8" y="148" on="1"/>
        <pt x="303" y="533" on="1"/>
        <pt x="85" y="533" on="1"/>
        <pt x="108" y="690" on="1"/>
      </contour>
    </TTGlyph>
    <TTGlyph name="Zacute" xMin="-15" yMin="0" xMax="564" yMax="882">
      <component glyphName="Z" x="0" y="0" flags="0x204"/>
      <component glyphName="acute" x="154" y="190" flags="0x4"/>
    </TTGlyph>
    <TTGlyph name="Zacute.flat" xMin="-15" yMin="0" xMax="564" yMax="882">
      <component glyphName="Z.flat" x="0" y="0" flags="0x204"/>
      <component glyphName="acute" x="154" y="190" flags="0x4"/>
    </TTGlyph>
    <TTGlyph name="Zcaron" xMin="-15" yMin="0" xMax="564" yMax="881">
      <component glyphName="Z" x="0" y="0" flags="0x204"/>
      <component glyphName="caron" x="101" y="190" flags="0x4"/>
    </TTGlyph>
    <TTGlyph name="Zcaron.flat" xMin="-15" yMin="0" xMax="564" yMax="881">
      <component glyphName="Z.flat" x="0" y="0" flags="0x204"/>
      <component glyphName="caron" x="101" y="190" flags="0x4"/>
    </TTGlyph>
    <TTGlyph name="Zdotaccent" xMin="-15" yMin="0" xMax="564" yMax="873">
      <component glyphName="Z" x="0" y="0" flags="0x204"/>
      <component glyphName="dotaccent" x="101" y="190" flags="0x4"/>
    </TTGlyph>
    <TTGlyph name="Zdotaccent.flat" xMin="-15" yMin="0" xMax="564" yMax="873">
      <component glyphName="Z.flat" x="0" y="0" flags="0x204"/>
      <component glyphName="dotaccent" x="101" y="190" flags="0x4"/>
    </TTGlyph>
    <TTGlyph name="a" xMin="16" yMin="-10" xMax="490" yMax="501">
      <contour>
        <pt x="277" y="179" on="1"/>
        <pt x="305" y="362" on="1"/>
        <pt x="300" y="364" on="0"/>
        <pt x="291" y="366" on="0"/>
        <pt x="286" y="366" on="1"/>
        <pt x="267" y="366" on="0"/>
        <pt x="232" y="339" on="0"/>
        <pt x="205" y="294" on="0"/>
        <pt x="189" y="234" on="0"/>
        <pt x="189" y="201" on="1"/>
        <pt x="189" y="171" on="0"/>
        <pt x="208" y="144" on="0"/>
        <pt x="221" y="144" on="1"/>
        <pt x="234" y="144" on="0"/>
        <pt x="260" y="160" on="0"/>
      </contour>
      <contour>
        <pt x="268" y="77" on="1"/>
        <pt x="239" y="39" on="0"/>
        <pt x="174" y="-10" on="0"/>
        <pt x="136" y="-10" on="1"/>
        <pt x="82" y="-10" on="0"/>
        <pt x="16" y="79" on="0"/>
        <pt x="16" y="157" on="1"/>
        <pt x="16" y="239" on="0"/>
        <pt x="60" y="368" on="0"/>
        <pt x="138" y="455" on="0"/>
        <pt x="248" y="501" on="0"/>
        <pt x="313" y="501" on="1"/>
        <pt x="357" y="501" on="0"/>
        <pt x="452" y="483" on="0"/>
        <pt x="490" y="467" on="1"/>
        <pt x="438" y="122" on="1"/>
        <pt x="438" y="0" on="1"/>
        <pt x="273" y="0" on="1"/>
      </contour>
    </TTGlyph>
    <TTGlyph name="a.alt" xMin="2" yMin="-10" xMax="449" yMax="504">
      <contour>
        <pt x="195" y="108" on="1"/>
        <pt x="207" y="108" on="0"/>
        <pt x="232" y="123" on="0"/>
        <pt x="245" y="137" on="1"/>
        <pt x="259" y="223" on="1"/>
        <pt x="210" y="217" on="0"/>
        <pt x="169" y="164" on="0"/>
        <pt x="169" y="139" on="1"/>
        <pt x="169" y="124" on="0"/>
        <pt x="184" y="108" on="0"/>
      </contour>
      <contour>
        <pt x="274" y="317" on="1"/>
        <pt x="278" y="347" on="0"/>
        <pt x="256" y="372" on="0"/>
        <pt x="222" y="372" on="1"/>
        <pt x="193" y="372" on="0"/>
        <pt x="122" y="353" on="0"/>
        <pt x="82" y="336" on="1"/>
        <pt x="82" y="466" on="1"/>
        <pt x="125" y="482" on="0"/>
        <pt x="223" y="504" on="0"/>
        <pt x="277" y="504" on="1"/>
        <pt x="376" y="504" on="0"/>
        <pt x="459" y="416" on="0"/>
        <pt x="446" y="323" on="1"/>
        <pt x="413" y="108" on="1"/>
        <pt x="412" y="0" on="1"/>
        <pt x="247" y="0" on="1"/>
        <pt x="243" y="62" on="1"/>
        <pt x="215" y="29" on="0"/>
        <pt x="151" y="-10" on="0"/>
        <pt x="111" y="-10" on="1"/>
        <pt x="61" y="-10" on="0"/>
        <pt x="2" y="56" on="0"/>
        <pt x="2" y="110" on="1"/>
        <pt x="2" y="195" on="0"/>
        <pt x="137" y="294" on="0"/>
        <pt x="271" y="301" on="1"/>
      </contour>
    </TTGlyph>
    <TTGlyph name="aacute" xMin="16" yMin="-10" xMax="518" yMax="695">
      <component glyphName="a" x="0" y="0" flags="0x204"/>
      <component glyphName="acute" x="133" y="3" flags="0x4"/>
    </TTGlyph>
    <TTGlyph name="aacute.alt" xMin="2" yMin="-10" xMax="485" yMax="695">
      <component glyphName="a.alt" x="0" y="0" flags="0x204"/>
      <component glyphName="acute" x="100" y="3" flags="0x4"/>
    </TTGlyph>
    <TTGlyph name="abreve" xMin="16" yMin="-10" xMax="490" yMax="699">
      <component glyphName="a" x="0" y="0" flags="0x204"/>
      <component glyphName="breve" x="82" y="3" flags="0x4"/>
    </TTGlyph>
    <TTGlyph name="abreve.alt" xMin="2" yMin="-10" xMax="456" yMax="699">
      <component glyphName="a.alt" x="0" y="0" flags="0x204"/>
      <component glyphName="breve" x="50" y="3" flags="0x4"/>
    </TTGlyph>
    <TTGlyph name="acircumflex" xMin="16" yMin="-10" xMax="490" yMax="694">
      <component glyphName="a" x="0" y="0" flags="0x204"/>
      <component glyphName="circumflex" x="76" y="3" flags="0x4"/>
    </TTGlyph>
    <TTGlyph name="acircumflex.alt" xMin="2" yMin="-10" xMax="449" yMax="694">
      <component glyphName="a.alt" x="0" y="0" flags="0x204"/>
      <component glyphName="circumflex" x="43" y="3" flags="0x4"/>
    </TTGlyph>
    <TTGlyph name="acute" xMin="122" yMin="540" xMax="385" yMax="692">
      <contour>
        <pt x="385" y="658" on="1"/>
        <pt x="227" y="540" on="1"/>
        <pt x="122" y="540" on="1"/>
        <pt x="188" y="692" on="1"/>
      </contour>
    </TTGlyph>
    <TTGlyph name="adieresis" xMin="16" yMin="-10" xMax="492" yMax="686">
      <component glyphName="a" x="0" y="0" flags="0x204"/>
      <component glyphName="dieresis" x="78" y="3" flags="0x4"/>
    </TTGlyph>
    <TTGlyph name="adieresis.alt" xMin="2" yMin="-10" xMax="460" yMax="686">
      <component glyphName="a.alt" x="0" y="0" flags="0x204"/>
      <component glyphName="dieresis" x="46" y="3" flags="0x4"/>
    </TTGlyph>
    <TTGlyph name="ae" xMin="1" yMin="-10" xMax="687" yMax="505">
      <contour>
        <pt x="468" y="-10" on="1"/>
        <pt x="415" y="-10" on="0"/>
        <pt x="330" y="26" on="0"/>
        <pt x="302" y="59" on="1"/>
        <pt x="262" y="29" on="0"/>
        <pt x="174" y="-10" on="0"/>
        <pt x="125" y="-10" on="1"/>
        <pt x="68" y="-10" on="0"/>
        <pt x="1" y="54" on="0"/>
        <pt x="1" y="113" on="1"/>
        <pt x="1" y="194" on="0"/>
        <pt x="137" y="293" on="0"/>
        <pt x="270" y="301" on="1"/>
        <pt x="272" y="317" on="1"/>
        <pt x="276" y="346" on="0"/>
        <pt x="254" y="372" on="0"/>
        <pt x="220" y="372" on="1"/>
        <pt x="192" y="372" on="0"/>
        <pt x="120" y="353" on="0"/>
        <pt x="78" y="335" on="1"/>
        <pt x="78" y="465" on="1"/>
        <pt x="122" y="482" on="0"/>
        <pt x="218" y="504" on="0"/>
        <pt x="264" y="504" on="1"/>
        <pt x="307" y="504" on="0"/>
        <pt x="367" y="484" on="0"/>
        <pt x="384" y="462" on="1"/>
        <pt x="411" y="482" on="0"/>
        <pt x="476" y="505" on="0"/>
        <pt x="514" y="505" on="1"/>
        <pt x="557" y="505" on="0"/>
        <pt x="622" y="476" on="0"/>
        <pt x="665" y="427" on="0"/>
        <pt x="687" y="361" on="0"/>
        <pt x="687" y="323" on="1"/>
        <pt x="687" y="289" on="0"/>
        <pt x="678" y="228" on="0"/>
        <pt x="671" y="202" on="1"/>
        <pt x="421" y="202" on="1"/>
        <pt x="423" y="153" on="0"/>
        <pt x="468" y="115" on="0"/>
        <pt x="507" y="115" on="1"/>
        <pt x="542" y="115" on="0"/>
        <pt x="611" y="135" on="0"/>
        <pt x="645" y="151" on="1"/>
        <pt x="645" y="32" on="1"/>
        <pt x="604" y="13" on="0"/>
        <pt x="519" y="-10" on="0"/>
      </contour>
      <contour>
        <pt x="531" y="297" on="1"/>
        <pt x="539" y="338" on="0"/>
        <pt x="524" y="389" on="0"/>
        <pt x="499" y="389" on="1"/>
        <pt x="476" y="389" on="0"/>
        <pt x="439" y="337" on="0"/>
        <pt x="430" y="297" on="1"/>
      </contour>
      <contour>
        <pt x="266" y="138" on="1"/>
        <pt x="262" y="153" on="0"/>
        <pt x="258" y="186" on="0"/>
        <pt x="258" y="202" on="1"/>
        <pt x="258" y="223" on="1"/>
        <pt x="209" y="213" on="0"/>
        <pt x="168" y="169" on="0"/>
        <pt x="168" y="145" on="1"/>
        <pt x="168" y="127" on="0"/>
        <pt x="187" y="109" on="0"/>
        <pt x="202" y="109" on="1"/>
        <pt x="217" y="109" on="0"/>
        <pt x="249" y="125" on="0"/>
      </contour>
    </TTGlyph>
    <TTGlyph name="aeacute" xMin="1" yMin="-10" xMax="687" yMax="692">
      <component glyphName="ae" x="0" y="0" flags="0x204"/>
      <component glyphName="acute" x="205" y="0" flags="0x4"/>
    </TTGlyph>
    <TTGlyph name="agrave" xMin="16" yMin="-10" xMax="490" yMax="695">
      <component glyphName="a" x="0" y="0" flags="0x204"/>
      <component glyphName="grave" x="15" y="3" flags="0x4"/>
    </TTGlyph>
    <TTGlyph name="agrave.alt" xMin="2" yMin="-10" xMax="449" yMax="695">
      <component glyphName="a.alt" x="0" y="0" flags="0x204"/>
      <component glyphName="grave" x="-18" y="3" flags="0x4"/>
    </TTGlyph>
    <TTGlyph name="amacron" xMin="16" yMin="-10" xMax="490" yMax="666">
      <component glyphName="a" x="0" y="0" flags="0x204"/>
      <component glyphName="macron" x="78" y="3" flags="0x4"/>
    </TTGlyph>
    <TTGlyph name="amacron.alt" xMin="2" yMin="-10" xMax="450" yMax="666">
      <component glyphName="a.alt" x="0" y="0" flags="0x204"/>
      <component glyphName="macron" x="46" y="3" flags="0x4"/>
    </TTGlyph>
    <TTGlyph name="ampersand" xMin="6" yMin="-13" xMax="573" yMax="703">
      <contour>
        <pt x="234" y="127" on="1"/>
        <pt x="250" y="127" on="0"/>
        <pt x="281" y="141" on="0"/>
        <pt x="297" y="157" on="1"/>
        <pt x="228" y="279" on="1"/>
        <pt x="203" y="257" on="0"/>
        <pt x="181" y="211" on="0"/>
        <pt x="181" y="186" on="1"/>
        <pt x="181" y="158" on="0"/>
        <pt x="209" y="127" on="0"/>
      </contour>
      <contour>
        <pt x="388" y="-6" on="1"/>
        <pt x="358" y="47" on="1"/>
        <pt x="319" y="18" on="0"/>
        <pt x="239" y="-13" on="0"/>
        <pt x="193" y="-13" on="1"/>
        <pt x="106" y="-13" on="0"/>
        <pt x="6" y="82" on="0"/>
        <pt x="6" y="158" on="1"/>
        <pt x="6" y="236" on="0"/>
        <pt x="93" y="351" on="0"/>
        <pt x="164" y="388" on="1"/>
        <pt x="149" y="419" on="0"/>
        <pt x="131" y="481" on="0"/>
        <pt x="131" y="514" on="1"/>
        <pt x="131" y="595" on="0"/>
        <pt x="242" y="703" on="0"/>
        <pt x="335" y="703" on="1"/>
        <pt x="395" y="703" on="0"/>
        <pt x="482" y="676" on="0"/>
        <pt x="517" y="659" on="1"/>
        <pt x="470" y="509" on="1"/>
        <pt x="436" y="527" on="0"/>
        <pt x="377" y="549" on="0"/>
        <pt x="351" y="549" on="1"/>
        <pt x="329" y="549" on="0"/>
        <pt x="306" y="527" on="0"/>
        <pt x="306" y="510" on="1"/>
        <pt x="306" y="495" on="0"/>
        <pt x="320" y="463" on="0"/>
        <pt x="331" y="443" on="1"/>
        <pt x="401" y="321" on="1"/>
        <pt x="410" y="343" on="0"/>
        <pt x="428" y="392" on="0"/>
        <pt x="436" y="421" on="1"/>
        <pt x="573" y="382" on="1"/>
        <pt x="556" y="328" on="0"/>
        <pt x="508" y="224" on="0"/>
        <pt x="480" y="181" on="1"/>
        <pt x="573" y="18" on="1"/>
      </contour>
    </TTGlyph>
    <TTGlyph name="ampersand.flat" xMin="6" yMin="-13" xMax="583" yMax="703">
      <contour>
        <pt x="234" y="127" on="1"/>
        <pt x="250" y="127" on="0"/>
        <pt x="281" y="141" on="0"/>
        <pt x="297" y="157" on="1"/>
        <pt x="228" y="279" on="1"/>
        <pt x="203" y="257" on="0"/>
        <pt x="181" y="211" on="0"/>
        <pt x="181" y="186" on="1"/>
        <pt x="181" y="158" on="0"/>
        <pt x="209" y="127" on="0"/>
      </contour>
      <contour>
        <pt x="385" y="0" on="1"/>
        <pt x="358" y="47" on="1"/>
        <pt x="319" y="18" on="0"/>
        <pt x="239" y="-13" on="0"/>
        <pt x="193" y="-13" on="1"/>
        <pt x="106" y="-13" on="0"/>
        <pt x="6" y="82" on="0"/>
        <pt x="6" y="158" on="1"/>
        <pt x="6" y="236" on="0"/>
        <pt x="93" y="351" on="0"/>
        <pt x="164" y="388" on="1"/>
        <pt x="149" y="419" on="0"/>
        <pt x="131" y="481" on="0"/>
        <pt x="131" y="514" on="1"/>
        <pt x="131" y="595" on="0"/>
        <pt x="242" y="703" on="0"/>
        <pt x="335" y="703" on="1"/>
        <pt x="395" y="703" on="0"/>
        <pt x="482" y="676" on="0"/>
        <pt x="517" y="659" on="1"/>
        <pt x="470" y="509" on="1"/>
        <pt x="436" y="527" on="0"/>
        <pt x="377" y="549" on="0"/>
        <pt x="351" y="549" on="1"/>
        <pt x="329" y="549" on="0"/>
        <pt x="306" y="527" on="0"/>
        <pt x="306" y="510" on="1"/>
        <pt x="306" y="495" on="0"/>
        <pt x="320" y="463" on="0"/>
        <pt x="331" y="443" on="1"/>
        <pt x="401" y="321" on="1"/>
        <pt x="410" y="342" on="0"/>
        <pt x="428" y="392" on="0"/>
        <pt x="436" y="421" on="1"/>
        <pt x="573" y="382" on="1"/>
        <pt x="556" y="328" on="0"/>
        <pt x="508" y="224" on="0"/>
        <pt x="480" y="180" on="1"/>
        <pt x="583" y="0" on="1"/>
      </contour>
    </TTGlyph>
    <TTGlyph name="aogonek" xMin="16" yMin="-206" xMax="490" yMax="501">
      <component glyphName="a" x="0" y="0" flags="0x204"/>
      <component glyphName="ogonek" x="122" y="0" flags="0x4"/>
    </TTGlyph>
    <TTGlyph name="aogonek.alt" xMin="2" yMin="-206" xMax="449" yMax="504">
      <component glyphName="a.alt" x="0" y="0" flags="0x204"/>
      <component glyphName="ogonek" x="96" y="0" flags="0x4"/>
    </TTGlyph>
    <TTGlyph name="aring" xMin="16" yMin="-10" xMax="490" yMax="771">
      <component glyphName="a" x="0" y="0" flags="0x204"/>
      <component glyphName="ring" x="67" y="3" flags="0x4"/>
    </TTGlyph>
    <TTGlyph name="aring.alt" xMin="2" yMin="-10" xMax="449" yMax="771">
      <component glyphName="a.alt" x="0" y="0" flags="0x204"/>
      <component glyphName="ring" x="35" y="3" flags="0x4"/>
    </TTGlyph>
    <TTGlyph name="aringacute" xMin="16" yMin="-10" xMax="548" yMax="944">
      <component glyphName="acute" x="163" y="252" flags="0x4"/>
      <component glyphName="aring" x="0" y="0" flags="0x204"/>
    </TTGlyph>
    <TTGlyph name="aringacute.alt" xMin="2" yMin="-10" xMax="516" yMax="944">
      <component glyphName="aring.alt" x="0" y="0" flags="0x204"/>
      <component glyphName="acute" x="131" y="252" flags="0x4"/>
    </TTGlyph>
    <TTGlyph name="asciicircum" xMin="69" yMin="512" xMax="404" yMax="697">
      <contour>
        <pt x="404" y="512" on="1"/>
        <pt x="292" y="512" on="1"/>
        <pt x="250" y="589" on="1"/>
        <pt x="183" y="512" on="1"/>
        <pt x="69" y="512" on="1"/>
        <pt x="198" y="697" on="1"/>
        <pt x="327" y="697" on="1"/>
      </contour>
    </TTGlyph>
    <TTGlyph name="asciitilde" xMin="25" yMin="228" xMax="401" yMax="413">
      <contour>
        <pt x="401" y="397" on="1"/>
        <pt x="380" y="308" on="0"/>
        <pt x="325" y="232" on="0"/>
        <pt x="279" y="232" on="1"/>
        <pt x="261" y="232" on="0"/>
        <pt x="229" y="244" on="0"/>
        <pt x="208" y="256" on="1"/>
        <pt x="186" y="268" on="0"/>
        <pt x="161" y="279" on="0"/>
        <pt x="151" y="279" on="1"/>
        <pt x="140" y="279" on="0"/>
        <pt x="124" y="259" on="0"/>
        <pt x="113" y="228" on="1"/>
        <pt x="25" y="244" on="1"/>
        <pt x="45" y="332" on="0"/>
        <pt x="101" y="409" on="0"/>
        <pt x="147" y="409" on="1"/>
        <pt x="165" y="409" on="0"/>
        <pt x="198" y="397" on="0"/>
        <pt x="218" y="385" on="1"/>
        <pt x="241" y="372" on="0"/>
        <pt x="265" y="362" on="0"/>
        <pt x="275" y="362" on="1"/>
        <pt x="285" y="362" on="0"/>
        <pt x="302" y="382" on="0"/>
        <pt x="313" y="413" on="1"/>
      </contour>
    </TTGlyph>
    <TTGlyph name="asterisk" xMin="64" yMin="343" xMax="436" yMax="696">
      <contour>
        <pt x="436" y="548" on="1"/>
        <pt x="338" y="477" on="1"/>
        <pt x="377" y="362" on="1"/>
        <pt x="347" y="343" on="1"/>
        <pt x="250" y="413" on="1"/>
        <pt x="153" y="343" on="1"/>
        <pt x="123" y="362" on="1"/>
        <pt x="162" y="477" on="1"/>
        <pt x="64" y="548" on="1"/>
        <pt x="75" y="582" on="1"/>
        <pt x="196" y="582" on="1"/>
        <pt x="231" y="696" on="1"/>
        <pt x="269" y="696" on="1"/>
        <pt x="304" y="582" on="1"/>
        <pt x="426" y="582" on="1"/>
      </contour>
    </TTGlyph>
    <TTGlyph name="at" xMin="26" yMin="-138" xMax="730" yMax="641">
      <contour>
        <pt x="338" y="-138" on="1"/>
        <pt x="192" y="-138" on="0"/>
        <pt x="26" y="28" on="0"/>
        <pt x="26" y="186" on="1"/>
        <pt x="26" y="277" on="0"/>
        <pt x="90" y="443" on="0"/>
        <pt x="199" y="567" on="0"/>
        <pt x="347" y="641" on="0"/>
        <pt x="431" y="641" on="1"/>
        <pt x="498" y="641" on="0"/>
        <pt x="609" y="600" on="0"/>
        <pt x="687" y="521" on="0"/>
        <pt x="730" y="403" on="0"/>
        <pt x="730" y="327" on="1"/>
        <pt x="730" y="195" on="0"/>
        <pt x="625" y="44" on="0"/>
        <pt x="535" y="44" on="1"/>
        <pt x="487" y="44" on="0"/>
        <pt x="419" y="87" on="0"/>
        <pt x="406" y="124" on="1"/>
        <pt x="372" y="82" on="0"/>
        <pt x="309" y="44" on="0"/>
        <pt x="276" y="44" on="1"/>
        <pt x="229" y="44" on="0"/>
        <pt x="176" y="116" on="0"/>
        <pt x="176" y="180" on="1"/>
        <pt x="176" y="243" on="0"/>
        <pt x="213" y="350" on="0"/>
        <pt x="278" y="426" on="0"/>
        <pt x="370" y="469" on="0"/>
        <pt x="424" y="469" on="1"/>
        <pt x="464" y="469" on="0"/>
        <pt x="549" y="451" on="0"/>
        <pt x="580" y="438" on="1"/>
        <pt x="540" y="191" on="1"/>
        <pt x="539" y="182" on="0"/>
        <pt x="536" y="159" on="0"/>
        <pt x="536" y="149" on="1"/>
        <pt x="536" y="130" on="0"/>
        <pt x="556" y="106" on="0"/>
        <pt x="580" y="106" on="1"/>
        <pt x="621" y="106" on="0"/>
        <pt x="686" y="223" on="0"/>
        <pt x="686" y="325" on="1"/>
        <pt x="686" y="471" on="0"/>
        <pt x="543" y="605" on="0"/>
        <pt x="427" y="605" on="1"/>
        <pt x="354" y="605" on="0"/>
        <pt x="223" y="539" on="0"/>
        <pt x="126" y="426" on="0"/>
        <pt x="69" y="273" on="0"/>
        <pt x="69" y="187" on="1"/>
        <pt x="69" y="38" on="0"/>
        <pt x="219" y="-103" on="0"/>
        <pt x="341" y="-103" on="1"/>
        <pt x="395" y="-103" on="0"/>
        <pt x="494" y="-76" on="0"/>
        <pt x="538" y="-51" on="1"/>
        <pt x="544" y="-87" on="1"/>
        <pt x="505" y="-109" on="0"/>
        <pt x="398" y="-138" on="0"/>
      </contour>
      <contour>
        <pt x="342" y="164" on="1"/>
        <pt x="354" y="164" on="0"/>
        <pt x="382" y="183" on="0"/>
        <pt x="404" y="207" on="1"/>
        <pt x="428" y="355" on="1"/>
        <pt x="424" y="356" on="0"/>
        <pt x="414" y="359" on="0"/>
        <pt x="407" y="359" on="1"/>
        <pt x="372" y="359" on="0"/>
        <pt x="316" y="271" on="0"/>
        <pt x="316" y="211" on="1"/>
        <pt x="316" y="186" on="0"/>
        <pt x="331" y="164" on="0"/>
      </contour>
    </TTGlyph>
    <TTGlyph name="atilde" xMin="16" yMin="-10" xMax="497" yMax="710">
      <component glyphName="a" x="0" y="0" flags="0x204"/>
      <component glyphName="tilde" x="80" y="3" flags="0x4"/>
    </TTGlyph>
    <TTGlyph name="atilde.alt" xMin="2" yMin="-10" xMax="464" yMax="710">
      <component glyphName="a.alt" x="0" y="0" flags="0x204"/>
      <component glyphName="tilde" x="47" y="3" flags="0x4"/>
    </TTGlyph>
    <TTGlyph name="b" xMin="3" yMin="-6" xMax="477" yMax="722">
      <contour>
        <pt x="3" y="28" on="1"/>
        <pt x="103" y="696" on="1"/>
        <pt x="279" y="722" on="1"/>
        <pt x="234" y="429" on="1"/>
        <pt x="262" y="463" on="0"/>
        <pt x="320" y="505" on="0"/>
        <pt x="356" y="505" on="1"/>
        <pt x="412" y="505" on="0"/>
        <pt x="477" y="411" on="0"/>
        <pt x="477" y="330" on="1"/>
        <pt x="477" y="249" on="0"/>
        <pt x="434" y="123" on="0"/>
        <pt x="357" y="38" on="0"/>
        <pt x="251" y="-6" on="0"/>
        <pt x="188" y="-6" on="1"/>
        <pt x="142" y="-6" on="0"/>
        <pt x="43" y="13" on="0"/>
      </contour>
      <contour>
        <pt x="188" y="133" on="1"/>
        <pt x="193" y="132" on="0"/>
        <pt x="206" y="129" on="0"/>
        <pt x="211" y="129" on="1"/>
        <pt x="249" y="129" on="0"/>
        <pt x="304" y="222" on="0"/>
        <pt x="304" y="292" on="1"/>
        <pt x="304" y="323" on="0"/>
        <pt x="285" y="352" on="0"/>
        <pt x="271" y="352" on="1"/>
        <pt x="258" y="352" on="0"/>
        <pt x="233" y="336" on="0"/>
        <pt x="216" y="317" on="1"/>
      </contour>
    </TTGlyph>
    <TTGlyph name="backslash" xMin="59" yMin="-126" xMax="411" yMax="699">
      <contour>
        <pt x="411" y="-95" on="1"/>
        <pt x="279" y="-126" on="1"/>
        <pt x="59" y="669" on="1"/>
        <pt x="192" y="699" on="1"/>
      </contour>
    </TTGlyph>
    <TTGlyph name="baht" xMin="-79" yMin="-120" xMax="546" yMax="746">
      <contour>
        <pt x="365" y="486" on="1"/>
        <pt x="365" y="516" on="0"/>
        <pt x="330" y="548" on="0"/>
        <pt x="299" y="548" on="1"/>
        <pt x="263" y="548" on="1"/>
        <pt x="241" y="402" on="1"/>
        <pt x="280" y="402" on="1"/>
        <pt x="318" y="402" on="0"/>
        <pt x="365" y="449" on="0"/>
      </contour>
      <contour>
        <pt x="328" y="225" on="1"/>
        <pt x="328" y="258" on="0"/>
        <pt x="291" y="297" on="0"/>
        <pt x="254" y="297" on="1"/>
        <pt x="226" y="297" on="1"/>
        <pt x="200" y="134" on="1"/>
        <pt x="232" y="134" on="1"/>
        <pt x="275" y="134" on="0"/>
        <pt x="328" y="182" on="0"/>
      </contour>
      <contour>
        <pt x="221" y="0" on="1"/>
        <pt x="68" y="0" on="1"/>
        <pt x="-8" y="-120" on="1"/>
        <pt x="-79" y="-103" on="1"/>
        <pt x="17" y="51" on="1"/>
        <pt x="112" y="687" on="1"/>
        <pt x="311" y="687" on="1"/>
        <pt x="344" y="687" on="0"/>
        <pt x="401" y="678" on="0"/>
        <pt x="424" y="671" on="1"/>
        <pt x="473" y="746" on="1"/>
        <pt x="546" y="726" on="1"/>
        <pt x="488" y="636" on="1"/>
        <pt x="513" y="615" on="0"/>
        <pt x="539" y="558" on="0"/>
        <pt x="539" y="524" on="1"/>
        <pt x="539" y="458" on="0"/>
        <pt x="460" y="371" on="0"/>
        <pt x="406" y="354" on="1"/>
        <pt x="449" y="335" on="0"/>
        <pt x="502" y="266" on="0"/>
        <pt x="502" y="217" on="1"/>
        <pt x="502" y="116" on="0"/>
        <pt x="356" y="0" on="0"/>
      </contour>
    </TTGlyph>
    <TTGlyph name="bar" xMin="5" yMin="-186" xMax="281" yMax="742">
      <contour>
        <pt x="145" y="-165" on="1"/>
        <pt x="5" y="-186" on="1"/>
        <pt x="140" y="721" on="1"/>
        <pt x="281" y="742" on="1"/>
      </contour>
    </TTGlyph>
    <TTGlyph name="bar.tab" xMin="-2" yMin="-132" xMax="275" yMax="813">
      <contour>
        <pt x="136" y="-112" on="1"/>
        <pt x="-2" y="-132" on="1"/>
        <pt x="136" y="792" on="1"/>
        <pt x="275" y="813" on="1"/>
      </contour>
    </TTGlyph>
    <TTGlyph name="braceleft" xMin="28" yMin="-104" xMax="481" yMax="690">
      <contour>
        <pt x="481" y="690" on="1"/>
        <pt x="465" y="585" on="1"/>
        <pt x="403" y="585" on="1"/>
        <pt x="363" y="585" on="0"/>
        <pt x="331" y="543" on="0"/>
        <pt x="330" y="499" on="1"/>
        <pt x="330" y="453" on="1"/>
        <pt x="329" y="392" on="0"/>
        <pt x="265" y="309" on="0"/>
        <pt x="194" y="296" on="1"/>
        <pt x="194" y="294" on="1"/>
        <pt x="247" y="280" on="0"/>
        <pt x="290" y="232" on="0"/>
        <pt x="289" y="194" on="1"/>
        <pt x="289" y="155" on="0"/>
        <pt x="259" y="75" on="0"/>
        <pt x="259" y="44" on="1"/>
        <pt x="258" y="24" on="0"/>
        <pt x="287" y="2" on="0"/>
        <pt x="321" y="2" on="1"/>
        <pt x="367" y="2" on="1"/>
        <pt x="367" y="-104" on="1"/>
        <pt x="232" y="-104" on="1"/>
        <pt x="158" y="-104" on="0"/>
        <pt x="87" y="-44" on="0"/>
        <pt x="87" y="7" on="1"/>
        <pt x="87" y="29" on="0"/>
        <pt x="98" y="74" on="0"/>
        <pt x="111" y="118" on="0"/>
        <pt x="122" y="160" on="0"/>
        <pt x="122" y="179" on="1"/>
        <pt x="123" y="208" on="0"/>
        <pt x="87" y="239" on="0"/>
        <pt x="41" y="239" on="1"/>
        <pt x="28" y="239" on="1"/>
        <pt x="28" y="348" on="1"/>
        <pt x="54" y="348" on="1"/>
        <pt x="117" y="348" on="0"/>
        <pt x="165" y="405" on="0"/>
        <pt x="165" y="469" on="1"/>
        <pt x="165" y="518" on="1"/>
        <pt x="166" y="599" on="0"/>
        <pt x="252" y="690" on="0"/>
        <pt x="341" y="690" on="1"/>
      </contour>
    </TTGlyph>
    <TTGlyph name="braceleft.flat" xMin="20" yMin="-104" xMax="481" yMax="690">
      <contour>
        <pt x="481" y="690" on="1"/>
        <pt x="465" y="585" on="1"/>
        <pt x="403" y="585" on="1"/>
        <pt x="363" y="585" on="0"/>
        <pt x="331" y="543" on="0"/>
        <pt x="330" y="499" on="1"/>
        <pt x="330" y="453" on="1"/>
        <pt x="329" y="392" on="0"/>
        <pt x="265" y="309" on="0"/>
        <pt x="194" y="296" on="1"/>
        <pt x="194" y="294" on="1"/>
        <pt x="247" y="280" on="0"/>
        <pt x="290" y="232" on="0"/>
        <pt x="289" y="194" on="1"/>
        <pt x="289" y="155" on="0"/>
        <pt x="259" y="75" on="0"/>
        <pt x="259" y="44" on="1"/>
        <pt x="258" y="24" on="0"/>
        <pt x="287" y="2" on="0"/>
        <pt x="321" y="2" on="1"/>
        <pt x="375" y="2" on="1"/>
        <pt x="360" y="-104" on="1"/>
        <pt x="232" y="-104" on="1"/>
        <pt x="158" y="-104" on="0"/>
        <pt x="87" y="-44" on="0"/>
        <pt x="87" y="7" on="1"/>
        <pt x="87" y="29" on="0"/>
        <pt x="98" y="74" on="0"/>
        <pt x="111" y="118" on="0"/>
        <pt x="122" y="160" on="0"/>
        <pt x="122" y="179" on="1"/>
        <pt x="123" y="208" on="0"/>
        <pt x="87" y="239" on="0"/>
        <pt x="41" y="239" on="1"/>
        <pt x="20" y="239" on="1"/>
        <pt x="36" y="348" on="1"/>
        <pt x="54" y="348" on="1"/>
        <pt x="117" y="348" on="0"/>
        <pt x="165" y="405" on="0"/>
        <pt x="165" y="469" on="1"/>
        <pt x="165" y="518" on="1"/>
        <pt x="166" y="599" on="0"/>
        <pt x="252" y="690" on="0"/>
        <pt x="341" y="690" on="1"/>
      </contour>
    </TTGlyph>
    <TTGlyph name="braceright" xMin="-38" yMin="-104" xMax="416" yMax="690">
      <contour>
        <pt x="-38" y="-104" on="1"/>
        <pt x="-22" y="2" on="1"/>
        <pt x="41" y="2" on="1"/>
        <pt x="81" y="2" on="0"/>
        <pt x="113" y="44" on="0"/>
        <pt x="114" y="88" on="1"/>
        <pt x="114" y="133" on="1"/>
        <pt x="115" y="195" on="0"/>
        <pt x="179" y="278" on="0"/>
        <pt x="250" y="291" on="1"/>
        <pt x="250" y="293" on="1"/>
        <pt x="197" y="306" on="0"/>
        <pt x="154" y="354" on="0"/>
        <pt x="155" y="393" on="1"/>
        <pt x="155" y="432" on="0"/>
        <pt x="185" y="511" on="0"/>
        <pt x="185" y="542" on="1"/>
        <pt x="186" y="563" on="0"/>
        <pt x="157" y="585" on="0"/>
        <pt x="123" y="585" on="1"/>
        <pt x="77" y="585" on="1"/>
        <pt x="77" y="690" on="1"/>
        <pt x="212" y="690" on="1"/>
        <pt x="286" y="690" on="0"/>
        <pt x="357" y="630" on="0"/>
        <pt x="357" y="580" on="1"/>
        <pt x="357" y="558" on="0"/>
        <pt x="346" y="513" on="0"/>
        <pt x="333" y="468" on="0"/>
        <pt x="322" y="426" on="0"/>
        <pt x="322" y="407" on="1"/>
        <pt x="321" y="379" on="0"/>
        <pt x="357" y="347" on="0"/>
        <pt x="403" y="347" on="1"/>
        <pt x="416" y="347" on="1"/>
        <pt x="416" y="238" on="1"/>
        <pt x="390" y="238" on="1"/>
        <pt x="327" y="238" on="0"/>
        <pt x="279" y="181" on="0"/>
        <pt x="279" y="118" on="1"/>
        <pt x="279" y="68" on="1"/>
        <pt x="278" y="-13" on="0"/>
        <pt x="192" y="-104" on="0"/>
        <pt x="103" y="-104" on="1"/>
      </contour>
    </TTGlyph>
    <TTGlyph name="braceright.flat" xMin="-37" yMin="-104" xMax="424" yMax="690">
      <contour>
        <pt x="-37" y="-104" on="1"/>
        <pt x="-22" y="2" on="1"/>
        <pt x="41" y="2" on="1"/>
        <pt x="81" y="2" on="0"/>
        <pt x="113" y="44" on="0"/>
        <pt x="114" y="88" on="1"/>
        <pt x="114" y="133" on="1"/>
        <pt x="115" y="195" on="0"/>
        <pt x="179" y="278" on="0"/>
        <pt x="250" y="291" on="1"/>
        <pt x="250" y="293" on="1"/>
        <pt x="197" y="306" on="0"/>
        <pt x="154" y="354" on="0"/>
        <pt x="155" y="393" on="1"/>
        <pt x="155" y="432" on="0"/>
        <pt x="185" y="511" on="0"/>
        <pt x="185" y="542" on="1"/>
        <pt x="186" y="563" on="0"/>
        <pt x="157" y="585" on="0"/>
        <pt x="123" y="585" on="1"/>
        <pt x="69" y="585" on="1"/>
        <pt x="84" y="690" on="1"/>
        <pt x="212" y="690" on="1"/>
        <pt x="286" y="690" on="0"/>
        <pt x="357" y="630" on="0"/>
        <pt x="357" y="580" on="1"/>
        <pt x="357" y="558" on="0"/>
        <pt x="346" y="513" on="0"/>
        <pt x="333" y="468" on="0"/>
        <pt x="322" y="426" on="0"/>
        <pt x="322" y="407" on="1"/>
        <pt x="321" y="379" on="0"/>
        <pt x="357" y="347" on="0"/>
        <pt x="403" y="347" on="1"/>
        <pt x="424" y="347" on="1"/>
        <pt x="408" y="238" on="1"/>
        <pt x="390" y="238" on="1"/>
        <pt x="327" y="238" on="0"/>
        <pt x="279" y="181" on="0"/>
        <pt x="279" y="118" on="1"/>
        <pt x="279" y="68" on="1"/>
        <pt x="278" y="-13" on="0"/>
        <pt x="192" y="-104" on="0"/>
        <pt x="103" y="-104" on="1"/>
      </contour>
    </TTGlyph>
    <TTGlyph name="bracketleft" xMin="-4" yMin="-104" xMax="409" yMax="690">
      <contour>
        <pt x="409" y="690" on="1"/>
        <pt x="394" y="585" on="1"/>
        <pt x="263" y="585" on="1"/>
        <pt x="176" y="2" on="1"/>
        <pt x="296" y="2" on="1"/>
        <pt x="296" y="-104" on="1"/>
        <pt x="-4" y="-104" on="1"/>
        <pt x="116" y="690" on="1"/>
      </contour>
    </TTGlyph>
    <TTGlyph name="bracketleft.flat" xMin="-4" yMin="-104" xMax="409" yMax="690">
      <contour>
        <pt x="409" y="690" on="1"/>
        <pt x="394" y="585" on="1"/>
        <pt x="263" y="585" on="1"/>
        <pt x="176" y="2" on="1"/>
        <pt x="305" y="2" on="1"/>
        <pt x="289" y="-104" on="1"/>
        <pt x="-4" y="-104" on="1"/>
        <pt x="116" y="690" on="1"/>
      </contour>
    </TTGlyph>
    <TTGlyph name="bracketright" xMin="-37" yMin="-104" xMax="376" yMax="690">
      <contour>
        <pt x="376" y="690" on="1"/>
        <pt x="258" y="-104" on="1"/>
        <pt x="-37" y="-104" on="1"/>
        <pt x="-21" y="2" on="1"/>
        <pt x="110" y="2" on="1"/>
        <pt x="197" y="585" on="1"/>
        <pt x="78" y="585" on="1"/>
        <pt x="77" y="690" on="1"/>
      </contour>
    </TTGlyph>
    <TTGlyph name="bracketright.flat" xMin="-37" yMin="-104" xMax="376" yMax="690">
      <contour>
        <pt x="-37" y="-104" on="1"/>
        <pt x="-21" y="2" on="1"/>
        <pt x="110" y="2" on="1"/>
        <pt x="197" y="585" on="1"/>
        <pt x="69" y="585" on="1"/>
        <pt x="84" y="690" on="1"/>
        <pt x="376" y="690" on="1"/>
        <pt x="257" y="-104" on="1"/>
      </contour>
    </TTGlyph>
    <TTGlyph name="breve" xMin="106" yMin="538" xMax="406" yMax="696">
      <contour>
        <pt x="406" y="682" on="1"/>
        <pt x="387" y="611" on="0"/>
        <pt x="304" y="538" on="0"/>
        <pt x="238" y="538" on="1"/>
        <pt x="170" y="538" on="0"/>
        <pt x="106" y="613" on="0"/>
        <pt x="106" y="682" on="1"/>
        <pt x="193" y="696" on="1"/>
        <pt x="197" y="668" on="0"/>
        <pt x="224" y="642" on="0"/>
        <pt x="249" y="642" on="1"/>
        <pt x="273" y="642" on="0"/>
        <pt x="307" y="668" on="0"/>
        <pt x="320" y="696" on="1"/>
      </contour>
    </TTGlyph>
    <TTGlyph name="bullet" xMin="73" yMin="168" xMax="396" yMax="521">
      <contour>
        <pt x="396" y="344" on="1"/>
        <pt x="372" y="190" on="1"/>
        <pt x="235" y="168" on="1"/>
        <pt x="97" y="190" on="1"/>
        <pt x="73" y="344" on="1"/>
        <pt x="97" y="499" on="1"/>
        <pt x="235" y="521" on="1"/>
        <pt x="372" y="499" on="1"/>
      </contour>
    </TTGlyph>
    <TTGlyph name="c" xMin="18" yMin="-9" xMax="411" yMax="504">
      <contour>
        <pt x="411" y="474" on="1"/>
        <pt x="369" y="332" on="1"/>
        <pt x="353" y="342" on="0"/>
        <pt x="317" y="354" on="0"/>
        <pt x="293" y="354" on="1"/>
        <pt x="248" y="354" on="0"/>
        <pt x="191" y="278" on="0"/>
        <pt x="191" y="221" on="1"/>
        <pt x="191" y="178" on="0"/>
        <pt x="235" y="139" on="0"/>
        <pt x="269" y="138" on="1"/>
        <pt x="288" y="138" on="0"/>
        <pt x="325" y="147" on="0"/>
        <pt x="347" y="156" on="1"/>
        <pt x="347" y="18" on="1"/>
        <pt x="324" y="7" on="0"/>
        <pt x="264" y="-9" on="0"/>
        <pt x="224" y="-9" on="1"/>
        <pt x="130" y="-9" on="0"/>
        <pt x="18" y="107" on="0"/>
        <pt x="18" y="206" on="1"/>
        <pt x="18" y="271" on="0"/>
        <pt x="57" y="381" on="0"/>
        <pt x="126" y="460" on="0"/>
        <pt x="224" y="504" on="0"/>
        <pt x="283" y="504" on="1"/>
        <pt x="325" y="504" on="0"/>
        <pt x="387" y="487" on="0"/>
      </contour>
    </TTGlyph>
    <TTGlyph name="cacute" xMin="18" yMin="-9" xMax="484" yMax="695">
      <component glyphName="c" x="0" y="0" flags="0x204"/>
      <component glyphName="acute" x="99" y="3" flags="0x4"/>
    </TTGlyph>
    <TTGlyph name="caron" xMin="88" yMin="540" xMax="423" yMax="691">
      <contour>
        <pt x="88" y="691" on="1"/>
        <pt x="198" y="691" on="1"/>
        <pt x="248" y="637" on="1"/>
        <pt x="314" y="691" on="1"/>
        <pt x="423" y="691" on="1"/>
        <pt x="307" y="540" on="1"/>
        <pt x="162" y="540" on="1"/>
      </contour>
    </TTGlyph>
    <TTGlyph name="caron.alt" xMin="158" yMin="489" xMax="328" yMax="702">
      <contour>
        <pt x="325" y="702" on="1"/>
        <pt x="326" y="693" on="0"/>
        <pt x="328" y="680" on="0"/>
        <pt x="328" y="674" on="1"/>
        <pt x="328" y="623" on="0"/>
        <pt x="288" y="534" on="0"/>
        <pt x="238" y="489" on="1"/>
        <pt x="158" y="506" on="1"/>
        <pt x="180" y="546" on="0"/>
        <pt x="196" y="609" on="0"/>
        <pt x="196" y="632" on="1"/>
        <pt x="196" y="643" on="0"/>
        <pt x="193" y="670" on="0"/>
        <pt x="190" y="685" on="1"/>
      </contour>
    </TTGlyph>
    <TTGlyph name="ccaron" xMin="18" yMin="-9" xMax="469" yMax="694">
      <component glyphName="c" x="0" y="0" flags="0x204"/>
      <component glyphName="caron" x="46" y="3" flags="0x4"/>
    </TTGlyph>
    <TTGlyph name="ccedilla" xMin="18" yMin="-178" xMax="411" yMax="504">
      <component glyphName="c" x="0" y="0" flags="0x204"/>
      <component glyphName="cedilla" x="14" y="-3" flags="0x4"/>
    </TTGlyph>
    <TTGlyph name="cdotaccent" xMin="18" yMin="-9" xMax="411" yMax="686">
      <component glyphName="c" x="0" y="0" flags="0x204"/>
      <component glyphName="dotaccent" x="47" y="3" flags="0x4"/>
    </TTGlyph>
    <TTGlyph name="cedilla" xMin="14" yMin="-175" xMax="271" yMax="-37">
      <contour>
        <pt x="271" y="-71" on="1"/>
        <pt x="120" y="-175" on="1"/>
        <pt x="14" y="-175" on="1"/>
        <pt x="74" y="-37" on="1"/>
      </contour>
    </TTGlyph>
    <TTGlyph name="cent" xMin="34" yMin="-11" xMax="466" yMax="694">
      <contour>
        <pt x="200" y="309" on="1"/>
        <pt x="200" y="280" on="0"/>
        <pt x="218" y="243" on="0"/>
        <pt x="234" y="233" on="1"/>
        <pt x="295" y="456" on="1"/>
        <pt x="252" y="449" on="0"/>
        <pt x="200" y="369" on="0"/>
      </contour>
      <contour>
        <pt x="396" y="115" on="1"/>
        <pt x="371" y="104" on="0"/>
        <pt x="308" y="88" on="0"/>
        <pt x="265" y="87" on="1"/>
        <pt x="238" y="-11" on="1"/>
        <pt x="163" y="7" on="1"/>
        <pt x="187" y="94" on="1"/>
        <pt x="121" y="110" on="0"/>
        <pt x="34" y="211" on="0"/>
        <pt x="34" y="298" on="1"/>
        <pt x="34" y="361" on="0"/>
        <pt x="73" y="471" on="0"/>
        <pt x="145" y="550" on="0"/>
        <pt x="247" y="596" on="0"/>
        <pt x="310" y="596" on="1"/>
        <pt x="314" y="596" on="0"/>
        <pt x="320" y="596" on="0"/>
        <pt x="324" y="596" on="1"/>
        <pt x="351" y="694" on="1"/>
        <pt x="427" y="676" on="1"/>
        <pt x="402" y="585" on="1"/>
        <pt x="420" y="581" on="0"/>
        <pt x="452" y="568" on="0"/>
        <pt x="466" y="561" on="1"/>
        <pt x="421" y="427" on="1"/>
        <pt x="408" y="435" on="0"/>
        <pt x="374" y="448" on="0"/>
        <pt x="356" y="452" on="1"/>
        <pt x="294" y="223" on="1"/>
        <pt x="324" y="224" on="0"/>
        <pt x="371" y="236" on="0"/>
        <pt x="396" y="246" on="1"/>
      </contour>
    </TTGlyph>
    <TTGlyph name="cent.tab" xMin="59" yMin="-11" xMax="485" yMax="694">
      <contour>
        <pt x="216" y="309" on="1"/>
        <pt x="216" y="279" on="0"/>
        <pt x="234" y="241" on="0"/>
        <pt x="252" y="231" on="1"/>
        <pt x="314" y="457" on="1"/>
        <pt x="271" y="451" on="0"/>
        <pt x="216" y="370" on="0"/>
      </contour>
      <contour>
        <pt x="416" y="114" on="1"/>
        <pt x="391" y="104" on="0"/>
        <pt x="328" y="88" on="0"/>
        <pt x="284" y="87" on="1"/>
        <pt x="257" y="-11" on="1"/>
        <pt x="182" y="7" on="1"/>
        <pt x="206" y="95" on="1"/>
        <pt x="142" y="111" on="0"/>
        <pt x="59" y="212" on="0"/>
        <pt x="59" y="296" on="1"/>
        <pt x="59" y="360" on="0"/>
        <pt x="98" y="470" on="0"/>
        <pt x="169" y="550" on="0"/>
        <pt x="269" y="596" on="0"/>
        <pt x="329" y="596" on="1"/>
        <pt x="333" y="596" on="0"/>
        <pt x="339" y="596" on="0"/>
        <pt x="343" y="596" on="1"/>
        <pt x="370" y="694" on="1"/>
        <pt x="446" y="676" on="1"/>
        <pt x="421" y="585" on="1"/>
        <pt x="439" y="581" on="0"/>
        <pt x="471" y="568" on="0"/>
        <pt x="485" y="561" on="1"/>
        <pt x="441" y="427" on="1"/>
        <pt x="427" y="436" on="0"/>
        <pt x="394" y="449" on="0"/>
        <pt x="375" y="453" on="1"/>
        <pt x="313" y="222" on="1"/>
        <pt x="342" y="223" on="0"/>
        <pt x="390" y="236" on="0"/>
        <pt x="415" y="246" on="1"/>
      </contour>
    </TTGlyph>
    <TTGlyph name="circumflex" xMin="69" yMin="540" xMax="404" yMax="691">
      <contour>
        <pt x="404" y="540" on="1"/>
        <pt x="295" y="540" on="1"/>
        <pt x="245" y="594" on="1"/>
        <pt x="179" y="540" on="1"/>
        <pt x="69" y="540" on="1"/>
        <pt x="185" y="691" on="1"/>
        <pt x="330" y="691" on="1"/>
      </contour>
    </TTGlyph>
    <TTGlyph name="colon" xMin="-2" yMin="0" xMax="253" yMax="495">
      <contour>
        <pt x="253" y="495" on="1"/>
        <pt x="224" y="302" on="1"/>
        <pt x="44" y="302" on="1"/>
        <pt x="73" y="495" on="1"/>
      </contour>
      <contour>
        <pt x="207" y="194" on="1"/>
        <pt x="178" y="0" on="1"/>
        <pt x="-2" y="0" on="1"/>
        <pt x="28" y="194" on="1"/>
      </contour>
    </TTGlyph>
    <TTGlyph name="colon.tab" xMin="-1" yMin="0" xMax="247" yMax="495">
      <contour>
        <pt x="218" y="300" on="1"/>
        <pt x="44" y="300" on="1"/>
        <pt x="74" y="495" on="1"/>
        <pt x="247" y="495" on="1"/>
      </contour>
      <contour>
        <pt x="173" y="0" on="1"/>
        <pt x="-1" y="0" on="1"/>
        <pt x="29" y="196" on="1"/>
        <pt x="202" y="196" on="1"/>
      </contour>
    </TTGlyph>
    <TTGlyph name="colonmonetary" xMin="29" yMin="-116" xMax="582" yMax="763">
      <contour>
        <pt x="315" y="-116" on="1"/>
        <pt x="246" y="-96" on="1"/>
        <pt x="275" y="-3" on="1"/>
        <pt x="263" y="-2" on="0"/>
        <pt x="239" y="1" on="0"/>
        <pt x="227" y="3" on="1"/>
        <pt x="192" y="-111" on="1"/>
        <pt x="123" y="-91" on="1"/>
        <pt x="160" y="27" on="1"/>
        <pt x="100" y="59" on="0"/>
        <pt x="29" y="189" on="0"/>
        <pt x="29" y="285" on="1"/>
        <pt x="29" y="373" on="0"/>
        <pt x="76" y="521" on="0"/>
        <pt x="161" y="628" on="0"/>
        <pt x="283" y="688" on="0"/>
        <pt x="358" y="688" on="1"/>
        <pt x="360" y="688" on="0"/>
        <pt x="366" y="688" on="0"/>
        <pt x="368" y="688" on="1"/>
        <pt x="391" y="763" on="1"/>
        <pt x="459" y="744" on="1"/>
        <pt x="439" y="678" on="1"/>
        <pt x="451" y="676" on="0"/>
        <pt x="474" y="669" on="0"/>
        <pt x="485" y="665" on="1"/>
        <pt x="514" y="758" on="1"/>
        <pt x="582" y="739" on="1"/>
        <pt x="399" y="152" on="1"/>
        <pt x="413" y="156" on="0"/>
        <pt x="442" y="167" on="0"/>
        <pt x="457" y="174" on="1"/>
        <pt x="457" y="30" on="1"/>
        <pt x="435" y="20" on="0"/>
        <pt x="383" y="3" on="0"/>
        <pt x="351" y="-1" on="1"/>
      </contour>
      <contour>
        <pt x="200" y="288" on="1"/>
        <pt x="200" y="254" on="0"/>
        <pt x="212" y="204" on="0"/>
        <pt x="223" y="187" on="1"/>
        <pt x="334" y="541" on="1"/>
        <pt x="302" y="535" on="0"/>
        <pt x="251" y="488" on="0"/>
        <pt x="217" y="419" on="0"/>
        <pt x="200" y="333" on="0"/>
      </contour>
      <contour>
        <pt x="323" y="141" on="1"/>
        <pt x="327" y="141" on="0"/>
        <pt x="334" y="141" on="0"/>
        <pt x="338" y="141" on="1"/>
        <pt x="456" y="517" on="1"/>
        <pt x="441" y="525" on="0"/>
        <pt x="407" y="537" on="0"/>
        <pt x="390" y="540" on="1"/>
        <pt x="268" y="150" on="1"/>
        <pt x="281" y="146" on="0"/>
        <pt x="308" y="141" on="0"/>
      </contour>
    </TTGlyph>
    <TTGlyph name="comma" xMin="-40" yMin="-136" xMax="226" yMax="195">
      <contour>
        <pt x="226" y="195" on="1"/>
        <pt x="56" y="-136" on="1"/>
        <pt x="-40" y="-111" on="1"/>
        <pt x="35" y="195" on="1"/>
      </contour>
    </TTGlyph>
    <TTGlyph name="comma.alt" xMin="-52" yMin="-137" xMax="204" yMax="195">
      <contour>
        <pt x="24" y="195" on="1"/>
        <pt x="201" y="195" on="1"/>
        <pt x="202" y="186" on="0"/>
        <pt x="204" y="167" on="0"/>
        <pt x="204" y="157" on="1"/>
        <pt x="204" y="80" on="0"/>
        <pt x="125" y="-59" on="0"/>
        <pt x="38" y="-137" on="1"/>
        <pt x="-52" y="-103" on="1"/>
        <pt x="-6" y="-29" on="0"/>
        <pt x="27" y="96" on="0"/>
        <pt x="27" y="146" on="1"/>
        <pt x="27" y="158" on="0"/>
        <pt x="25" y="183" on="0"/>
      </contour>
    </TTGlyph>
    <TTGlyph name="comma.tab" xMin="-42" yMin="-138" xMax="226" yMax="200">
      <contour>
        <pt x="226" y="200" on="1"/>
        <pt x="58" y="-138" on="1"/>
        <pt x="-42" y="-118" on="1"/>
        <pt x="39" y="200" on="1"/>
      </contour>
    </TTGlyph>
    <TTGlyph name="comma.tab_alt" xMin="-49" yMin="-139" xMax="204" yMax="200">
      <contour>
        <pt x="29" y="200" on="1"/>
        <pt x="201" y="200" on="1"/>
        <pt x="202" y="191" on="0"/>
        <pt x="204" y="172" on="0"/>
        <pt x="204" y="163" on="1"/>
        <pt x="204" y="86" on="0"/>
        <pt x="126" y="-56" on="0"/>
        <pt x="32" y="-139" on="1"/>
        <pt x="-49" y="-104" on="1"/>
        <pt x="-1" y="-30" on="0"/>
        <pt x="32" y="90" on="0"/>
        <pt x="32" y="147" on="1"/>
        <pt x="32" y="160" on="0"/>
        <pt x="30" y="187" on="0"/>
      </contour>
    </TTGlyph>
    <TTGlyph name="commaaccent" xMin="49" yMin="-246" xMax="264" yMax="-37">
      <contour>
        <pt x="88" y="-62" on="1"/>
        <pt x="237" y="-37" on="1"/>
        <pt x="250" y="-53" on="0"/>
        <pt x="264" y="-86" on="0"/>
        <pt x="264" y="-104" on="1"/>
        <pt x="264" y="-141" on="0"/>
        <pt x="208" y="-214" on="0"/>
        <pt x="153" y="-246" on="1"/>
        <pt x="49" y="-229" on="1"/>
        <pt x="82" y="-197" on="0"/>
        <pt x="110" y="-148" on="0"/>
        <pt x="110" y="-123" on="1"/>
        <pt x="110" y="-110" on="0"/>
        <pt x="100" y="-80" on="0"/>
      </contour>
    </TTGlyph>
    <TTGlyph name="commaaccent.rot" xMin="231" yMin="534" xMax="446" yMax="743">
      <contour>
        <pt x="406" y="559" on="1"/>
        <pt x="258" y="534" on="1"/>
        <pt x="245" y="550" on="0"/>
        <pt x="231" y="583" on="0"/>
        <pt x="231" y="601" on="1"/>
        <pt x="231" y="638" on="0"/>
        <pt x="286" y="711" on="0"/>
        <pt x="342" y="743" on="1"/>
        <pt x="446" y="726" on="1"/>
        <pt x="412" y="694" on="0"/>
        <pt x="384" y="645" on="0"/>
        <pt x="384" y="620" on="1"/>
        <pt x="384" y="607" on="0"/>
        <pt x="394" y="577" on="0"/>
      </contour>
    </TTGlyph>
    <TTGlyph name="copyright" xMin="62" yMin="-18" xMax="685" yMax="708">
      <contour>
        <pt x="685" y="346" on="1"/>
        <pt x="685" y="265" on="0"/>
        <pt x="639" y="131" on="0"/>
        <pt x="557" y="35" on="0"/>
        <pt x="442" y="-18" on="0"/>
        <pt x="373" y="-18" on="1"/>
        <pt x="303" y="-18" on="0"/>
        <pt x="188" y="35" on="0"/>
        <pt x="107" y="129" on="0"/>
        <pt x="62" y="263" on="0"/>
        <pt x="62" y="344" on="1"/>
        <pt x="62" y="425" on="0"/>
        <pt x="107" y="560" on="0"/>
        <pt x="189" y="655" on="0"/>
        <pt x="305" y="708" on="0"/>
        <pt x="374" y="708" on="1"/>
        <pt x="443" y="708" on="0"/>
        <pt x="559" y="655" on="0"/>
        <pt x="640" y="561" on="0"/>
        <pt x="685" y="427" on="0"/>
      </contour>
      <contour>
        <pt x="642" y="345" on="1"/>
        <pt x="642" y="422" on="0"/>
        <pt x="600" y="544" on="0"/>
        <pt x="528" y="628" on="0"/>
        <pt x="430" y="672" on="0"/>
        <pt x="374" y="672" on="1"/>
        <pt x="317" y="672" on="0"/>
        <pt x="219" y="628" on="0"/>
        <pt x="146" y="544" on="0"/>
        <pt x="105" y="422" on="0"/>
        <pt x="105" y="345" on="1"/>
        <pt x="105" y="268" on="0"/>
        <pt x="147" y="146" on="0"/>
        <pt x="219" y="63" on="0"/>
        <pt x="318" y="19" on="0"/>
        <pt x="374" y="19" on="1"/>
        <pt x="430" y="19" on="0"/>
        <pt x="528" y="63" on="0"/>
        <pt x="600" y="146" on="0"/>
        <pt x="642" y="268" on="0"/>
      </contour>
      <contour>
        <pt x="509" y="165" on="1"/>
        <pt x="481" y="151" on="0"/>
        <pt x="427" y="138" on="0"/>
        <pt x="393" y="138" on="1"/>
        <pt x="303" y="138" on="0"/>
        <pt x="205" y="249" on="0"/>
        <pt x="205" y="348" on="1"/>
        <pt x="205" y="446" on="0"/>
        <pt x="307" y="559" on="0"/>
        <pt x="393" y="559" on="1"/>
        <pt x="427" y="559" on="0"/>
        <pt x="479" y="546" on="0"/>
        <pt x="503" y="536" on="1"/>
        <pt x="486" y="427" on="1"/>
        <pt x="464" y="441" on="0"/>
        <pt x="429" y="452" on="0"/>
        <pt x="410" y="452" on="1"/>
        <pt x="376" y="452" on="0"/>
        <pt x="339" y="399" on="0"/>
        <pt x="339" y="349" on="1"/>
        <pt x="339" y="298" on="0"/>
        <pt x="379" y="245" on="0"/>
        <pt x="417" y="245" on="1"/>
        <pt x="433" y="245" on="0"/>
        <pt x="468" y="255" on="0"/>
        <pt x="493" y="268" on="1"/>
      </contour>
    </TTGlyph>
    <TTGlyph name="d" xMin="16" yMin="-10" xMax="529" yMax="722">
      <contour>
        <pt x="305" y="362" on="1"/>
        <pt x="300" y="364" on="0"/>
        <pt x="287" y="366" on="0"/>
        <pt x="283" y="366" on="1"/>
        <pt x="245" y="366" on="0"/>
        <pt x="190" y="274" on="0"/>
        <pt x="190" y="203" on="1"/>
        <pt x="190" y="172" on="0"/>
        <pt x="208" y="144" on="0"/>
        <pt x="223" y="144" on="1"/>
        <pt x="235" y="144" on="0"/>
        <pt x="260" y="160" on="0"/>
        <pt x="277" y="179" on="1"/>
      </contour>
      <contour>
        <pt x="529" y="722" on="1"/>
        <pt x="439" y="122" on="1"/>
        <pt x="439" y="0" on="1"/>
        <pt x="274" y="0" on="1"/>
        <pt x="269" y="77" on="1"/>
        <pt x="235" y="36" on="0"/>
        <pt x="175" y="-10" on="0"/>
        <pt x="139" y="-10" on="1"/>
        <pt x="82" y="-10" on="0"/>
        <pt x="16" y="84" on="0"/>
        <pt x="16" y="165" on="1"/>
        <pt x="16" y="247" on="0"/>
        <pt x="58" y="373" on="0"/>
        <pt x="130" y="457" on="0"/>
        <pt x="229" y="500" on="0"/>
        <pt x="285" y="500" on="1"/>
        <pt x="295" y="500" on="0"/>
        <pt x="315" y="498" on="0"/>
        <pt x="325" y="497" on="1"/>
        <pt x="354" y="695" on="1"/>
      </contour>
    </TTGlyph>
    <TTGlyph name="dagger" xMin="55" yMin="-108" xMax="462" yMax="691">
      <contour>
        <pt x="347" y="617" on="1"/>
        <pt x="278" y="488" on="1"/>
        <pt x="250" y="488" on="1"/>
        <pt x="220" y="617" on="1"/>
        <pt x="231" y="691" on="1"/>
        <pt x="359" y="691" on="1"/>
      </contour>
      <contour>
        <pt x="220" y="437" on="1"/>
        <pt x="95" y="389" on="1"/>
        <pt x="55" y="389" on="1"/>
        <pt x="74" y="514" on="1"/>
        <pt x="113" y="514" on="1"/>
        <pt x="225" y="465" on="1"/>
      </contour>
      <contour>
        <pt x="443" y="389" on="1"/>
        <pt x="404" y="389" on="1"/>
        <pt x="292" y="437" on="1"/>
        <pt x="297" y="465" on="1"/>
        <pt x="422" y="514" on="1"/>
        <pt x="462" y="514" on="1"/>
      </contour>
      <contour>
        <pt x="254" y="17" on="1"/>
        <pt x="189" y="-108" on="1"/>
        <pt x="162" y="-108" on="1"/>
        <pt x="134" y="17" on="1"/>
        <pt x="175" y="292" on="1"/>
        <pt x="239" y="415" on="1"/>
        <pt x="267" y="415" on="1"/>
        <pt x="294" y="292" on="1"/>
      </contour>
    </TTGlyph>
    <TTGlyph name="daggerdbl" xMin="2" yMin="-175" xMax="466" yMax="691">
      <contour>
        <pt x="351" y="617" on="1"/>
        <pt x="282" y="488" on="1"/>
        <pt x="254" y="488" on="1"/>
        <pt x="223" y="617" on="1"/>
        <pt x="235" y="691" on="1"/>
        <pt x="362" y="691" on="1"/>
      </contour>
      <contour>
        <pt x="447" y="389" on="1"/>
        <pt x="408" y="389" on="1"/>
        <pt x="296" y="437" on="1"/>
        <pt x="301" y="465" on="1"/>
        <pt x="427" y="514" on="1"/>
        <pt x="466" y="514" on="1"/>
      </contour>
      <contour>
        <pt x="225" y="437" on="1"/>
        <pt x="99" y="389" on="1"/>
        <pt x="59" y="389" on="1"/>
        <pt x="78" y="514" on="1"/>
        <pt x="118" y="514" on="1"/>
        <pt x="229" y="465" on="1"/>
      </contour>
      <contour>
        <pt x="289" y="225" on="1"/>
        <pt x="225" y="102" on="1"/>
        <pt x="196" y="102" on="1"/>
        <pt x="170" y="225" on="1"/>
        <pt x="179" y="292" on="1"/>
        <pt x="243" y="415" on="1"/>
        <pt x="272" y="415" on="1"/>
        <pt x="299" y="292" on="1"/>
      </contour>
      <contour>
        <pt x="390" y="3" on="1"/>
        <pt x="350" y="3" on="1"/>
        <pt x="239" y="52" on="1"/>
        <pt x="243" y="80" on="1"/>
        <pt x="369" y="128" on="1"/>
        <pt x="409" y="128" on="1"/>
      </contour>
      <contour>
        <pt x="167" y="52" on="1"/>
        <pt x="41" y="3" on="1"/>
        <pt x="2" y="3" on="1"/>
        <pt x="21" y="128" on="1"/>
        <pt x="60" y="128" on="1"/>
        <pt x="171" y="80" on="1"/>
      </contour>
      <contour>
        <pt x="233" y="-175" on="1"/>
        <pt x="106" y="-175" on="1"/>
        <pt x="117" y="-100" on="1"/>
        <pt x="186" y="30" on="1"/>
        <pt x="214" y="30" on="1"/>
        <pt x="244" y="-100" on="1"/>
      </contour>
    </TTGlyph>
    <TTGlyph name="dcaron" xMin="16" yMin="-10" xMax="695" yMax="723">
      <component glyphName="d" x="0" y="0" flags="0x204"/>
      <component glyphName="caron.alt" x="367" y="21" flags="0x4"/>
    </TTGlyph>
    <TTGlyph name="dcroat" xMin="15" yMin="-10" xMax="574" yMax="722">
      <contour>
        <pt x="304" y="362" on="1"/>
        <pt x="299" y="364" on="0"/>
        <pt x="286" y="366" on="0"/>
        <pt x="282" y="366" on="1"/>
        <pt x="244" y="366" on="0"/>
        <pt x="189" y="274" on="0"/>
        <pt x="189" y="203" on="1"/>
        <pt x="189" y="172" on="0"/>
        <pt x="207" y="144" on="0"/>
        <pt x="222" y="144" on="1"/>
        <pt x="234" y="144" on="0"/>
        <pt x="259" y="160" on="0"/>
        <pt x="276" y="179" on="1"/>
      </contour>
      <contour>
        <pt x="268" y="77" on="1"/>
        <pt x="234" y="36" on="0"/>
        <pt x="174" y="-10" on="0"/>
        <pt x="138" y="-10" on="1"/>
        <pt x="81" y="-10" on="0"/>
        <pt x="15" y="84" on="0"/>
        <pt x="15" y="165" on="1"/>
        <pt x="15" y="247" on="0"/>
        <pt x="57" y="373" on="0"/>
        <pt x="129" y="457" on="0"/>
        <pt x="228" y="500" on="0"/>
        <pt x="284" y="500" on="1"/>
        <pt x="294" y="500" on="0"/>
        <pt x="314" y="498" on="0"/>
        <pt x="324" y="497" on="1"/>
        <pt x="331" y="545" on="1"/>
        <pt x="243" y="545" on="1"/>
        <pt x="243" y="646" on="1"/>
        <pt x="346" y="646" on="1"/>
        <pt x="353" y="695" on="1"/>
        <pt x="528" y="722" on="1"/>
        <pt x="517" y="646" on="1"/>
        <pt x="574" y="646" on="1"/>
        <pt x="557" y="544" on="1"/>
        <pt x="501" y="544" on="1"/>
        <pt x="438" y="122" on="1"/>
        <pt x="438" y="0" on="1"/>
        <pt x="273" y="0" on="1"/>
      </contour>
    </TTGlyph>
    <TTGlyph name="dcroat.flat" xMin="15" yMin="-10" xMax="574" yMax="722">
      <contour>
        <pt x="304" y="362" on="1"/>
        <pt x="299" y="364" on="0"/>
        <pt x="286" y="366" on="0"/>
        <pt x="282" y="366" on="1"/>
        <pt x="244" y="366" on="0"/>
        <pt x="189" y="274" on="0"/>
        <pt x="189" y="203" on="1"/>
        <pt x="189" y="172" on="0"/>
        <pt x="207" y="144" on="0"/>
        <pt x="222" y="144" on="1"/>
        <pt x="234" y="144" on="0"/>
        <pt x="259" y="160" on="0"/>
        <pt x="276" y="179" on="1"/>
      </contour>
      <contour>
        <pt x="268" y="77" on="1"/>
        <pt x="234" y="36" on="0"/>
        <pt x="174" y="-10" on="0"/>
        <pt x="138" y="-10" on="1"/>
        <pt x="81" y="-10" on="0"/>
        <pt x="15" y="84" on="0"/>
        <pt x="15" y="165" on="1"/>
        <pt x="15" y="247" on="0"/>
        <pt x="57" y="373" on="0"/>
        <pt x="129" y="457" on="0"/>
        <pt x="228" y="500" on="0"/>
        <pt x="284" y="500" on="1"/>
        <pt x="294" y="500" on="0"/>
        <pt x="314" y="498" on="0"/>
        <pt x="324" y="497" on="1"/>
        <pt x="331" y="545" on="1"/>
        <pt x="235" y="545" on="1"/>
        <pt x="251" y="646" on="1"/>
        <pt x="346" y="646" on="1"/>
        <pt x="353" y="695" on="1"/>
        <pt x="528" y="722" on="1"/>
        <pt x="517" y="646" on="1"/>
        <pt x="574" y="646" on="1"/>
        <pt x="557" y="544" on="1"/>
        <pt x="501" y="544" on="1"/>
        <pt x="438" y="122" on="1"/>
        <pt x="438" y="0" on="1"/>
        <pt x="273" y="0" on="1"/>
      </contour>
    </TTGlyph>
    <TTGlyph name="degree" xMin="73" yMin="352" xMax="412" yMax="690">
      <contour>
        <pt x="412" y="520" on="1"/>
        <pt x="412" y="447" on="0"/>
        <pt x="316" y="352" on="0"/>
        <pt x="243" y="352" on="1"/>
        <pt x="169" y="352" on="0"/>
        <pt x="73" y="447" on="0"/>
        <pt x="73" y="520" on="1"/>
        <pt x="73" y="593" on="0"/>
        <pt x="169" y="690" on="0"/>
        <pt x="243" y="690" on="1"/>
        <pt x="316" y="690" on="0"/>
        <pt x="412" y="593" on="0"/>
      </contour>
      <contour>
        <pt x="315" y="520" on="1"/>
        <pt x="315" y="554" on="0"/>
        <pt x="276" y="600" on="0"/>
        <pt x="243" y="600" on="1"/>
        <pt x="210" y="600" on="0"/>
        <pt x="171" y="554" on="0"/>
        <pt x="171" y="520" on="1"/>
        <pt x="171" y="486" on="0"/>
        <pt x="210" y="441" on="0"/>
        <pt x="243" y="441" on="1"/>
        <pt x="276" y="441" on="0"/>
        <pt x="315" y="486" on="0"/>
      </contour>
    </TTGlyph>
    <TTGlyph name="degree.tab" xMin="87" yMin="322" xMax="461" yMax="695">
      <contour>
        <pt x="274" y="322" on="1"/>
        <pt x="193" y="322" on="0"/>
        <pt x="87" y="427" on="0"/>
        <pt x="87" y="508" on="1"/>
        <pt x="87" y="589" on="0"/>
        <pt x="193" y="695" on="0"/>
        <pt x="274" y="695" on="1"/>
        <pt x="355" y="695" on="0"/>
        <pt x="461" y="589" on="0"/>
        <pt x="461" y="508" on="1"/>
        <pt x="461" y="427" on="0"/>
        <pt x="355" y="322" on="0"/>
      </contour>
      <contour>
        <pt x="274" y="606" on="1"/>
        <pt x="234" y="606" on="0"/>
        <pt x="185" y="550" on="0"/>
        <pt x="185" y="508" on="1"/>
        <pt x="185" y="466" on="0"/>
        <pt x="234" y="412" on="0"/>
        <pt x="274" y="412" on="1"/>
        <pt x="315" y="412" on="0"/>
        <pt x="364" y="466" on="0"/>
        <pt x="364" y="508" on="1"/>
        <pt x="364" y="550" on="0"/>
        <pt x="315" y="606" on="0"/>
      </contour>
    </TTGlyph>
    <TTGlyph name="dieresis" xMin="78" yMin="540" xMax="414" yMax="683">
      <contour>
        <pt x="210" y="540" on="1"/>
        <pt x="78" y="540" on="1"/>
        <pt x="99" y="683" on="1"/>
        <pt x="232" y="683" on="1"/>
      </contour>
      <contour>
        <pt x="392" y="540" on="1"/>
        <pt x="259" y="540" on="1"/>
        <pt x="281" y="683" on="1"/>
        <pt x="414" y="683" on="1"/>
      </contour>
    </TTGlyph>
    <TTGlyph name="divide" xMin="44" yMin="82" xMax="490" yMax="601">
      <contour>
        <pt x="358" y="464" on="1"/>
        <pt x="213" y="464" on="1"/>
        <pt x="234" y="601" on="1"/>
        <pt x="379" y="601" on="1"/>
      </contour>
      <contour>
        <pt x="470" y="276" on="1"/>
        <pt x="44" y="276" on="1"/>
        <pt x="64" y="407" on="1"/>
        <pt x="490" y="407" on="1"/>
      </contour>
      <contour>
        <pt x="300" y="82" on="1"/>
        <pt x="155" y="82" on="1"/>
        <pt x="176" y="219" on="1"/>
        <pt x="321" y="219" on="1"/>
      </contour>
    </TTGlyph>
    <TTGlyph name="divide.tab" xMin="34" yMin="86" xMax="480" yMax="601">
      <contour>
        <pt x="349" y="468" on="1"/>
        <pt x="203" y="468" on="1"/>
        <pt x="223" y="601" on="1"/>
        <pt x="369" y="601" on="1"/>
      </contour>
      <contour>
        <pt x="460" y="279" on="1"/>
        <pt x="34" y="279" on="1"/>
        <pt x="54" y="407" on="1"/>
        <pt x="480" y="407" on="1"/>
      </contour>
      <contour>
        <pt x="291" y="86" on="1"/>
        <pt x="145" y="86" on="1"/>
        <pt x="165" y="218" on="1"/>
        <pt x="311" y="218" on="1"/>
      </contour>
    </TTGlyph>
    <TTGlyph name="dollar" xMin="-9" yMin="-123" xMax="533" yMax="763">
      <contour>
        <pt x="229" y="493" on="1"/>
        <pt x="229" y="478" on="0"/>
        <pt x="249" y="456" on="0"/>
        <pt x="274" y="443" on="1"/>
        <pt x="304" y="544" on="1"/>
        <pt x="302" y="544" on="0"/>
        <pt x="296" y="544" on="0"/>
        <pt x="294" y="544" on="1"/>
        <pt x="262" y="544" on="0"/>
        <pt x="229" y="515" on="0"/>
      </contour>
      <contour>
        <pt x="263" y="141" on="1"/>
        <pt x="297" y="141" on="0"/>
        <pt x="332" y="171" on="0"/>
        <pt x="332" y="196" on="1"/>
        <pt x="332" y="213" on="0"/>
        <pt x="310" y="236" on="0"/>
        <pt x="279" y="252" on="1"/>
        <pt x="245" y="142" on="1"/>
        <pt x="249" y="141" on="0"/>
        <pt x="259" y="141" on="0"/>
      </contour>
      <contour>
        <pt x="259" y="-5" on="1"/>
        <pt x="246" y="-5" on="0"/>
        <pt x="221" y="-4" on="0"/>
        <pt x="209" y="-3" on="1"/>
        <pt x="173" y="-123" on="1"/>
        <pt x="98" y="-103" on="1"/>
        <pt x="134" y="11" on="1"/>
        <pt x="92" y="22" on="0"/>
        <pt x="21" y="56" on="0"/>
        <pt x="-9" y="73" on="1"/>
        <pt x="44" y="221" on="1"/>
        <pt x="75" y="199" on="0"/>
        <pt x="149" y="163" on="0"/>
        <pt x="185" y="153" on="1"/>
        <pt x="224" y="280" on="1"/>
        <pt x="222" y="281" on="1"/>
        <pt x="142" y="319" on="0"/>
        <pt x="69" y="404" on="0"/>
        <pt x="69" y="470" on="1"/>
        <pt x="69" y="570" on="0"/>
        <pt x="199" y="688" on="0"/>
        <pt x="305" y="688" on="1"/>
        <pt x="314" y="688" on="0"/>
        <pt x="332" y="688" on="0"/>
        <pt x="340" y="687" on="1"/>
        <pt x="364" y="763" on="1"/>
        <pt x="439" y="743" on="1"/>
        <pt x="417" y="673" on="1"/>
        <pt x="450" y="665" on="0"/>
        <pt x="508" y="639" on="0"/>
        <pt x="533" y="624" on="1"/>
        <pt x="482" y="475" on="1"/>
        <pt x="457" y="494" on="0"/>
        <pt x="395" y="524" on="0"/>
        <pt x="364" y="533" on="1"/>
        <pt x="329" y="415" on="1"/>
        <pt x="331" y="414" on="1"/>
        <pt x="411" y="376" on="0"/>
        <pt x="491" y="286" on="0"/>
        <pt x="491" y="216" on="1"/>
        <pt x="491" y="110" on="0"/>
        <pt x="362" y="-5" on="0"/>
      </contour>
    </TTGlyph>
    <TTGlyph name="dollar.tab" xMin="-16" yMin="-119" xMax="506" yMax="759">
      <contour>
        <pt x="219" y="495" on="1"/>
        <pt x="219" y="476" on="0"/>
        <pt x="239" y="450" on="0"/>
        <pt x="263" y="436" on="1"/>
        <pt x="299" y="554" on="1"/>
        <pt x="295" y="555" on="0"/>
        <pt x="286" y="555" on="0"/>
        <pt x="282" y="555" on="1"/>
        <pt x="248" y="555" on="0"/>
        <pt x="219" y="518" on="0"/>
      </contour>
      <contour>
        <pt x="238" y="129" on="1"/>
        <pt x="271" y="129" on="0"/>
        <pt x="308" y="166" on="0"/>
        <pt x="308" y="194" on="1"/>
        <pt x="308" y="210" on="0"/>
        <pt x="292" y="240" on="0"/>
        <pt x="264" y="258" on="1"/>
        <pt x="224" y="130" on="1"/>
        <pt x="228" y="129" on="0"/>
        <pt x="234" y="129" on="0"/>
      </contour>
      <contour>
        <pt x="233" y="-7" on="1"/>
        <pt x="223" y="-7" on="0"/>
        <pt x="201" y="-6" on="0"/>
        <pt x="191" y="-5" on="1"/>
        <pt x="156" y="-119" on="1"/>
        <pt x="77" y="-99" on="1"/>
        <pt x="112" y="13" on="1"/>
        <pt x="74" y="25" on="0"/>
        <pt x="9" y="59" on="0"/>
        <pt x="-16" y="75" on="1"/>
        <pt x="30" y="215" on="1"/>
        <pt x="58" y="194" on="0"/>
        <pt x="128" y="156" on="0"/>
        <pt x="163" y="144" on="1"/>
        <pt x="208" y="288" on="1"/>
        <pt x="136" y="323" on="0"/>
        <pt x="66" y="403" on="0"/>
        <pt x="66" y="474" on="1"/>
        <pt x="66" y="518" on="0"/>
        <pt x="94" y="597" on="0"/>
        <pt x="150" y="654" on="0"/>
        <pt x="235" y="688" on="0"/>
        <pt x="291" y="688" on="1"/>
        <pt x="301" y="688" on="0"/>
        <pt x="323" y="687" on="0"/>
        <pt x="333" y="686" on="1"/>
        <pt x="356" y="759" on="1"/>
        <pt x="434" y="739" on="1"/>
        <pt x="411" y="669" on="1"/>
        <pt x="436" y="660" on="0"/>
        <pt x="484" y="636" on="0"/>
        <pt x="506" y="623" on="1"/>
        <pt x="459" y="480" on="1"/>
        <pt x="441" y="495" on="0"/>
        <pt x="388" y="526" on="0"/>
        <pt x="359" y="537" on="1"/>
        <pt x="318" y="405" on="1"/>
        <pt x="398" y="365" on="0"/>
        <pt x="462" y="279" on="0"/>
        <pt x="462" y="215" on="1"/>
        <pt x="462" y="114" on="0"/>
        <pt x="335" y="-6" on="0"/>
      </contour>
    </TTGlyph>
    <TTGlyph name="dotaccent" xMin="164" yMin="540" xMax="325" yMax="683">
      <contour>
        <pt x="303" y="540" on="1"/>
        <pt x="164" y="540" on="1"/>
        <pt x="186" y="683" on="1"/>
        <pt x="325" y="683" on="1"/>
      </contour>
    </TTGlyph>
    <TTGlyph name="dotlessi" xMin="1" yMin="0" xMax="250" yMax="495">
      <contour>
        <pt x="250" y="495" on="1"/>
        <pt x="175" y="0" on="1"/>
        <pt x="1" y="0" on="1"/>
        <pt x="77" y="495" on="1"/>
      </contour>
    </TTGlyph>
    <TTGlyph name="e" xMin="17" yMin="-10" xMax="446" yMax="505">
      <contour>
        <pt x="258" y="389" on="1"/>
        <pt x="235" y="389" on="0"/>
        <pt x="199" y="336" on="0"/>
        <pt x="189" y="297" on="1"/>
        <pt x="290" y="297" on="1"/>
        <pt x="298" y="338" on="0"/>
        <pt x="283" y="389" on="0"/>
      </contour>
      <contour>
        <pt x="404" y="32" on="1"/>
        <pt x="363" y="13" on="0"/>
        <pt x="279" y="-10" on="0"/>
        <pt x="230" y="-10" on="1"/>
        <pt x="132" y="-10" on="0"/>
        <pt x="17" y="107" on="0"/>
        <pt x="17" y="202" on="1"/>
        <pt x="17" y="265" on="0"/>
        <pt x="54" y="376" on="0"/>
        <pt x="121" y="458" on="0"/>
        <pt x="215" y="505" on="0"/>
        <pt x="271" y="505" on="1"/>
        <pt x="357" y="505" on="0"/>
        <pt x="446" y="399" on="0"/>
        <pt x="446" y="318" on="1"/>
        <pt x="446" y="290" on="0"/>
        <pt x="437" y="228" on="0"/>
        <pt x="430" y="202" on="1"/>
        <pt x="180" y="202" on="1"/>
        <pt x="182" y="154" on="0"/>
        <pt x="227" y="115" on="0"/>
        <pt x="266" y="115" on="1"/>
        <pt x="301" y="115" on="0"/>
        <pt x="370" y="135" on="0"/>
        <pt x="404" y="151" on="1"/>
      </contour>
    </TTGlyph>
    <TTGlyph name="eacute" xMin="17" yMin="-10" xMax="484" yMax="695">
      <component glyphName="e" x="0" y="0" flags="0x204"/>
      <component glyphName="acute" x="99" y="3" flags="0x4"/>
    </TTGlyph>
    <TTGlyph name="ebreve" xMin="17" yMin="-10" xMax="455" yMax="699">
      <component glyphName="e" x="0" y="0" flags="0x204"/>
      <component glyphName="breve" x="49" y="3" flags="0x4"/>
    </TTGlyph>
    <TTGlyph name="ecaron" xMin="17" yMin="-10" xMax="468" yMax="694">
      <component glyphName="e" x="0" y="0" flags="0x204"/>
      <component glyphName="caron" x="45" y="3" flags="0x4"/>
    </TTGlyph>
    <TTGlyph name="ecircumflex" xMin="17" yMin="-10" xMax="446" yMax="694">
      <component glyphName="e" x="0" y="0" flags="0x204"/>
      <component glyphName="circumflex" x="42" y="3" flags="0x4"/>
    </TTGlyph>
    <TTGlyph name="edieresis" xMin="17" yMin="-10" xMax="458" yMax="686">
      <component glyphName="e" x="0" y="0" flags="0x204"/>
      <component glyphName="dieresis" x="44" y="3" flags="0x4"/>
    </TTGlyph>
    <TTGlyph name="edotaccent" xMin="17" yMin="-10" xMax="446" yMax="686">
      <component glyphName="e" x="0" y="0" flags="0x204"/>
      <component glyphName="dotaccent" x="46" y="3" flags="0x4"/>
    </TTGlyph>
    <TTGlyph name="egrave" xMin="17" yMin="-10" xMax="446" yMax="695">
      <component glyphName="e" x="0" y="0" flags="0x204"/>
      <component glyphName="grave" x="-20" y="3" flags="0x4"/>
    </TTGlyph>
    <TTGlyph name="eight" xMin="16" yMin="-13" xMax="549" yMax="696">
      <contour>
        <pt x="260" y="-13" on="1"/>
        <pt x="198" y="-13" on="0"/>
        <pt x="105" y="16" on="0"/>
        <pt x="45" y="66" on="0"/>
        <pt x="16" y="133" on="0"/>
        <pt x="16" y="170" on="1"/>
        <pt x="16" y="232" on="0"/>
        <pt x="89" y="328" on="0"/>
        <pt x="155" y="361" on="1"/>
        <pt x="119" y="392" on="0"/>
        <pt x="82" y="463" on="0"/>
        <pt x="82" y="500" on="1"/>
        <pt x="82" y="541" on="0"/>
        <pt x="115" y="613" on="0"/>
        <pt x="177" y="666" on="0"/>
        <pt x="268" y="696" on="0"/>
        <pt x="326" y="696" on="1"/>
        <pt x="428" y="696" on="0"/>
        <pt x="549" y="603" on="0"/>
        <pt x="549" y="531" on="1"/>
        <pt x="549" y="479" on="0"/>
        <pt x="488" y="393" on="0"/>
        <pt x="426" y="360" on="1"/>
        <pt x="471" y="326" on="0"/>
        <pt x="515" y="247" on="0"/>
        <pt x="515" y="199" on="1"/>
        <pt x="515" y="155" on="0"/>
        <pt x="480" y="77" on="0"/>
        <pt x="415" y="20" on="0"/>
        <pt x="320" y="-13" on="0"/>
      </contour>
      <contour>
        <pt x="253" y="513" on="1"/>
        <pt x="253" y="489" on="0"/>
        <pt x="285" y="447" on="0"/>
        <pt x="322" y="424" on="1"/>
        <pt x="348" y="446" on="0"/>
        <pt x="378" y="494" on="0"/>
        <pt x="378" y="519" on="1"/>
        <pt x="378" y="544" on="0"/>
        <pt x="347" y="573" on="0"/>
        <pt x="319" y="573" on="1"/>
        <pt x="288" y="573" on="0"/>
        <pt x="253" y="537" on="0"/>
      </contour>
      <contour>
        <pt x="263" y="115" on="1"/>
        <pt x="294" y="115" on="0"/>
        <pt x="338" y="156" on="0"/>
        <pt x="338" y="191" on="1"/>
        <pt x="338" y="217" on="0"/>
        <pt x="304" y="265" on="0"/>
        <pt x="255" y="294" on="1"/>
        <pt x="225" y="269" on="0"/>
        <pt x="193" y="214" on="0"/>
        <pt x="193" y="183" on="1"/>
        <pt x="193" y="154" on="0"/>
        <pt x="230" y="115" on="0"/>
      </contour>
    </TTGlyph>
    <TTGlyph name="eight.den" xMin="6" yMin="-9" xMax="298" yMax="371">
      <component glyphName="eight.num" x="-49" y="-325" flags="0x4"/>
    </TTGlyph>
    <TTGlyph name="eight.inf" xMin="-17" yMin="-159" xMax="275" yMax="221">
      <component glyphName="eight.num" x="-72" y="-475" flags="0x4"/>
    </TTGlyph>
    <TTGlyph name="eight.num" xMin="55" yMin="316" xMax="347" yMax="696">
      <contour>
        <pt x="188" y="316" on="1"/>
        <pt x="125" y="316" on="0"/>
        <pt x="55" y="371" on="0"/>
        <pt x="55" y="414" on="1"/>
        <pt x="55" y="444" on="0"/>
        <pt x="88" y="494" on="0"/>
        <pt x="128" y="515" on="1"/>
        <pt x="109" y="529" on="0"/>
        <pt x="85" y="567" on="0"/>
        <pt x="85" y="592" on="1"/>
        <pt x="85" y="635" on="0"/>
        <pt x="156" y="696" on="0"/>
        <pt x="223" y="696" on="1"/>
        <pt x="280" y="696" on="0"/>
        <pt x="347" y="645" on="0"/>
        <pt x="347" y="605" on="1"/>
        <pt x="347" y="571" on="0"/>
        <pt x="308" y="526" on="0"/>
        <pt x="277" y="510" on="1"/>
        <pt x="299" y="494" on="0"/>
        <pt x="328" y="455" on="0"/>
        <pt x="328" y="428" on="1"/>
        <pt x="328" y="383" on="0"/>
        <pt x="256" y="316" on="0"/>
      </contour>
      <contour>
        <pt x="183" y="591" on="1"/>
        <pt x="183" y="575" on="0"/>
        <pt x="206" y="551" on="0"/>
        <pt x="226" y="539" on="1"/>
        <pt x="236" y="552" on="0"/>
        <pt x="248" y="578" on="0"/>
        <pt x="248" y="590" on="1"/>
        <pt x="248" y="606" on="0"/>
        <pt x="231" y="624" on="0"/>
        <pt x="216" y="624" on="1"/>
        <pt x="201" y="624" on="0"/>
        <pt x="183" y="604" on="0"/>
      </contour>
      <contour>
        <pt x="191" y="390" on="1"/>
        <pt x="208" y="390" on="0"/>
        <pt x="228" y="412" on="0"/>
        <pt x="228" y="426" on="1"/>
        <pt x="228" y="443" on="0"/>
        <pt x="203" y="470" on="0"/>
        <pt x="181" y="483" on="1"/>
        <pt x="168" y="469" on="0"/>
        <pt x="155" y="440" on="0"/>
        <pt x="155" y="427" on="1"/>
        <pt x="155" y="410" on="0"/>
        <pt x="175" y="390" on="0"/>
      </contour>
    </TTGlyph>
    <TTGlyph name="eight.sup" xMin="68" yMin="410" xMax="360" yMax="790">
      <component glyphName="eight.num" x="13" y="94" flags="0x4"/>
    </TTGlyph>
    <TTGlyph name="eight.tab" xMin="14" yMin="-11" xMax="492" yMax="698">
      <contour>
        <pt x="230" y="-11" on="1"/>
        <pt x="124" y="-11" on="0"/>
        <pt x="14" y="92" on="0"/>
        <pt x="14" y="168" on="1"/>
        <pt x="14" y="232" on="0"/>
        <pt x="82" y="331" on="0"/>
        <pt x="145" y="366" on="1"/>
        <pt x="108" y="396" on="0"/>
        <pt x="69" y="461" on="0"/>
        <pt x="69" y="507" on="1"/>
        <pt x="69" y="588" on="0"/>
        <pt x="192" y="698" on="0"/>
        <pt x="293" y="698" on="1"/>
        <pt x="382" y="698" on="0"/>
        <pt x="492" y="610" on="0"/>
        <pt x="492" y="532" on="1"/>
        <pt x="492" y="467" on="0"/>
        <pt x="420" y="375" on="0"/>
        <pt x="368" y="350" on="1"/>
        <pt x="406" y="320" on="0"/>
        <pt x="456" y="246" on="0"/>
        <pt x="456" y="192" on="1"/>
        <pt x="456" y="103" on="0"/>
        <pt x="329" y="-11" on="0"/>
      </contour>
      <contour>
        <pt x="228" y="507" on="1"/>
        <pt x="228" y="479" on="0"/>
        <pt x="256" y="434" on="0"/>
        <pt x="282" y="412" on="1"/>
        <pt x="304" y="432" on="0"/>
        <pt x="334" y="484" on="0"/>
        <pt x="334" y="516" on="1"/>
        <pt x="334" y="544" on="0"/>
        <pt x="308" y="576" on="0"/>
        <pt x="285" y="576" on="1"/>
        <pt x="258" y="576" on="0"/>
        <pt x="228" y="536" on="0"/>
      </contour>
      <contour>
        <pt x="232" y="109" on="1"/>
        <pt x="261" y="108" on="0"/>
        <pt x="296" y="154" on="0"/>
        <pt x="296" y="189" on="1"/>
        <pt x="296" y="224" on="0"/>
        <pt x="259" y="280" on="0"/>
        <pt x="228" y="305" on="1"/>
        <pt x="204" y="283" on="0"/>
        <pt x="174" y="219" on="0"/>
        <pt x="174" y="180" on="1"/>
        <pt x="174" y="149" on="0"/>
        <pt x="204" y="109" on="0"/>
      </contour>
    </TTGlyph>
    <TTGlyph name="ellipsis" xMin="-7" yMin="0" xMax="693" yMax="198">
      <contour>
        <pt x="168" y="0" on="1"/>
        <pt x="-7" y="0" on="1"/>
        <pt x="24" y="198" on="1"/>
        <pt x="197" y="198" on="1"/>
      </contour>
      <contour>
        <pt x="416" y="0" on="1"/>
        <pt x="242" y="0" on="1"/>
        <pt x="272" y="198" on="1"/>
        <pt x="446" y="198" on="1"/>
      </contour>
      <contour>
        <pt x="663" y="0" on="1"/>
        <pt x="490" y="0" on="1"/>
        <pt x="519" y="198" on="1"/>
        <pt x="693" y="198" on="1"/>
      </contour>
    </TTGlyph>
    <TTGlyph name="emacron" xMin="17" yMin="-10" xMax="449" yMax="666">
      <component glyphName="e" x="0" y="0" flags="0x204"/>
      <component glyphName="macron" x="45" y="3" flags="0x4"/>
    </TTGlyph>
    <TTGlyph name="emdash" xMin="21" yMin="212" xMax="754" yMax="375">
      <contour>
        <pt x="729" y="212" on="1"/>
        <pt x="21" y="212" on="1"/>
        <pt x="45" y="375" on="1"/>
        <pt x="754" y="375" on="1"/>
      </contour>
    </TTGlyph>
    <TTGlyph name="endash" xMin="21" yMin="211" xMax="399" yMax="376">
      <contour>
        <pt x="375" y="211" on="1"/>
        <pt x="21" y="211" on="1"/>
        <pt x="45" y="376" on="1"/>
        <pt x="399" y="376" on="1"/>
      </contour>
    </TTGlyph>
    <TTGlyph name="eogonek" xMin="17" yMin="-206" xMax="446" yMax="505">
      <contour>
        <pt x="267" y="-206" on="1"/>
        <pt x="220" y="-206" on="0"/>
        <pt x="171" y="-167" on="0"/>
        <pt x="171" y="-130" on="1"/>
        <pt x="171" y="-100" on="0"/>
        <pt x="210" y="-44" on="0"/>
        <pt x="247" y="-10" on="1"/>
        <pt x="229" y="-10" on="1"/>
        <pt x="132" y="-10" on="0"/>
        <pt x="17" y="107" on="0"/>
        <pt x="17" y="202" on="1"/>
        <pt x="17" y="264" on="0"/>
        <pt x="55" y="375" on="0"/>
        <pt x="122" y="457" on="0"/>
        <pt x="217" y="505" on="0"/>
        <pt x="273" y="505" on="1"/>
        <pt x="360" y="505" on="0"/>
        <pt x="446" y="399" on="0"/>
        <pt x="446" y="318" on="1"/>
        <pt x="446" y="290" on="0"/>
        <pt x="437" y="228" on="0"/>
        <pt x="430" y="202" on="1"/>
        <pt x="180" y="202" on="1"/>
        <pt x="183" y="155" on="0"/>
        <pt x="226" y="115" on="0"/>
        <pt x="264" y="115" on="1"/>
        <pt x="299" y="115" on="0"/>
        <pt x="370" y="135" on="0"/>
        <pt x="404" y="151" on="1"/>
        <pt x="404" y="38" on="1"/>
        <pt x="363" y="0" on="1"/>
        <pt x="326" y="-34" on="0"/>
        <pt x="297" y="-73" on="0"/>
        <pt x="297" y="-89" on="1"/>
        <pt x="297" y="-101" on="0"/>
        <pt x="314" y="-114" on="0"/>
        <pt x="333" y="-114" on="1"/>
        <pt x="346" y="-114" on="0"/>
        <pt x="366" y="-111" on="0"/>
        <pt x="379" y="-108" on="1"/>
        <pt x="368" y="-188" on="1"/>
        <pt x="346" y="-196" on="0"/>
        <pt x="299" y="-206" on="0"/>
      </contour>
      <contour>
        <pt x="188" y="297" on="1"/>
        <pt x="290" y="297" on="1"/>
        <pt x="297" y="338" on="0"/>
        <pt x="282" y="389" on="0"/>
        <pt x="258" y="389" on="1"/>
        <pt x="234" y="389" on="0"/>
        <pt x="197" y="337" on="0"/>
      </contour>
    </TTGlyph>
    <TTGlyph name="equal" xMin="39" yMin="164" xMax="505" yMax="520">
      <contour>
        <pt x="485" y="389" on="1"/>
        <pt x="73" y="389" on="1"/>
        <pt x="93" y="520" on="1"/>
        <pt x="505" y="520" on="1"/>
      </contour>
      <contour>
        <pt x="451" y="164" on="1"/>
        <pt x="39" y="164" on="1"/>
        <pt x="58" y="295" on="1"/>
        <pt x="471" y="295" on="1"/>
      </contour>
    </TTGlyph>
    <TTGlyph name="equal.tab" xMin="27" yMin="160" xMax="489" yMax="529">
      <contour>
        <pt x="468" y="394" on="1"/>
        <pt x="62" y="394" on="1"/>
        <pt x="82" y="529" on="1"/>
        <pt x="489" y="529" on="1"/>
      </contour>
      <contour>
        <pt x="433" y="160" on="1"/>
        <pt x="27" y="160" on="1"/>
        <pt x="47" y="294" on="1"/>
        <pt x="453" y="294" on="1"/>
      </contour>
    </TTGlyph>
    <TTGlyph name="eth" xMin="14" yMin="-11" xMax="476" yMax="722">
      <contour>
        <pt x="212" y="-11" on="1"/>
        <pt x="171" y="-11" on="0"/>
        <pt x="98" y="14" on="0"/>
        <pt x="45" y="65" on="0"/>
        <pt x="14" y="144" on="0"/>
        <pt x="14" y="198" on="1"/>
        <pt x="14" y="257" on="0"/>
        <pt x="47" y="355" on="0"/>
        <pt x="100" y="425" on="0"/>
        <pt x="169" y="464" on="0"/>
        <pt x="206" y="464" on="1"/>
        <pt x="241" y="464" on="0"/>
        <pt x="294" y="436" on="0"/>
        <pt x="318" y="408" on="1"/>
        <pt x="317" y="443" on="0"/>
        <pt x="293" y="501" on="0"/>
        <pt x="270" y="524" on="1"/>
        <pt x="248" y="498" on="1"/>
        <pt x="163" y="498" on="1"/>
        <pt x="214" y="563" on="1"/>
        <pt x="202" y="570" on="0"/>
        <pt x="175" y="582" on="0"/>
        <pt x="159" y="587" on="1"/>
        <pt x="201" y="722" on="1"/>
        <pt x="229" y="713" on="0"/>
        <pt x="281" y="690" on="0"/>
        <pt x="303" y="677" on="1"/>
        <pt x="338" y="722" on="1"/>
        <pt x="420" y="702" on="1"/>
        <pt x="364" y="634" on="1"/>
        <pt x="418" y="585" on="0"/>
        <pt x="476" y="450" on="0"/>
        <pt x="476" y="363" on="1"/>
        <pt x="476" y="318" on="0"/>
        <pt x="460" y="228" on="0"/>
        <pt x="432" y="148" on="0"/>
        <pt x="392" y="80" on="0"/>
        <pt x="368" y="56" on="1"/>
        <pt x="332" y="20" on="0"/>
        <pt x="254" y="-11" on="0"/>
      </contour>
      <contour>
        <pt x="222" y="127" on="1"/>
        <pt x="249" y="127" on="0"/>
        <pt x="287" y="189" on="0"/>
        <pt x="300" y="258" on="1"/>
        <pt x="301" y="266" on="0"/>
        <pt x="306" y="286" on="0"/>
        <pt x="307" y="296" on="1"/>
        <pt x="294" y="310" on="0"/>
        <pt x="264" y="328" on="0"/>
        <pt x="247" y="328" on="1"/>
        <pt x="219" y="328" on="0"/>
        <pt x="180" y="251" on="0"/>
        <pt x="180" y="195" on="1"/>
        <pt x="180" y="163" on="0"/>
        <pt x="203" y="127" on="0"/>
      </contour>
    </TTGlyph>
    <TTGlyph name="exclam" xMin="10" yMin="0" xMax="309" yMax="690">
      <contour>
        <pt x="309" y="690" on="1"/>
        <pt x="191" y="263" on="1"/>
        <pt x="87" y="243" on="1"/>
        <pt x="97" y="690" on="1"/>
      </contour>
      <contour>
        <pt x="218" y="191" on="1"/>
        <pt x="190" y="0" on="1"/>
        <pt x="10" y="0" on="1"/>
        <pt x="38" y="191" on="1"/>
      </contour>
    </TTGlyph>
    <TTGlyph name="exclam.flat" xMin="10" yMin="0" xMax="309" yMax="690">
      <contour>
        <pt x="309" y="690" on="1"/>
        <pt x="188" y="253" on="1"/>
        <pt x="87" y="253" on="1"/>
        <pt x="97" y="690" on="1"/>
      </contour>
      <contour>
        <pt x="218" y="191" on="1"/>
        <pt x="190" y="0" on="1"/>
        <pt x="10" y="0" on="1"/>
        <pt x="38" y="191" on="1"/>
      </contour>
    </TTGlyph>
    <TTGlyph name="exclamdown" xMin="-6" yMin="0" xMax="294" yMax="690">
      <contour>
        <pt x="294" y="690" on="1"/>
        <pt x="266" y="500" on="1"/>
        <pt x="86" y="500" on="1"/>
        <pt x="114" y="690" on="1"/>
      </contour>
      <contour>
        <pt x="217" y="444" on="1"/>
        <pt x="207" y="0" on="1"/>
        <pt x="-6" y="0" on="1"/>
        <pt x="114" y="431" on="1"/>
      </contour>
    </TTGlyph>
    <TTGlyph name="exclamdown.flat" xMin="-6" yMin="0" xMax="294" yMax="690">
      <contour>
        <pt x="86" y="500" on="1"/>
        <pt x="114" y="690" on="1"/>
        <pt x="294" y="690" on="1"/>
        <pt x="266" y="500" on="1"/>
      </contour>
      <contour>
        <pt x="-6" y="0" on="1"/>
        <pt x="115" y="434" on="1"/>
        <pt x="217" y="441" on="1"/>
        <pt x="207" y="0" on="1"/>
      </contour>
    </TTGlyph>
    <TTGlyph name="f" xMin="2" yMin="-178" xMax="382" yMax="715">
      <contour>
        <pt x="382" y="576" on="1"/>
        <pt x="369" y="580" on="0"/>
        <pt x="348" y="583" on="0"/>
        <pt x="336" y="583" on="1"/>
        <pt x="311" y="583" on="0"/>
        <pt x="279" y="557" on="0"/>
        <pt x="274" y="523" on="1"/>
        <pt x="269" y="495" on="1"/>
        <pt x="344" y="495" on="1"/>
        <pt x="344" y="352" on="1"/>
        <pt x="249" y="352" on="1"/>
        <pt x="174" y="-151" on="1"/>
        <pt x="2" y="-178" on="1"/>
        <pt x="81" y="352" on="1"/>
        <pt x="22" y="352" on="1"/>
        <pt x="43" y="495" on="1"/>
        <pt x="102" y="495" on="1"/>
        <pt x="110" y="546" on="1"/>
        <pt x="121" y="624" on="0"/>
        <pt x="212" y="715" on="0"/>
        <pt x="303" y="715" on="1"/>
        <pt x="330" y="715" on="0"/>
        <pt x="366" y="711" on="0"/>
        <pt x="382" y="708" on="1"/>
      </contour>
    </TTGlyph>
    <TTGlyph name="f.flat" xMin="2" yMin="-178" xMax="382" yMax="715">
      <contour>
        <pt x="382" y="576" on="1"/>
        <pt x="369" y="580" on="0"/>
        <pt x="348" y="583" on="0"/>
        <pt x="336" y="583" on="1"/>
        <pt x="311" y="583" on="0"/>
        <pt x="279" y="557" on="0"/>
        <pt x="274" y="523" on="1"/>
        <pt x="269" y="495" on="1"/>
        <pt x="355" y="495" on="1"/>
        <pt x="333" y="352" on="1"/>
        <pt x="249" y="352" on="1"/>
        <pt x="174" y="-151" on="1"/>
        <pt x="2" y="-178" on="1"/>
        <pt x="81" y="352" on="1"/>
        <pt x="22" y="352" on="1"/>
        <pt x="43" y="495" on="1"/>
        <pt x="102" y="495" on="1"/>
        <pt x="110" y="546" on="1"/>
        <pt x="121" y="624" on="0"/>
        <pt x="212" y="715" on="0"/>
        <pt x="303" y="715" on="1"/>
        <pt x="330" y="715" on="0"/>
        <pt x="366" y="711" on="0"/>
        <pt x="382" y="708" on="1"/>
      </contour>
    </TTGlyph>
    <TTGlyph name="f_f" xMin="2" yMin="-178" xMax="713" yMax="715">
      <component glyphName="f" x="0" y="0" flags="0x4"/>
      <component glyphName="f" x="331" y="0" flags="0x4"/>
    </TTGlyph>
    <TTGlyph name="f_f.flat" xMin="2" yMin="-178" xMax="713" yMax="715">
      <component glyphName="f.flat" x="0" y="0" flags="0x4"/>
      <component glyphName="f.flat" x="331" y="0" flags="0x4"/>
    </TTGlyph>
    <TTGlyph name="f_f_i" xMin="2" yMin="-178" xMax="940" yMax="723">
      <component glyphName="f" x="0" y="0" flags="0x4"/>
      <component glyphName="f" x="331" y="0" flags="0x4"/>
      <component glyphName="i" x="659" y="0" flags="0x4"/>
    </TTGlyph>
    <TTGlyph name="f_f_i.flat" xMin="2" yMin="-178" xMax="943" yMax="723">
      <component glyphName="f.flat" x="0" y="0" flags="0x4"/>
      <component glyphName="f.flat" x="331" y="0" flags="0x4"/>
      <component glyphName="i" x="662" y="0" flags="0x4"/>
    </TTGlyph>
    <TTGlyph name="f_f_l" xMin="2" yMin="-178" xMax="942" yMax="722">
      <component glyphName="f" x="0" y="0" flags="0x4"/>
      <component glyphName="f" x="331" y="0" flags="0x4"/>
      <component glyphName="l" x="660" y="0" flags="0x4"/>
    </TTGlyph>
    <TTGlyph name="f_f_l.flat" xMin="2" yMin="-178" xMax="945" yMax="722">
      <component glyphName="f.flat" x="0" y="0" flags="0x4"/>
      <component glyphName="f.flat" x="331" y="0" flags="0x4"/>
      <component glyphName="l" x="663" y="0" flags="0x4"/>
    </TTGlyph>
    <TTGlyph name="fi" xMin="2" yMin="-178" xMax="608" yMax="723">
      <component glyphName="f" x="0" y="0" flags="0x4"/>
      <component glyphName="i" x="327" y="0" flags="0x4"/>
    </TTGlyph>
    <TTGlyph name="fi.flat" xMin="2" yMin="-178" xMax="612" yMax="723">
      <component glyphName="f.flat" x="0" y="0" flags="0x4"/>
      <component glyphName="i" x="331" y="0" flags="0x4"/>
    </TTGlyph>
    <TTGlyph name="five" xMin="-6" yMin="-13" xMax="507" yMax="683">
      <contour>
        <pt x="507" y="523" on="1"/>
        <pt x="265" y="523" on="1"/>
        <pt x="247" y="434" on="1"/>
        <pt x="358" y="418" on="0"/>
        <pt x="474" y="319" on="0"/>
        <pt x="474" y="226" on="1"/>
        <pt x="474" y="114" on="0"/>
        <pt x="332" y="-13" on="0"/>
        <pt x="214" y="-13" on="1"/>
        <pt x="148" y="-13" on="0"/>
        <pt x="40" y="13" on="0"/>
        <pt x="-6" y="35" on="1"/>
        <pt x="39" y="190" on="1"/>
        <pt x="79" y="171" on="0"/>
        <pt x="157" y="147" on="0"/>
        <pt x="206" y="147" on="1"/>
        <pt x="249" y="147" on="0"/>
        <pt x="293" y="186" on="0"/>
        <pt x="293" y="216" on="1"/>
        <pt x="293" y="258" on="0"/>
        <pt x="185" y="301" on="0"/>
        <pt x="63" y="309" on="1"/>
        <pt x="140" y="683" on="1"/>
        <pt x="507" y="683" on="1"/>
      </contour>
    </TTGlyph>
    <TTGlyph name="five.den" xMin="-2" yMin="-9" xMax="285" yMax="362">
      <component glyphName="five.num" x="-49" y="-325" flags="0x4"/>
    </TTGlyph>
    <TTGlyph name="five.den_flat" xMin="-2" yMin="-9" xMax="291" yMax="362">
      <component glyphName="five.num_flat" x="-49" y="-325" flags="0x4"/>
    </TTGlyph>
    <TTGlyph name="five.flat" xMin="-6" yMin="-13" xMax="520" yMax="683">
      <contour>
        <pt x="496" y="523" on="1"/>
        <pt x="265" y="523" on="1"/>
        <pt x="247" y="434" on="1"/>
        <pt x="358" y="418" on="0"/>
        <pt x="474" y="319" on="0"/>
        <pt x="474" y="226" on="1"/>
        <pt x="474" y="114" on="0"/>
        <pt x="332" y="-13" on="0"/>
        <pt x="214" y="-13" on="1"/>
        <pt x="148" y="-13" on="0"/>
        <pt x="40" y="13" on="0"/>
        <pt x="-6" y="35" on="1"/>
        <pt x="39" y="190" on="1"/>
        <pt x="79" y="171" on="0"/>
        <pt x="157" y="147" on="0"/>
        <pt x="206" y="147" on="1"/>
        <pt x="249" y="147" on="0"/>
        <pt x="293" y="186" on="0"/>
        <pt x="293" y="216" on="1"/>
        <pt x="293" y="258" on="0"/>
        <pt x="185" y="301" on="0"/>
        <pt x="63" y="309" on="1"/>
        <pt x="140" y="683" on="1"/>
        <pt x="520" y="683" on="1"/>
      </contour>
    </TTGlyph>
    <TTGlyph name="five.inf" xMin="-25" yMin="-159" xMax="262" yMax="212">
      <component glyphName="five.num" x="-72" y="-475" flags="0x4"/>
    </TTGlyph>
    <TTGlyph name="five.inf_flat" xMin="-25" yMin="-159" xMax="268" yMax="212">
      <component glyphName="five.num_flat" x="-72" y="-475" flags="0x4"/>
    </TTGlyph>
    <TTGlyph name="five.num" xMin="47" yMin="316" xMax="334" yMax="687">
      <contour>
        <pt x="323" y="443" on="1"/>
        <pt x="323" y="384" on="0"/>
        <pt x="242" y="316" on="0"/>
        <pt x="176" y="316" on="1"/>
        <pt x="141" y="316" on="0"/>
        <pt x="74" y="334" on="0"/>
        <pt x="47" y="347" on="1"/>
        <pt x="73" y="433" on="1"/>
        <pt x="96" y="420" on="0"/>
        <pt x="143" y="406" on="0"/>
        <pt x="166" y="406" on="1"/>
        <pt x="190" y="406" on="0"/>
        <pt x="211" y="426" on="0"/>
        <pt x="211" y="439" on="1"/>
        <pt x="211" y="458" on="0"/>
        <pt x="163" y="484" on="0"/>
        <pt x="83" y="502" on="1"/>
        <pt x="125" y="687" on="1"/>
        <pt x="334" y="687" on="1"/>
        <pt x="334" y="596" on="1"/>
        <pt x="193" y="596" on="1"/>
        <pt x="185" y="563" on="1"/>
        <pt x="257" y="548" on="0"/>
        <pt x="323" y="491" on="0"/>
      </contour>
    </TTGlyph>
    <TTGlyph name="five.num_flat" xMin="47" yMin="316" xMax="340" yMax="687">
      <contour>
        <pt x="323" y="443" on="1"/>
        <pt x="323" y="384" on="0"/>
        <pt x="242" y="316" on="0"/>
        <pt x="176" y="316" on="1"/>
        <pt x="141" y="316" on="0"/>
        <pt x="74" y="334" on="0"/>
        <pt x="47" y="347" on="1"/>
        <pt x="73" y="433" on="1"/>
        <pt x="96" y="420" on="0"/>
        <pt x="143" y="406" on="0"/>
        <pt x="166" y="406" on="1"/>
        <pt x="190" y="406" on="0"/>
        <pt x="211" y="426" on="0"/>
        <pt x="211" y="439" on="1"/>
        <pt x="211" y="458" on="0"/>
        <pt x="163" y="484" on="0"/>
        <pt x="83" y="502" on="1"/>
        <pt x="125" y="687" on="1"/>
        <pt x="340" y="687" on="1"/>
        <pt x="327" y="596" on="1"/>
        <pt x="193" y="596" on="1"/>
        <pt x="185" y="563" on="1"/>
        <pt x="257" y="548" on="0"/>
        <pt x="323" y="491" on="0"/>
      </contour>
    </TTGlyph>
    <TTGlyph name="five.sup" xMin="60" yMin="410" xMax="347" yMax="781">
      <component glyphName="five.num" x="13" y="94" flags="0x4"/>
    </TTGlyph>
    <TTGlyph name="five.sup_flat" xMin="60" yMin="410" xMax="353" yMax="781">
      <component glyphName="five.num_flat" x="13" y="94" flags="0x4"/>
    </TTGlyph>
    <TTGlyph name="five.tab" xMin="-5" yMin="-9" xMax="489" yMax="687">
      <contour>
        <pt x="456" y="231" on="1"/>
        <pt x="456" y="123" on="0"/>
        <pt x="318" y="-9" on="0"/>
        <pt x="201" y="-9" on="1"/>
        <pt x="140" y="-9" on="0"/>
        <pt x="32" y="20" on="0"/>
        <pt x="-5" y="40" on="1"/>
        <pt x="27" y="189" on="1"/>
        <pt x="67" y="169" on="0"/>
        <pt x="151" y="142" on="0"/>
        <pt x="188" y="142" on="1"/>
        <pt x="235" y="142" on="0"/>
        <pt x="284" y="183" on="0"/>
        <pt x="284" y="216" on="1"/>
        <pt x="284" y="260" on="0"/>
        <pt x="177" y="306" on="0"/>
        <pt x="62" y="326" on="1"/>
        <pt x="134" y="687" on="1"/>
        <pt x="489" y="687" on="1"/>
        <pt x="489" y="534" on="1"/>
        <pt x="249" y="534" on="1"/>
        <pt x="231" y="445" on="1"/>
        <pt x="344" y="416" on="0"/>
        <pt x="456" y="312" on="0"/>
      </contour>
    </TTGlyph>
    <TTGlyph name="five.tab_flat" xMin="-5" yMin="-9" xMax="500" yMax="687">
      <contour>
        <pt x="456" y="231" on="1"/>
        <pt x="456" y="123" on="0"/>
        <pt x="318" y="-9" on="0"/>
        <pt x="201" y="-9" on="1"/>
        <pt x="140" y="-9" on="0"/>
        <pt x="32" y="20" on="0"/>
        <pt x="-5" y="40" on="1"/>
        <pt x="27" y="189" on="1"/>
        <pt x="67" y="169" on="0"/>
        <pt x="151" y="142" on="0"/>
        <pt x="188" y="142" on="1"/>
        <pt x="235" y="142" on="0"/>
        <pt x="284" y="183" on="0"/>
        <pt x="284" y="216" on="1"/>
        <pt x="284" y="260" on="0"/>
        <pt x="177" y="306" on="0"/>
        <pt x="62" y="326" on="1"/>
        <pt x="134" y="687" on="1"/>
        <pt x="500" y="687" on="1"/>
        <pt x="478" y="534" on="1"/>
        <pt x="249" y="534" on="1"/>
        <pt x="231" y="445" on="1"/>
        <pt x="344" y="416" on="0"/>
        <pt x="456" y="312" on="0"/>
      </contour>
    </TTGlyph>
    <TTGlyph name="fiveeighths" xMin="47" yMin="-15" xMax="703" yMax="696">
      <component glyphName="five.num" x="0" y="0" flags="0x4"/>
      <component glyphName="fraction" x="237" y="0" flags="0x4"/>
      <component glyphName="eight.num" x="356" y="-325" flags="0x4"/>
    </TTGlyph>
    <TTGlyph name="fiveeighths.flat" xMin="47" yMin="-15" xMax="703" yMax="696">
      <component glyphName="five.num_flat" x="0" y="0" flags="0x4"/>
      <component glyphName="fraction" x="237" y="0" flags="0x4"/>
      <component glyphName="eight.num" x="356" y="-325" flags="0x4"/>
    </TTGlyph>
    <TTGlyph name="fivesixths" xMin="47" yMin="-15" xMax="689" yMax="696">
      <component glyphName="five.num" x="0" y="0" flags="0x4"/>
      <component glyphName="fraction" x="254" y="0" flags="0x4"/>
      <component glyphName="six.num" x="350" y="-325" flags="0x4"/>
    </TTGlyph>
    <TTGlyph name="fivesixths.flat" xMin="47" yMin="-15" xMax="689" yMax="696">
      <component glyphName="five.num_flat" x="0" y="0" flags="0x4"/>
      <component glyphName="fraction" x="254" y="0" flags="0x4"/>
      <component glyphName="six.num" x="350" y="-325" flags="0x4"/>
    </TTGlyph>
    <TTGlyph name="fl" xMin="2" yMin="-178" xMax="610" yMax="722">
      <component glyphName="f" x="0" y="0" flags="0x4"/>
      <component glyphName="l" x="328" y="0" flags="0x4"/>
    </TTGlyph>
    <TTGlyph name="fl.flat" xMin="2" yMin="-178" xMax="614" yMax="722">
      <component glyphName="f.flat" x="0" y="0" flags="0x4"/>
      <component glyphName="l" x="332" y="0" flags="0x4"/>
    </TTGlyph>
    <TTGlyph name="florin" xMin="40" yMin="0" xMax="427" yMax="691">
      <contour>
        <pt x="376" y="324" on="1"/>
        <pt x="275" y="324" on="1"/>
        <pt x="213" y="0" on="1"/>
        <pt x="41" y="0" on="1"/>
        <pt x="104" y="324" on="1"/>
        <pt x="40" y="324" on="1"/>
        <pt x="68" y="468" on="1"/>
        <pt x="132" y="468" on="1"/>
        <pt x="142" y="520" on="1"/>
        <pt x="158" y="604" on="0"/>
        <pt x="253" y="691" on="0"/>
        <pt x="343" y="691" on="1"/>
        <pt x="368" y="691" on="0"/>
        <pt x="411" y="686" on="0"/>
        <pt x="427" y="684" on="1"/>
        <pt x="422" y="551" on="1"/>
        <pt x="412" y="553" on="0"/>
        <pt x="389" y="556" on="0"/>
        <pt x="377" y="556" on="1"/>
        <pt x="347" y="556" on="0"/>
        <pt x="313" y="525" on="0"/>
        <pt x="307" y="492" on="1"/>
        <pt x="302" y="468" on="1"/>
        <pt x="382" y="468" on="1"/>
      </contour>
    </TTGlyph>
    <TTGlyph name="four" xMin="-1" yMin="0" xMax="558" yMax="683">
      <contour>
        <pt x="558" y="256" on="1"/>
        <pt x="538" y="123" on="1"/>
        <pt x="456" y="123" on="1"/>
        <pt x="437" y="0" on="1"/>
        <pt x="263" y="0" on="1"/>
        <pt x="282" y="123" on="1"/>
        <pt x="-1" y="123" on="1"/>
        <pt x="19" y="247" on="1"/>
        <pt x="320" y="683" on="1"/>
        <pt x="539" y="683" on="1"/>
        <pt x="475" y="256" on="1"/>
      </contour>
      <contour>
        <pt x="303" y="255" on="1"/>
        <pt x="341" y="505" on="1"/>
        <pt x="178" y="255" on="1"/>
      </contour>
    </TTGlyph>
    <TTGlyph name="four.alt" xMin="-1" yMin="0" xMax="558" yMax="691">
      <contour>
        <pt x="538" y="123" on="1"/>
        <pt x="459" y="123" on="1"/>
        <pt x="440" y="0" on="1"/>
        <pt x="274" y="0" on="1"/>
        <pt x="293" y="123" on="1"/>
        <pt x="-1" y="123" on="1"/>
        <pt x="18" y="248" on="1"/>
        <pt x="318" y="691" on="1"/>
        <pt x="486" y="649" on="1"/>
        <pt x="208" y="257" on="1"/>
        <pt x="313" y="257" on="1"/>
        <pt x="335" y="396" on="1"/>
        <pt x="506" y="437" on="1"/>
        <pt x="479" y="258" on="1"/>
        <pt x="558" y="258" on="1"/>
      </contour>
    </TTGlyph>
    <TTGlyph name="four.alt_flat" xMin="-1" yMin="0" xMax="558" yMax="683">
      <contour>
        <pt x="538" y="123" on="1"/>
        <pt x="459" y="123" on="1"/>
        <pt x="440" y="0" on="1"/>
        <pt x="274" y="0" on="1"/>
        <pt x="293" y="123" on="1"/>
        <pt x="-1" y="123" on="1"/>
        <pt x="18" y="248" on="1"/>
        <pt x="314" y="683" on="1"/>
        <pt x="510" y="683" on="1"/>
        <pt x="208" y="257" on="1"/>
        <pt x="313" y="257" on="1"/>
        <pt x="334" y="396" on="1"/>
        <pt x="500" y="396" on="1"/>
        <pt x="479" y="258" on="1"/>
        <pt x="558" y="258" on="1"/>
      </contour>
    </TTGlyph>
    <TTGlyph name="four.den" xMin="-3" yMin="-1" xMax="297" yMax="367">
      <component glyphName="four.num" x="-49" y="-325" flags="0x4"/>
    </TTGlyph>
    <TTGlyph name="four.inf" xMin="-26" yMin="-151" xMax="274" yMax="217">
      <component glyphName="four.num" x="-72" y="-475" flags="0x4"/>
    </TTGlyph>
    <TTGlyph name="four.num" xMin="46" yMin="324" xMax="346" yMax="692">
      <contour>
        <pt x="335" y="391" on="1"/>
        <pt x="294" y="391" on="1"/>
        <pt x="284" y="324" on="1"/>
        <pt x="180" y="324" on="1"/>
        <pt x="190" y="391" on="1"/>
        <pt x="46" y="391" on="1"/>
        <pt x="56" y="463" on="1"/>
        <pt x="204" y="692" on="1"/>
        <pt x="340" y="692" on="1"/>
        <pt x="305" y="466" on="1"/>
        <pt x="346" y="466" on="1"/>
      </contour>
      <contour>
        <pt x="212" y="465" on="1"/>
        <pt x="222" y="522" on="1"/>
        <pt x="244" y="616" on="1"/>
        <pt x="234" y="616" on="1"/>
        <pt x="192" y="536" on="1"/>
        <pt x="172" y="505" on="1"/>
        <pt x="140" y="464" on="1"/>
        <pt x="141" y="460" on="1"/>
        <pt x="185" y="465" on="1"/>
      </contour>
    </TTGlyph>
    <TTGlyph name="four.sup" xMin="59" yMin="418" xMax="359" yMax="786">
      <component glyphName="four.num" x="13" y="94" flags="0x4"/>
    </TTGlyph>
    <TTGlyph name="four.tab" xMin="-10" yMin="0" xMax="477" yMax="691">
      <contour>
        <pt x="457" y="124" on="1"/>
        <pt x="391" y="124" on="1"/>
        <pt x="372" y="0" on="1"/>
        <pt x="210" y="0" on="1"/>
        <pt x="228" y="124" on="1"/>
        <pt x="-10" y="124" on="1"/>
        <pt x="9" y="246" on="1"/>
        <pt x="260" y="691" on="1"/>
        <pt x="476" y="691" on="1"/>
        <pt x="411" y="254" on="1"/>
        <pt x="477" y="254" on="1"/>
      </contour>
      <contour>
        <pt x="259" y="249" on="1"/>
        <pt x="279" y="365" on="1"/>
        <pt x="323" y="559" on="1"/>
        <pt x="309" y="559" on="1"/>
        <pt x="230" y="387" on="1"/>
        <pt x="156" y="249" on="1"/>
      </contour>
    </TTGlyph>
    <TTGlyph name="fourfifths" xMin="38" yMin="-15" xMax="688" yMax="696">
      <component glyphName="four.num" x="-8" y="0" flags="0x4"/>
      <component glyphName="fraction" x="242" y="0" flags="0x4"/>
      <component glyphName="five.num" x="354" y="-325" flags="0x4"/>
    </TTGlyph>
    <TTGlyph name="fourfifths.flat" xMin="38" yMin="-15" xMax="694" yMax="696">
      <component glyphName="four.num" x="-8" y="0" flags="0x4"/>
      <component glyphName="fraction" x="242" y="0" flags="0x4"/>
      <component glyphName="five.num_flat" x="354" y="-325" flags="0x4"/>
    </TTGlyph>
    <TTGlyph name="fraction" xMin="-133" yMin="-15" xMax="409" yMax="696">
      <contour>
        <pt x="162" y="326" on="1"/>
        <pt x="-63" y="-15" on="1"/>
        <pt x="-133" y="9" on="1"/>
        <pt x="113" y="355" on="1"/>
        <pt x="339" y="696" on="1"/>
        <pt x="409" y="672" on="1"/>
      </contour>
    </TTGlyph>
</ttFont>
